G04 #@! TF.GenerationSoftware,KiCad,Pcbnew,5.1.5*
G04 #@! TF.CreationDate,2020-05-18T04:02:55+03:00*
G04 #@! TF.ProjectId,usb-tester,7573622d-7465-4737-9465-722e6b696361,rev?*
G04 #@! TF.SameCoordinates,Original*
G04 #@! TF.FileFunction,Copper,L1,Top*
G04 #@! TF.FilePolarity,Positive*
%FSLAX46Y46*%
G04 Gerber Fmt 4.6, Leading zero omitted, Abs format (unit mm)*
G04 Created by KiCad (PCBNEW 5.1.5) date 2020-05-18 04:02:55*
%MOMM*%
%LPD*%
G04 APERTURE LIST*
%ADD10O,1.700000X1.700000*%
%ADD11R,1.700000X1.700000*%
%ADD12C,0.100000*%
%ADD13R,1.400000X0.300000*%
%ADD14R,1.060000X0.650000*%
%ADD15R,1.200000X1.900000*%
%ADD16O,1.200000X1.900000*%
%ADD17R,1.500000X1.900000*%
%ADD18C,1.450000*%
%ADD19R,0.400000X1.350000*%
%ADD20C,0.508000*%
%ADD21C,0.254000*%
%ADD22C,0.152400*%
G04 APERTURE END LIST*
D10*
X130810000Y-76200000D03*
X130810000Y-78740000D03*
X128270000Y-76200000D03*
X128270000Y-78740000D03*
X125730000Y-76200000D03*
X125730000Y-78740000D03*
X123190000Y-76200000D03*
X123190000Y-78740000D03*
X120650000Y-76200000D03*
D11*
X120650000Y-78740000D03*
D10*
X130810000Y-99060000D03*
X130810000Y-101600000D03*
X128270000Y-99060000D03*
X128270000Y-101600000D03*
X125730000Y-99060000D03*
X125730000Y-101600000D03*
X123190000Y-99060000D03*
X123190000Y-101600000D03*
X120650000Y-99060000D03*
D11*
X120650000Y-101600000D03*
D10*
X130810000Y-91440000D03*
X130810000Y-93980000D03*
X128270000Y-91440000D03*
X128270000Y-93980000D03*
X125730000Y-91440000D03*
X125730000Y-93980000D03*
X123190000Y-91440000D03*
X123190000Y-93980000D03*
X120650000Y-91440000D03*
D11*
X120650000Y-93980000D03*
D10*
X130810000Y-83820000D03*
X130810000Y-86360000D03*
X128270000Y-83820000D03*
X128270000Y-86360000D03*
X125730000Y-83820000D03*
X125730000Y-86360000D03*
X123190000Y-83820000D03*
X123190000Y-86360000D03*
X120650000Y-83820000D03*
D11*
X120650000Y-86360000D03*
D10*
X111760000Y-99060000D03*
X111760000Y-101600000D03*
X109220000Y-99060000D03*
X109220000Y-101600000D03*
X106680000Y-99060000D03*
X106680000Y-101600000D03*
X104140000Y-99060000D03*
X104140000Y-101600000D03*
X101600000Y-99060000D03*
D11*
X101600000Y-101600000D03*
D10*
X111760000Y-91440000D03*
X111760000Y-93980000D03*
X109220000Y-91440000D03*
X109220000Y-93980000D03*
X106680000Y-91440000D03*
X106680000Y-93980000D03*
X104140000Y-91440000D03*
X104140000Y-93980000D03*
X101600000Y-91440000D03*
D11*
X101600000Y-93980000D03*
D10*
X111760000Y-76200000D03*
X111760000Y-78740000D03*
X109220000Y-76200000D03*
X109220000Y-78740000D03*
X106680000Y-76200000D03*
X106680000Y-78740000D03*
X104140000Y-76200000D03*
X104140000Y-78740000D03*
X101600000Y-76200000D03*
D11*
X101600000Y-78740000D03*
D10*
X111760000Y-83820000D03*
X111760000Y-86360000D03*
X109220000Y-83820000D03*
X109220000Y-86360000D03*
X106680000Y-83820000D03*
X106680000Y-86360000D03*
X104140000Y-83820000D03*
X104140000Y-86360000D03*
X101600000Y-83820000D03*
D11*
X101600000Y-86360000D03*
G04 #@! TA.AperFunction,SMDPad,CuDef*
D12*
G36*
X91604703Y-62143722D02*
G01*
X91619264Y-62145882D01*
X91633543Y-62149459D01*
X91647403Y-62154418D01*
X91660710Y-62160712D01*
X91673336Y-62168280D01*
X91685159Y-62177048D01*
X91696066Y-62186934D01*
X91705952Y-62197841D01*
X91714720Y-62209664D01*
X91722288Y-62222290D01*
X91728582Y-62235597D01*
X91733541Y-62249457D01*
X91737118Y-62263736D01*
X91739278Y-62278297D01*
X91740000Y-62293000D01*
X91740000Y-64043000D01*
X91739278Y-64057703D01*
X91737118Y-64072264D01*
X91733541Y-64086543D01*
X91728582Y-64100403D01*
X91722288Y-64113710D01*
X91714720Y-64126336D01*
X91705952Y-64138159D01*
X91696066Y-64149066D01*
X91685159Y-64158952D01*
X91673336Y-64167720D01*
X91660710Y-64175288D01*
X91647403Y-64181582D01*
X91633543Y-64186541D01*
X91619264Y-64190118D01*
X91604703Y-64192278D01*
X91590000Y-64193000D01*
X91290000Y-64193000D01*
X91275297Y-64192278D01*
X91260736Y-64190118D01*
X91246457Y-64186541D01*
X91232597Y-64181582D01*
X91219290Y-64175288D01*
X91206664Y-64167720D01*
X91194841Y-64158952D01*
X91183934Y-64149066D01*
X91174048Y-64138159D01*
X91165280Y-64126336D01*
X91157712Y-64113710D01*
X91151418Y-64100403D01*
X91146459Y-64086543D01*
X91142882Y-64072264D01*
X91140722Y-64057703D01*
X91140000Y-64043000D01*
X91140000Y-62293000D01*
X91140722Y-62278297D01*
X91142882Y-62263736D01*
X91146459Y-62249457D01*
X91151418Y-62235597D01*
X91157712Y-62222290D01*
X91165280Y-62209664D01*
X91174048Y-62197841D01*
X91183934Y-62186934D01*
X91194841Y-62177048D01*
X91206664Y-62168280D01*
X91219290Y-62160712D01*
X91232597Y-62154418D01*
X91246457Y-62149459D01*
X91260736Y-62145882D01*
X91275297Y-62143722D01*
X91290000Y-62143000D01*
X91590000Y-62143000D01*
X91604703Y-62143722D01*
G37*
G04 #@! TD.AperFunction*
G04 #@! TA.AperFunction,SMDPad,CuDef*
G36*
X92874703Y-62143722D02*
G01*
X92889264Y-62145882D01*
X92903543Y-62149459D01*
X92917403Y-62154418D01*
X92930710Y-62160712D01*
X92943336Y-62168280D01*
X92955159Y-62177048D01*
X92966066Y-62186934D01*
X92975952Y-62197841D01*
X92984720Y-62209664D01*
X92992288Y-62222290D01*
X92998582Y-62235597D01*
X93003541Y-62249457D01*
X93007118Y-62263736D01*
X93009278Y-62278297D01*
X93010000Y-62293000D01*
X93010000Y-64043000D01*
X93009278Y-64057703D01*
X93007118Y-64072264D01*
X93003541Y-64086543D01*
X92998582Y-64100403D01*
X92992288Y-64113710D01*
X92984720Y-64126336D01*
X92975952Y-64138159D01*
X92966066Y-64149066D01*
X92955159Y-64158952D01*
X92943336Y-64167720D01*
X92930710Y-64175288D01*
X92917403Y-64181582D01*
X92903543Y-64186541D01*
X92889264Y-64190118D01*
X92874703Y-64192278D01*
X92860000Y-64193000D01*
X92560000Y-64193000D01*
X92545297Y-64192278D01*
X92530736Y-64190118D01*
X92516457Y-64186541D01*
X92502597Y-64181582D01*
X92489290Y-64175288D01*
X92476664Y-64167720D01*
X92464841Y-64158952D01*
X92453934Y-64149066D01*
X92444048Y-64138159D01*
X92435280Y-64126336D01*
X92427712Y-64113710D01*
X92421418Y-64100403D01*
X92416459Y-64086543D01*
X92412882Y-64072264D01*
X92410722Y-64057703D01*
X92410000Y-64043000D01*
X92410000Y-62293000D01*
X92410722Y-62278297D01*
X92412882Y-62263736D01*
X92416459Y-62249457D01*
X92421418Y-62235597D01*
X92427712Y-62222290D01*
X92435280Y-62209664D01*
X92444048Y-62197841D01*
X92453934Y-62186934D01*
X92464841Y-62177048D01*
X92476664Y-62168280D01*
X92489290Y-62160712D01*
X92502597Y-62154418D01*
X92516457Y-62149459D01*
X92530736Y-62145882D01*
X92545297Y-62143722D01*
X92560000Y-62143000D01*
X92860000Y-62143000D01*
X92874703Y-62143722D01*
G37*
G04 #@! TD.AperFunction*
G04 #@! TA.AperFunction,SMDPad,CuDef*
G36*
X94144703Y-62143722D02*
G01*
X94159264Y-62145882D01*
X94173543Y-62149459D01*
X94187403Y-62154418D01*
X94200710Y-62160712D01*
X94213336Y-62168280D01*
X94225159Y-62177048D01*
X94236066Y-62186934D01*
X94245952Y-62197841D01*
X94254720Y-62209664D01*
X94262288Y-62222290D01*
X94268582Y-62235597D01*
X94273541Y-62249457D01*
X94277118Y-62263736D01*
X94279278Y-62278297D01*
X94280000Y-62293000D01*
X94280000Y-64043000D01*
X94279278Y-64057703D01*
X94277118Y-64072264D01*
X94273541Y-64086543D01*
X94268582Y-64100403D01*
X94262288Y-64113710D01*
X94254720Y-64126336D01*
X94245952Y-64138159D01*
X94236066Y-64149066D01*
X94225159Y-64158952D01*
X94213336Y-64167720D01*
X94200710Y-64175288D01*
X94187403Y-64181582D01*
X94173543Y-64186541D01*
X94159264Y-64190118D01*
X94144703Y-64192278D01*
X94130000Y-64193000D01*
X93830000Y-64193000D01*
X93815297Y-64192278D01*
X93800736Y-64190118D01*
X93786457Y-64186541D01*
X93772597Y-64181582D01*
X93759290Y-64175288D01*
X93746664Y-64167720D01*
X93734841Y-64158952D01*
X93723934Y-64149066D01*
X93714048Y-64138159D01*
X93705280Y-64126336D01*
X93697712Y-64113710D01*
X93691418Y-64100403D01*
X93686459Y-64086543D01*
X93682882Y-64072264D01*
X93680722Y-64057703D01*
X93680000Y-64043000D01*
X93680000Y-62293000D01*
X93680722Y-62278297D01*
X93682882Y-62263736D01*
X93686459Y-62249457D01*
X93691418Y-62235597D01*
X93697712Y-62222290D01*
X93705280Y-62209664D01*
X93714048Y-62197841D01*
X93723934Y-62186934D01*
X93734841Y-62177048D01*
X93746664Y-62168280D01*
X93759290Y-62160712D01*
X93772597Y-62154418D01*
X93786457Y-62149459D01*
X93800736Y-62145882D01*
X93815297Y-62143722D01*
X93830000Y-62143000D01*
X94130000Y-62143000D01*
X94144703Y-62143722D01*
G37*
G04 #@! TD.AperFunction*
G04 #@! TA.AperFunction,SMDPad,CuDef*
G36*
X95414703Y-62143722D02*
G01*
X95429264Y-62145882D01*
X95443543Y-62149459D01*
X95457403Y-62154418D01*
X95470710Y-62160712D01*
X95483336Y-62168280D01*
X95495159Y-62177048D01*
X95506066Y-62186934D01*
X95515952Y-62197841D01*
X95524720Y-62209664D01*
X95532288Y-62222290D01*
X95538582Y-62235597D01*
X95543541Y-62249457D01*
X95547118Y-62263736D01*
X95549278Y-62278297D01*
X95550000Y-62293000D01*
X95550000Y-64043000D01*
X95549278Y-64057703D01*
X95547118Y-64072264D01*
X95543541Y-64086543D01*
X95538582Y-64100403D01*
X95532288Y-64113710D01*
X95524720Y-64126336D01*
X95515952Y-64138159D01*
X95506066Y-64149066D01*
X95495159Y-64158952D01*
X95483336Y-64167720D01*
X95470710Y-64175288D01*
X95457403Y-64181582D01*
X95443543Y-64186541D01*
X95429264Y-64190118D01*
X95414703Y-64192278D01*
X95400000Y-64193000D01*
X95100000Y-64193000D01*
X95085297Y-64192278D01*
X95070736Y-64190118D01*
X95056457Y-64186541D01*
X95042597Y-64181582D01*
X95029290Y-64175288D01*
X95016664Y-64167720D01*
X95004841Y-64158952D01*
X94993934Y-64149066D01*
X94984048Y-64138159D01*
X94975280Y-64126336D01*
X94967712Y-64113710D01*
X94961418Y-64100403D01*
X94956459Y-64086543D01*
X94952882Y-64072264D01*
X94950722Y-64057703D01*
X94950000Y-64043000D01*
X94950000Y-62293000D01*
X94950722Y-62278297D01*
X94952882Y-62263736D01*
X94956459Y-62249457D01*
X94961418Y-62235597D01*
X94967712Y-62222290D01*
X94975280Y-62209664D01*
X94984048Y-62197841D01*
X94993934Y-62186934D01*
X95004841Y-62177048D01*
X95016664Y-62168280D01*
X95029290Y-62160712D01*
X95042597Y-62154418D01*
X95056457Y-62149459D01*
X95070736Y-62145882D01*
X95085297Y-62143722D01*
X95100000Y-62143000D01*
X95400000Y-62143000D01*
X95414703Y-62143722D01*
G37*
G04 #@! TD.AperFunction*
G04 #@! TA.AperFunction,SMDPad,CuDef*
G36*
X96684703Y-62143722D02*
G01*
X96699264Y-62145882D01*
X96713543Y-62149459D01*
X96727403Y-62154418D01*
X96740710Y-62160712D01*
X96753336Y-62168280D01*
X96765159Y-62177048D01*
X96776066Y-62186934D01*
X96785952Y-62197841D01*
X96794720Y-62209664D01*
X96802288Y-62222290D01*
X96808582Y-62235597D01*
X96813541Y-62249457D01*
X96817118Y-62263736D01*
X96819278Y-62278297D01*
X96820000Y-62293000D01*
X96820000Y-64043000D01*
X96819278Y-64057703D01*
X96817118Y-64072264D01*
X96813541Y-64086543D01*
X96808582Y-64100403D01*
X96802288Y-64113710D01*
X96794720Y-64126336D01*
X96785952Y-64138159D01*
X96776066Y-64149066D01*
X96765159Y-64158952D01*
X96753336Y-64167720D01*
X96740710Y-64175288D01*
X96727403Y-64181582D01*
X96713543Y-64186541D01*
X96699264Y-64190118D01*
X96684703Y-64192278D01*
X96670000Y-64193000D01*
X96370000Y-64193000D01*
X96355297Y-64192278D01*
X96340736Y-64190118D01*
X96326457Y-64186541D01*
X96312597Y-64181582D01*
X96299290Y-64175288D01*
X96286664Y-64167720D01*
X96274841Y-64158952D01*
X96263934Y-64149066D01*
X96254048Y-64138159D01*
X96245280Y-64126336D01*
X96237712Y-64113710D01*
X96231418Y-64100403D01*
X96226459Y-64086543D01*
X96222882Y-64072264D01*
X96220722Y-64057703D01*
X96220000Y-64043000D01*
X96220000Y-62293000D01*
X96220722Y-62278297D01*
X96222882Y-62263736D01*
X96226459Y-62249457D01*
X96231418Y-62235597D01*
X96237712Y-62222290D01*
X96245280Y-62209664D01*
X96254048Y-62197841D01*
X96263934Y-62186934D01*
X96274841Y-62177048D01*
X96286664Y-62168280D01*
X96299290Y-62160712D01*
X96312597Y-62154418D01*
X96326457Y-62149459D01*
X96340736Y-62145882D01*
X96355297Y-62143722D01*
X96370000Y-62143000D01*
X96670000Y-62143000D01*
X96684703Y-62143722D01*
G37*
G04 #@! TD.AperFunction*
G04 #@! TA.AperFunction,SMDPad,CuDef*
G36*
X97954703Y-62143722D02*
G01*
X97969264Y-62145882D01*
X97983543Y-62149459D01*
X97997403Y-62154418D01*
X98010710Y-62160712D01*
X98023336Y-62168280D01*
X98035159Y-62177048D01*
X98046066Y-62186934D01*
X98055952Y-62197841D01*
X98064720Y-62209664D01*
X98072288Y-62222290D01*
X98078582Y-62235597D01*
X98083541Y-62249457D01*
X98087118Y-62263736D01*
X98089278Y-62278297D01*
X98090000Y-62293000D01*
X98090000Y-64043000D01*
X98089278Y-64057703D01*
X98087118Y-64072264D01*
X98083541Y-64086543D01*
X98078582Y-64100403D01*
X98072288Y-64113710D01*
X98064720Y-64126336D01*
X98055952Y-64138159D01*
X98046066Y-64149066D01*
X98035159Y-64158952D01*
X98023336Y-64167720D01*
X98010710Y-64175288D01*
X97997403Y-64181582D01*
X97983543Y-64186541D01*
X97969264Y-64190118D01*
X97954703Y-64192278D01*
X97940000Y-64193000D01*
X97640000Y-64193000D01*
X97625297Y-64192278D01*
X97610736Y-64190118D01*
X97596457Y-64186541D01*
X97582597Y-64181582D01*
X97569290Y-64175288D01*
X97556664Y-64167720D01*
X97544841Y-64158952D01*
X97533934Y-64149066D01*
X97524048Y-64138159D01*
X97515280Y-64126336D01*
X97507712Y-64113710D01*
X97501418Y-64100403D01*
X97496459Y-64086543D01*
X97492882Y-64072264D01*
X97490722Y-64057703D01*
X97490000Y-64043000D01*
X97490000Y-62293000D01*
X97490722Y-62278297D01*
X97492882Y-62263736D01*
X97496459Y-62249457D01*
X97501418Y-62235597D01*
X97507712Y-62222290D01*
X97515280Y-62209664D01*
X97524048Y-62197841D01*
X97533934Y-62186934D01*
X97544841Y-62177048D01*
X97556664Y-62168280D01*
X97569290Y-62160712D01*
X97582597Y-62154418D01*
X97596457Y-62149459D01*
X97610736Y-62145882D01*
X97625297Y-62143722D01*
X97640000Y-62143000D01*
X97940000Y-62143000D01*
X97954703Y-62143722D01*
G37*
G04 #@! TD.AperFunction*
G04 #@! TA.AperFunction,SMDPad,CuDef*
G36*
X99224703Y-62143722D02*
G01*
X99239264Y-62145882D01*
X99253543Y-62149459D01*
X99267403Y-62154418D01*
X99280710Y-62160712D01*
X99293336Y-62168280D01*
X99305159Y-62177048D01*
X99316066Y-62186934D01*
X99325952Y-62197841D01*
X99334720Y-62209664D01*
X99342288Y-62222290D01*
X99348582Y-62235597D01*
X99353541Y-62249457D01*
X99357118Y-62263736D01*
X99359278Y-62278297D01*
X99360000Y-62293000D01*
X99360000Y-64043000D01*
X99359278Y-64057703D01*
X99357118Y-64072264D01*
X99353541Y-64086543D01*
X99348582Y-64100403D01*
X99342288Y-64113710D01*
X99334720Y-64126336D01*
X99325952Y-64138159D01*
X99316066Y-64149066D01*
X99305159Y-64158952D01*
X99293336Y-64167720D01*
X99280710Y-64175288D01*
X99267403Y-64181582D01*
X99253543Y-64186541D01*
X99239264Y-64190118D01*
X99224703Y-64192278D01*
X99210000Y-64193000D01*
X98910000Y-64193000D01*
X98895297Y-64192278D01*
X98880736Y-64190118D01*
X98866457Y-64186541D01*
X98852597Y-64181582D01*
X98839290Y-64175288D01*
X98826664Y-64167720D01*
X98814841Y-64158952D01*
X98803934Y-64149066D01*
X98794048Y-64138159D01*
X98785280Y-64126336D01*
X98777712Y-64113710D01*
X98771418Y-64100403D01*
X98766459Y-64086543D01*
X98762882Y-64072264D01*
X98760722Y-64057703D01*
X98760000Y-64043000D01*
X98760000Y-62293000D01*
X98760722Y-62278297D01*
X98762882Y-62263736D01*
X98766459Y-62249457D01*
X98771418Y-62235597D01*
X98777712Y-62222290D01*
X98785280Y-62209664D01*
X98794048Y-62197841D01*
X98803934Y-62186934D01*
X98814841Y-62177048D01*
X98826664Y-62168280D01*
X98839290Y-62160712D01*
X98852597Y-62154418D01*
X98866457Y-62149459D01*
X98880736Y-62145882D01*
X98895297Y-62143722D01*
X98910000Y-62143000D01*
X99210000Y-62143000D01*
X99224703Y-62143722D01*
G37*
G04 #@! TD.AperFunction*
G04 #@! TA.AperFunction,SMDPad,CuDef*
G36*
X100494703Y-62143722D02*
G01*
X100509264Y-62145882D01*
X100523543Y-62149459D01*
X100537403Y-62154418D01*
X100550710Y-62160712D01*
X100563336Y-62168280D01*
X100575159Y-62177048D01*
X100586066Y-62186934D01*
X100595952Y-62197841D01*
X100604720Y-62209664D01*
X100612288Y-62222290D01*
X100618582Y-62235597D01*
X100623541Y-62249457D01*
X100627118Y-62263736D01*
X100629278Y-62278297D01*
X100630000Y-62293000D01*
X100630000Y-64043000D01*
X100629278Y-64057703D01*
X100627118Y-64072264D01*
X100623541Y-64086543D01*
X100618582Y-64100403D01*
X100612288Y-64113710D01*
X100604720Y-64126336D01*
X100595952Y-64138159D01*
X100586066Y-64149066D01*
X100575159Y-64158952D01*
X100563336Y-64167720D01*
X100550710Y-64175288D01*
X100537403Y-64181582D01*
X100523543Y-64186541D01*
X100509264Y-64190118D01*
X100494703Y-64192278D01*
X100480000Y-64193000D01*
X100180000Y-64193000D01*
X100165297Y-64192278D01*
X100150736Y-64190118D01*
X100136457Y-64186541D01*
X100122597Y-64181582D01*
X100109290Y-64175288D01*
X100096664Y-64167720D01*
X100084841Y-64158952D01*
X100073934Y-64149066D01*
X100064048Y-64138159D01*
X100055280Y-64126336D01*
X100047712Y-64113710D01*
X100041418Y-64100403D01*
X100036459Y-64086543D01*
X100032882Y-64072264D01*
X100030722Y-64057703D01*
X100030000Y-64043000D01*
X100030000Y-62293000D01*
X100030722Y-62278297D01*
X100032882Y-62263736D01*
X100036459Y-62249457D01*
X100041418Y-62235597D01*
X100047712Y-62222290D01*
X100055280Y-62209664D01*
X100064048Y-62197841D01*
X100073934Y-62186934D01*
X100084841Y-62177048D01*
X100096664Y-62168280D01*
X100109290Y-62160712D01*
X100122597Y-62154418D01*
X100136457Y-62149459D01*
X100150736Y-62145882D01*
X100165297Y-62143722D01*
X100180000Y-62143000D01*
X100480000Y-62143000D01*
X100494703Y-62143722D01*
G37*
G04 #@! TD.AperFunction*
G04 #@! TA.AperFunction,SMDPad,CuDef*
G36*
X101764703Y-62143722D02*
G01*
X101779264Y-62145882D01*
X101793543Y-62149459D01*
X101807403Y-62154418D01*
X101820710Y-62160712D01*
X101833336Y-62168280D01*
X101845159Y-62177048D01*
X101856066Y-62186934D01*
X101865952Y-62197841D01*
X101874720Y-62209664D01*
X101882288Y-62222290D01*
X101888582Y-62235597D01*
X101893541Y-62249457D01*
X101897118Y-62263736D01*
X101899278Y-62278297D01*
X101900000Y-62293000D01*
X101900000Y-64043000D01*
X101899278Y-64057703D01*
X101897118Y-64072264D01*
X101893541Y-64086543D01*
X101888582Y-64100403D01*
X101882288Y-64113710D01*
X101874720Y-64126336D01*
X101865952Y-64138159D01*
X101856066Y-64149066D01*
X101845159Y-64158952D01*
X101833336Y-64167720D01*
X101820710Y-64175288D01*
X101807403Y-64181582D01*
X101793543Y-64186541D01*
X101779264Y-64190118D01*
X101764703Y-64192278D01*
X101750000Y-64193000D01*
X101450000Y-64193000D01*
X101435297Y-64192278D01*
X101420736Y-64190118D01*
X101406457Y-64186541D01*
X101392597Y-64181582D01*
X101379290Y-64175288D01*
X101366664Y-64167720D01*
X101354841Y-64158952D01*
X101343934Y-64149066D01*
X101334048Y-64138159D01*
X101325280Y-64126336D01*
X101317712Y-64113710D01*
X101311418Y-64100403D01*
X101306459Y-64086543D01*
X101302882Y-64072264D01*
X101300722Y-64057703D01*
X101300000Y-64043000D01*
X101300000Y-62293000D01*
X101300722Y-62278297D01*
X101302882Y-62263736D01*
X101306459Y-62249457D01*
X101311418Y-62235597D01*
X101317712Y-62222290D01*
X101325280Y-62209664D01*
X101334048Y-62197841D01*
X101343934Y-62186934D01*
X101354841Y-62177048D01*
X101366664Y-62168280D01*
X101379290Y-62160712D01*
X101392597Y-62154418D01*
X101406457Y-62149459D01*
X101420736Y-62145882D01*
X101435297Y-62143722D01*
X101450000Y-62143000D01*
X101750000Y-62143000D01*
X101764703Y-62143722D01*
G37*
G04 #@! TD.AperFunction*
G04 #@! TA.AperFunction,SMDPad,CuDef*
G36*
X103034703Y-62143722D02*
G01*
X103049264Y-62145882D01*
X103063543Y-62149459D01*
X103077403Y-62154418D01*
X103090710Y-62160712D01*
X103103336Y-62168280D01*
X103115159Y-62177048D01*
X103126066Y-62186934D01*
X103135952Y-62197841D01*
X103144720Y-62209664D01*
X103152288Y-62222290D01*
X103158582Y-62235597D01*
X103163541Y-62249457D01*
X103167118Y-62263736D01*
X103169278Y-62278297D01*
X103170000Y-62293000D01*
X103170000Y-64043000D01*
X103169278Y-64057703D01*
X103167118Y-64072264D01*
X103163541Y-64086543D01*
X103158582Y-64100403D01*
X103152288Y-64113710D01*
X103144720Y-64126336D01*
X103135952Y-64138159D01*
X103126066Y-64149066D01*
X103115159Y-64158952D01*
X103103336Y-64167720D01*
X103090710Y-64175288D01*
X103077403Y-64181582D01*
X103063543Y-64186541D01*
X103049264Y-64190118D01*
X103034703Y-64192278D01*
X103020000Y-64193000D01*
X102720000Y-64193000D01*
X102705297Y-64192278D01*
X102690736Y-64190118D01*
X102676457Y-64186541D01*
X102662597Y-64181582D01*
X102649290Y-64175288D01*
X102636664Y-64167720D01*
X102624841Y-64158952D01*
X102613934Y-64149066D01*
X102604048Y-64138159D01*
X102595280Y-64126336D01*
X102587712Y-64113710D01*
X102581418Y-64100403D01*
X102576459Y-64086543D01*
X102572882Y-64072264D01*
X102570722Y-64057703D01*
X102570000Y-64043000D01*
X102570000Y-62293000D01*
X102570722Y-62278297D01*
X102572882Y-62263736D01*
X102576459Y-62249457D01*
X102581418Y-62235597D01*
X102587712Y-62222290D01*
X102595280Y-62209664D01*
X102604048Y-62197841D01*
X102613934Y-62186934D01*
X102624841Y-62177048D01*
X102636664Y-62168280D01*
X102649290Y-62160712D01*
X102662597Y-62154418D01*
X102676457Y-62149459D01*
X102690736Y-62145882D01*
X102705297Y-62143722D01*
X102720000Y-62143000D01*
X103020000Y-62143000D01*
X103034703Y-62143722D01*
G37*
G04 #@! TD.AperFunction*
G04 #@! TA.AperFunction,SMDPad,CuDef*
G36*
X104304703Y-62143722D02*
G01*
X104319264Y-62145882D01*
X104333543Y-62149459D01*
X104347403Y-62154418D01*
X104360710Y-62160712D01*
X104373336Y-62168280D01*
X104385159Y-62177048D01*
X104396066Y-62186934D01*
X104405952Y-62197841D01*
X104414720Y-62209664D01*
X104422288Y-62222290D01*
X104428582Y-62235597D01*
X104433541Y-62249457D01*
X104437118Y-62263736D01*
X104439278Y-62278297D01*
X104440000Y-62293000D01*
X104440000Y-64043000D01*
X104439278Y-64057703D01*
X104437118Y-64072264D01*
X104433541Y-64086543D01*
X104428582Y-64100403D01*
X104422288Y-64113710D01*
X104414720Y-64126336D01*
X104405952Y-64138159D01*
X104396066Y-64149066D01*
X104385159Y-64158952D01*
X104373336Y-64167720D01*
X104360710Y-64175288D01*
X104347403Y-64181582D01*
X104333543Y-64186541D01*
X104319264Y-64190118D01*
X104304703Y-64192278D01*
X104290000Y-64193000D01*
X103990000Y-64193000D01*
X103975297Y-64192278D01*
X103960736Y-64190118D01*
X103946457Y-64186541D01*
X103932597Y-64181582D01*
X103919290Y-64175288D01*
X103906664Y-64167720D01*
X103894841Y-64158952D01*
X103883934Y-64149066D01*
X103874048Y-64138159D01*
X103865280Y-64126336D01*
X103857712Y-64113710D01*
X103851418Y-64100403D01*
X103846459Y-64086543D01*
X103842882Y-64072264D01*
X103840722Y-64057703D01*
X103840000Y-64043000D01*
X103840000Y-62293000D01*
X103840722Y-62278297D01*
X103842882Y-62263736D01*
X103846459Y-62249457D01*
X103851418Y-62235597D01*
X103857712Y-62222290D01*
X103865280Y-62209664D01*
X103874048Y-62197841D01*
X103883934Y-62186934D01*
X103894841Y-62177048D01*
X103906664Y-62168280D01*
X103919290Y-62160712D01*
X103932597Y-62154418D01*
X103946457Y-62149459D01*
X103960736Y-62145882D01*
X103975297Y-62143722D01*
X103990000Y-62143000D01*
X104290000Y-62143000D01*
X104304703Y-62143722D01*
G37*
G04 #@! TD.AperFunction*
G04 #@! TA.AperFunction,SMDPad,CuDef*
G36*
X105574703Y-62143722D02*
G01*
X105589264Y-62145882D01*
X105603543Y-62149459D01*
X105617403Y-62154418D01*
X105630710Y-62160712D01*
X105643336Y-62168280D01*
X105655159Y-62177048D01*
X105666066Y-62186934D01*
X105675952Y-62197841D01*
X105684720Y-62209664D01*
X105692288Y-62222290D01*
X105698582Y-62235597D01*
X105703541Y-62249457D01*
X105707118Y-62263736D01*
X105709278Y-62278297D01*
X105710000Y-62293000D01*
X105710000Y-64043000D01*
X105709278Y-64057703D01*
X105707118Y-64072264D01*
X105703541Y-64086543D01*
X105698582Y-64100403D01*
X105692288Y-64113710D01*
X105684720Y-64126336D01*
X105675952Y-64138159D01*
X105666066Y-64149066D01*
X105655159Y-64158952D01*
X105643336Y-64167720D01*
X105630710Y-64175288D01*
X105617403Y-64181582D01*
X105603543Y-64186541D01*
X105589264Y-64190118D01*
X105574703Y-64192278D01*
X105560000Y-64193000D01*
X105260000Y-64193000D01*
X105245297Y-64192278D01*
X105230736Y-64190118D01*
X105216457Y-64186541D01*
X105202597Y-64181582D01*
X105189290Y-64175288D01*
X105176664Y-64167720D01*
X105164841Y-64158952D01*
X105153934Y-64149066D01*
X105144048Y-64138159D01*
X105135280Y-64126336D01*
X105127712Y-64113710D01*
X105121418Y-64100403D01*
X105116459Y-64086543D01*
X105112882Y-64072264D01*
X105110722Y-64057703D01*
X105110000Y-64043000D01*
X105110000Y-62293000D01*
X105110722Y-62278297D01*
X105112882Y-62263736D01*
X105116459Y-62249457D01*
X105121418Y-62235597D01*
X105127712Y-62222290D01*
X105135280Y-62209664D01*
X105144048Y-62197841D01*
X105153934Y-62186934D01*
X105164841Y-62177048D01*
X105176664Y-62168280D01*
X105189290Y-62160712D01*
X105202597Y-62154418D01*
X105216457Y-62149459D01*
X105230736Y-62145882D01*
X105245297Y-62143722D01*
X105260000Y-62143000D01*
X105560000Y-62143000D01*
X105574703Y-62143722D01*
G37*
G04 #@! TD.AperFunction*
G04 #@! TA.AperFunction,SMDPad,CuDef*
G36*
X105574703Y-71443722D02*
G01*
X105589264Y-71445882D01*
X105603543Y-71449459D01*
X105617403Y-71454418D01*
X105630710Y-71460712D01*
X105643336Y-71468280D01*
X105655159Y-71477048D01*
X105666066Y-71486934D01*
X105675952Y-71497841D01*
X105684720Y-71509664D01*
X105692288Y-71522290D01*
X105698582Y-71535597D01*
X105703541Y-71549457D01*
X105707118Y-71563736D01*
X105709278Y-71578297D01*
X105710000Y-71593000D01*
X105710000Y-73343000D01*
X105709278Y-73357703D01*
X105707118Y-73372264D01*
X105703541Y-73386543D01*
X105698582Y-73400403D01*
X105692288Y-73413710D01*
X105684720Y-73426336D01*
X105675952Y-73438159D01*
X105666066Y-73449066D01*
X105655159Y-73458952D01*
X105643336Y-73467720D01*
X105630710Y-73475288D01*
X105617403Y-73481582D01*
X105603543Y-73486541D01*
X105589264Y-73490118D01*
X105574703Y-73492278D01*
X105560000Y-73493000D01*
X105260000Y-73493000D01*
X105245297Y-73492278D01*
X105230736Y-73490118D01*
X105216457Y-73486541D01*
X105202597Y-73481582D01*
X105189290Y-73475288D01*
X105176664Y-73467720D01*
X105164841Y-73458952D01*
X105153934Y-73449066D01*
X105144048Y-73438159D01*
X105135280Y-73426336D01*
X105127712Y-73413710D01*
X105121418Y-73400403D01*
X105116459Y-73386543D01*
X105112882Y-73372264D01*
X105110722Y-73357703D01*
X105110000Y-73343000D01*
X105110000Y-71593000D01*
X105110722Y-71578297D01*
X105112882Y-71563736D01*
X105116459Y-71549457D01*
X105121418Y-71535597D01*
X105127712Y-71522290D01*
X105135280Y-71509664D01*
X105144048Y-71497841D01*
X105153934Y-71486934D01*
X105164841Y-71477048D01*
X105176664Y-71468280D01*
X105189290Y-71460712D01*
X105202597Y-71454418D01*
X105216457Y-71449459D01*
X105230736Y-71445882D01*
X105245297Y-71443722D01*
X105260000Y-71443000D01*
X105560000Y-71443000D01*
X105574703Y-71443722D01*
G37*
G04 #@! TD.AperFunction*
G04 #@! TA.AperFunction,SMDPad,CuDef*
G36*
X104304703Y-71443722D02*
G01*
X104319264Y-71445882D01*
X104333543Y-71449459D01*
X104347403Y-71454418D01*
X104360710Y-71460712D01*
X104373336Y-71468280D01*
X104385159Y-71477048D01*
X104396066Y-71486934D01*
X104405952Y-71497841D01*
X104414720Y-71509664D01*
X104422288Y-71522290D01*
X104428582Y-71535597D01*
X104433541Y-71549457D01*
X104437118Y-71563736D01*
X104439278Y-71578297D01*
X104440000Y-71593000D01*
X104440000Y-73343000D01*
X104439278Y-73357703D01*
X104437118Y-73372264D01*
X104433541Y-73386543D01*
X104428582Y-73400403D01*
X104422288Y-73413710D01*
X104414720Y-73426336D01*
X104405952Y-73438159D01*
X104396066Y-73449066D01*
X104385159Y-73458952D01*
X104373336Y-73467720D01*
X104360710Y-73475288D01*
X104347403Y-73481582D01*
X104333543Y-73486541D01*
X104319264Y-73490118D01*
X104304703Y-73492278D01*
X104290000Y-73493000D01*
X103990000Y-73493000D01*
X103975297Y-73492278D01*
X103960736Y-73490118D01*
X103946457Y-73486541D01*
X103932597Y-73481582D01*
X103919290Y-73475288D01*
X103906664Y-73467720D01*
X103894841Y-73458952D01*
X103883934Y-73449066D01*
X103874048Y-73438159D01*
X103865280Y-73426336D01*
X103857712Y-73413710D01*
X103851418Y-73400403D01*
X103846459Y-73386543D01*
X103842882Y-73372264D01*
X103840722Y-73357703D01*
X103840000Y-73343000D01*
X103840000Y-71593000D01*
X103840722Y-71578297D01*
X103842882Y-71563736D01*
X103846459Y-71549457D01*
X103851418Y-71535597D01*
X103857712Y-71522290D01*
X103865280Y-71509664D01*
X103874048Y-71497841D01*
X103883934Y-71486934D01*
X103894841Y-71477048D01*
X103906664Y-71468280D01*
X103919290Y-71460712D01*
X103932597Y-71454418D01*
X103946457Y-71449459D01*
X103960736Y-71445882D01*
X103975297Y-71443722D01*
X103990000Y-71443000D01*
X104290000Y-71443000D01*
X104304703Y-71443722D01*
G37*
G04 #@! TD.AperFunction*
G04 #@! TA.AperFunction,SMDPad,CuDef*
G36*
X103034703Y-71443722D02*
G01*
X103049264Y-71445882D01*
X103063543Y-71449459D01*
X103077403Y-71454418D01*
X103090710Y-71460712D01*
X103103336Y-71468280D01*
X103115159Y-71477048D01*
X103126066Y-71486934D01*
X103135952Y-71497841D01*
X103144720Y-71509664D01*
X103152288Y-71522290D01*
X103158582Y-71535597D01*
X103163541Y-71549457D01*
X103167118Y-71563736D01*
X103169278Y-71578297D01*
X103170000Y-71593000D01*
X103170000Y-73343000D01*
X103169278Y-73357703D01*
X103167118Y-73372264D01*
X103163541Y-73386543D01*
X103158582Y-73400403D01*
X103152288Y-73413710D01*
X103144720Y-73426336D01*
X103135952Y-73438159D01*
X103126066Y-73449066D01*
X103115159Y-73458952D01*
X103103336Y-73467720D01*
X103090710Y-73475288D01*
X103077403Y-73481582D01*
X103063543Y-73486541D01*
X103049264Y-73490118D01*
X103034703Y-73492278D01*
X103020000Y-73493000D01*
X102720000Y-73493000D01*
X102705297Y-73492278D01*
X102690736Y-73490118D01*
X102676457Y-73486541D01*
X102662597Y-73481582D01*
X102649290Y-73475288D01*
X102636664Y-73467720D01*
X102624841Y-73458952D01*
X102613934Y-73449066D01*
X102604048Y-73438159D01*
X102595280Y-73426336D01*
X102587712Y-73413710D01*
X102581418Y-73400403D01*
X102576459Y-73386543D01*
X102572882Y-73372264D01*
X102570722Y-73357703D01*
X102570000Y-73343000D01*
X102570000Y-71593000D01*
X102570722Y-71578297D01*
X102572882Y-71563736D01*
X102576459Y-71549457D01*
X102581418Y-71535597D01*
X102587712Y-71522290D01*
X102595280Y-71509664D01*
X102604048Y-71497841D01*
X102613934Y-71486934D01*
X102624841Y-71477048D01*
X102636664Y-71468280D01*
X102649290Y-71460712D01*
X102662597Y-71454418D01*
X102676457Y-71449459D01*
X102690736Y-71445882D01*
X102705297Y-71443722D01*
X102720000Y-71443000D01*
X103020000Y-71443000D01*
X103034703Y-71443722D01*
G37*
G04 #@! TD.AperFunction*
G04 #@! TA.AperFunction,SMDPad,CuDef*
G36*
X101764703Y-71443722D02*
G01*
X101779264Y-71445882D01*
X101793543Y-71449459D01*
X101807403Y-71454418D01*
X101820710Y-71460712D01*
X101833336Y-71468280D01*
X101845159Y-71477048D01*
X101856066Y-71486934D01*
X101865952Y-71497841D01*
X101874720Y-71509664D01*
X101882288Y-71522290D01*
X101888582Y-71535597D01*
X101893541Y-71549457D01*
X101897118Y-71563736D01*
X101899278Y-71578297D01*
X101900000Y-71593000D01*
X101900000Y-73343000D01*
X101899278Y-73357703D01*
X101897118Y-73372264D01*
X101893541Y-73386543D01*
X101888582Y-73400403D01*
X101882288Y-73413710D01*
X101874720Y-73426336D01*
X101865952Y-73438159D01*
X101856066Y-73449066D01*
X101845159Y-73458952D01*
X101833336Y-73467720D01*
X101820710Y-73475288D01*
X101807403Y-73481582D01*
X101793543Y-73486541D01*
X101779264Y-73490118D01*
X101764703Y-73492278D01*
X101750000Y-73493000D01*
X101450000Y-73493000D01*
X101435297Y-73492278D01*
X101420736Y-73490118D01*
X101406457Y-73486541D01*
X101392597Y-73481582D01*
X101379290Y-73475288D01*
X101366664Y-73467720D01*
X101354841Y-73458952D01*
X101343934Y-73449066D01*
X101334048Y-73438159D01*
X101325280Y-73426336D01*
X101317712Y-73413710D01*
X101311418Y-73400403D01*
X101306459Y-73386543D01*
X101302882Y-73372264D01*
X101300722Y-73357703D01*
X101300000Y-73343000D01*
X101300000Y-71593000D01*
X101300722Y-71578297D01*
X101302882Y-71563736D01*
X101306459Y-71549457D01*
X101311418Y-71535597D01*
X101317712Y-71522290D01*
X101325280Y-71509664D01*
X101334048Y-71497841D01*
X101343934Y-71486934D01*
X101354841Y-71477048D01*
X101366664Y-71468280D01*
X101379290Y-71460712D01*
X101392597Y-71454418D01*
X101406457Y-71449459D01*
X101420736Y-71445882D01*
X101435297Y-71443722D01*
X101450000Y-71443000D01*
X101750000Y-71443000D01*
X101764703Y-71443722D01*
G37*
G04 #@! TD.AperFunction*
G04 #@! TA.AperFunction,SMDPad,CuDef*
G36*
X100494703Y-71443722D02*
G01*
X100509264Y-71445882D01*
X100523543Y-71449459D01*
X100537403Y-71454418D01*
X100550710Y-71460712D01*
X100563336Y-71468280D01*
X100575159Y-71477048D01*
X100586066Y-71486934D01*
X100595952Y-71497841D01*
X100604720Y-71509664D01*
X100612288Y-71522290D01*
X100618582Y-71535597D01*
X100623541Y-71549457D01*
X100627118Y-71563736D01*
X100629278Y-71578297D01*
X100630000Y-71593000D01*
X100630000Y-73343000D01*
X100629278Y-73357703D01*
X100627118Y-73372264D01*
X100623541Y-73386543D01*
X100618582Y-73400403D01*
X100612288Y-73413710D01*
X100604720Y-73426336D01*
X100595952Y-73438159D01*
X100586066Y-73449066D01*
X100575159Y-73458952D01*
X100563336Y-73467720D01*
X100550710Y-73475288D01*
X100537403Y-73481582D01*
X100523543Y-73486541D01*
X100509264Y-73490118D01*
X100494703Y-73492278D01*
X100480000Y-73493000D01*
X100180000Y-73493000D01*
X100165297Y-73492278D01*
X100150736Y-73490118D01*
X100136457Y-73486541D01*
X100122597Y-73481582D01*
X100109290Y-73475288D01*
X100096664Y-73467720D01*
X100084841Y-73458952D01*
X100073934Y-73449066D01*
X100064048Y-73438159D01*
X100055280Y-73426336D01*
X100047712Y-73413710D01*
X100041418Y-73400403D01*
X100036459Y-73386543D01*
X100032882Y-73372264D01*
X100030722Y-73357703D01*
X100030000Y-73343000D01*
X100030000Y-71593000D01*
X100030722Y-71578297D01*
X100032882Y-71563736D01*
X100036459Y-71549457D01*
X100041418Y-71535597D01*
X100047712Y-71522290D01*
X100055280Y-71509664D01*
X100064048Y-71497841D01*
X100073934Y-71486934D01*
X100084841Y-71477048D01*
X100096664Y-71468280D01*
X100109290Y-71460712D01*
X100122597Y-71454418D01*
X100136457Y-71449459D01*
X100150736Y-71445882D01*
X100165297Y-71443722D01*
X100180000Y-71443000D01*
X100480000Y-71443000D01*
X100494703Y-71443722D01*
G37*
G04 #@! TD.AperFunction*
G04 #@! TA.AperFunction,SMDPad,CuDef*
G36*
X99224703Y-71443722D02*
G01*
X99239264Y-71445882D01*
X99253543Y-71449459D01*
X99267403Y-71454418D01*
X99280710Y-71460712D01*
X99293336Y-71468280D01*
X99305159Y-71477048D01*
X99316066Y-71486934D01*
X99325952Y-71497841D01*
X99334720Y-71509664D01*
X99342288Y-71522290D01*
X99348582Y-71535597D01*
X99353541Y-71549457D01*
X99357118Y-71563736D01*
X99359278Y-71578297D01*
X99360000Y-71593000D01*
X99360000Y-73343000D01*
X99359278Y-73357703D01*
X99357118Y-73372264D01*
X99353541Y-73386543D01*
X99348582Y-73400403D01*
X99342288Y-73413710D01*
X99334720Y-73426336D01*
X99325952Y-73438159D01*
X99316066Y-73449066D01*
X99305159Y-73458952D01*
X99293336Y-73467720D01*
X99280710Y-73475288D01*
X99267403Y-73481582D01*
X99253543Y-73486541D01*
X99239264Y-73490118D01*
X99224703Y-73492278D01*
X99210000Y-73493000D01*
X98910000Y-73493000D01*
X98895297Y-73492278D01*
X98880736Y-73490118D01*
X98866457Y-73486541D01*
X98852597Y-73481582D01*
X98839290Y-73475288D01*
X98826664Y-73467720D01*
X98814841Y-73458952D01*
X98803934Y-73449066D01*
X98794048Y-73438159D01*
X98785280Y-73426336D01*
X98777712Y-73413710D01*
X98771418Y-73400403D01*
X98766459Y-73386543D01*
X98762882Y-73372264D01*
X98760722Y-73357703D01*
X98760000Y-73343000D01*
X98760000Y-71593000D01*
X98760722Y-71578297D01*
X98762882Y-71563736D01*
X98766459Y-71549457D01*
X98771418Y-71535597D01*
X98777712Y-71522290D01*
X98785280Y-71509664D01*
X98794048Y-71497841D01*
X98803934Y-71486934D01*
X98814841Y-71477048D01*
X98826664Y-71468280D01*
X98839290Y-71460712D01*
X98852597Y-71454418D01*
X98866457Y-71449459D01*
X98880736Y-71445882D01*
X98895297Y-71443722D01*
X98910000Y-71443000D01*
X99210000Y-71443000D01*
X99224703Y-71443722D01*
G37*
G04 #@! TD.AperFunction*
G04 #@! TA.AperFunction,SMDPad,CuDef*
G36*
X97954703Y-71443722D02*
G01*
X97969264Y-71445882D01*
X97983543Y-71449459D01*
X97997403Y-71454418D01*
X98010710Y-71460712D01*
X98023336Y-71468280D01*
X98035159Y-71477048D01*
X98046066Y-71486934D01*
X98055952Y-71497841D01*
X98064720Y-71509664D01*
X98072288Y-71522290D01*
X98078582Y-71535597D01*
X98083541Y-71549457D01*
X98087118Y-71563736D01*
X98089278Y-71578297D01*
X98090000Y-71593000D01*
X98090000Y-73343000D01*
X98089278Y-73357703D01*
X98087118Y-73372264D01*
X98083541Y-73386543D01*
X98078582Y-73400403D01*
X98072288Y-73413710D01*
X98064720Y-73426336D01*
X98055952Y-73438159D01*
X98046066Y-73449066D01*
X98035159Y-73458952D01*
X98023336Y-73467720D01*
X98010710Y-73475288D01*
X97997403Y-73481582D01*
X97983543Y-73486541D01*
X97969264Y-73490118D01*
X97954703Y-73492278D01*
X97940000Y-73493000D01*
X97640000Y-73493000D01*
X97625297Y-73492278D01*
X97610736Y-73490118D01*
X97596457Y-73486541D01*
X97582597Y-73481582D01*
X97569290Y-73475288D01*
X97556664Y-73467720D01*
X97544841Y-73458952D01*
X97533934Y-73449066D01*
X97524048Y-73438159D01*
X97515280Y-73426336D01*
X97507712Y-73413710D01*
X97501418Y-73400403D01*
X97496459Y-73386543D01*
X97492882Y-73372264D01*
X97490722Y-73357703D01*
X97490000Y-73343000D01*
X97490000Y-71593000D01*
X97490722Y-71578297D01*
X97492882Y-71563736D01*
X97496459Y-71549457D01*
X97501418Y-71535597D01*
X97507712Y-71522290D01*
X97515280Y-71509664D01*
X97524048Y-71497841D01*
X97533934Y-71486934D01*
X97544841Y-71477048D01*
X97556664Y-71468280D01*
X97569290Y-71460712D01*
X97582597Y-71454418D01*
X97596457Y-71449459D01*
X97610736Y-71445882D01*
X97625297Y-71443722D01*
X97640000Y-71443000D01*
X97940000Y-71443000D01*
X97954703Y-71443722D01*
G37*
G04 #@! TD.AperFunction*
G04 #@! TA.AperFunction,SMDPad,CuDef*
G36*
X96684703Y-71443722D02*
G01*
X96699264Y-71445882D01*
X96713543Y-71449459D01*
X96727403Y-71454418D01*
X96740710Y-71460712D01*
X96753336Y-71468280D01*
X96765159Y-71477048D01*
X96776066Y-71486934D01*
X96785952Y-71497841D01*
X96794720Y-71509664D01*
X96802288Y-71522290D01*
X96808582Y-71535597D01*
X96813541Y-71549457D01*
X96817118Y-71563736D01*
X96819278Y-71578297D01*
X96820000Y-71593000D01*
X96820000Y-73343000D01*
X96819278Y-73357703D01*
X96817118Y-73372264D01*
X96813541Y-73386543D01*
X96808582Y-73400403D01*
X96802288Y-73413710D01*
X96794720Y-73426336D01*
X96785952Y-73438159D01*
X96776066Y-73449066D01*
X96765159Y-73458952D01*
X96753336Y-73467720D01*
X96740710Y-73475288D01*
X96727403Y-73481582D01*
X96713543Y-73486541D01*
X96699264Y-73490118D01*
X96684703Y-73492278D01*
X96670000Y-73493000D01*
X96370000Y-73493000D01*
X96355297Y-73492278D01*
X96340736Y-73490118D01*
X96326457Y-73486541D01*
X96312597Y-73481582D01*
X96299290Y-73475288D01*
X96286664Y-73467720D01*
X96274841Y-73458952D01*
X96263934Y-73449066D01*
X96254048Y-73438159D01*
X96245280Y-73426336D01*
X96237712Y-73413710D01*
X96231418Y-73400403D01*
X96226459Y-73386543D01*
X96222882Y-73372264D01*
X96220722Y-73357703D01*
X96220000Y-73343000D01*
X96220000Y-71593000D01*
X96220722Y-71578297D01*
X96222882Y-71563736D01*
X96226459Y-71549457D01*
X96231418Y-71535597D01*
X96237712Y-71522290D01*
X96245280Y-71509664D01*
X96254048Y-71497841D01*
X96263934Y-71486934D01*
X96274841Y-71477048D01*
X96286664Y-71468280D01*
X96299290Y-71460712D01*
X96312597Y-71454418D01*
X96326457Y-71449459D01*
X96340736Y-71445882D01*
X96355297Y-71443722D01*
X96370000Y-71443000D01*
X96670000Y-71443000D01*
X96684703Y-71443722D01*
G37*
G04 #@! TD.AperFunction*
G04 #@! TA.AperFunction,SMDPad,CuDef*
G36*
X95414703Y-71443722D02*
G01*
X95429264Y-71445882D01*
X95443543Y-71449459D01*
X95457403Y-71454418D01*
X95470710Y-71460712D01*
X95483336Y-71468280D01*
X95495159Y-71477048D01*
X95506066Y-71486934D01*
X95515952Y-71497841D01*
X95524720Y-71509664D01*
X95532288Y-71522290D01*
X95538582Y-71535597D01*
X95543541Y-71549457D01*
X95547118Y-71563736D01*
X95549278Y-71578297D01*
X95550000Y-71593000D01*
X95550000Y-73343000D01*
X95549278Y-73357703D01*
X95547118Y-73372264D01*
X95543541Y-73386543D01*
X95538582Y-73400403D01*
X95532288Y-73413710D01*
X95524720Y-73426336D01*
X95515952Y-73438159D01*
X95506066Y-73449066D01*
X95495159Y-73458952D01*
X95483336Y-73467720D01*
X95470710Y-73475288D01*
X95457403Y-73481582D01*
X95443543Y-73486541D01*
X95429264Y-73490118D01*
X95414703Y-73492278D01*
X95400000Y-73493000D01*
X95100000Y-73493000D01*
X95085297Y-73492278D01*
X95070736Y-73490118D01*
X95056457Y-73486541D01*
X95042597Y-73481582D01*
X95029290Y-73475288D01*
X95016664Y-73467720D01*
X95004841Y-73458952D01*
X94993934Y-73449066D01*
X94984048Y-73438159D01*
X94975280Y-73426336D01*
X94967712Y-73413710D01*
X94961418Y-73400403D01*
X94956459Y-73386543D01*
X94952882Y-73372264D01*
X94950722Y-73357703D01*
X94950000Y-73343000D01*
X94950000Y-71593000D01*
X94950722Y-71578297D01*
X94952882Y-71563736D01*
X94956459Y-71549457D01*
X94961418Y-71535597D01*
X94967712Y-71522290D01*
X94975280Y-71509664D01*
X94984048Y-71497841D01*
X94993934Y-71486934D01*
X95004841Y-71477048D01*
X95016664Y-71468280D01*
X95029290Y-71460712D01*
X95042597Y-71454418D01*
X95056457Y-71449459D01*
X95070736Y-71445882D01*
X95085297Y-71443722D01*
X95100000Y-71443000D01*
X95400000Y-71443000D01*
X95414703Y-71443722D01*
G37*
G04 #@! TD.AperFunction*
G04 #@! TA.AperFunction,SMDPad,CuDef*
G36*
X94144703Y-71443722D02*
G01*
X94159264Y-71445882D01*
X94173543Y-71449459D01*
X94187403Y-71454418D01*
X94200710Y-71460712D01*
X94213336Y-71468280D01*
X94225159Y-71477048D01*
X94236066Y-71486934D01*
X94245952Y-71497841D01*
X94254720Y-71509664D01*
X94262288Y-71522290D01*
X94268582Y-71535597D01*
X94273541Y-71549457D01*
X94277118Y-71563736D01*
X94279278Y-71578297D01*
X94280000Y-71593000D01*
X94280000Y-73343000D01*
X94279278Y-73357703D01*
X94277118Y-73372264D01*
X94273541Y-73386543D01*
X94268582Y-73400403D01*
X94262288Y-73413710D01*
X94254720Y-73426336D01*
X94245952Y-73438159D01*
X94236066Y-73449066D01*
X94225159Y-73458952D01*
X94213336Y-73467720D01*
X94200710Y-73475288D01*
X94187403Y-73481582D01*
X94173543Y-73486541D01*
X94159264Y-73490118D01*
X94144703Y-73492278D01*
X94130000Y-73493000D01*
X93830000Y-73493000D01*
X93815297Y-73492278D01*
X93800736Y-73490118D01*
X93786457Y-73486541D01*
X93772597Y-73481582D01*
X93759290Y-73475288D01*
X93746664Y-73467720D01*
X93734841Y-73458952D01*
X93723934Y-73449066D01*
X93714048Y-73438159D01*
X93705280Y-73426336D01*
X93697712Y-73413710D01*
X93691418Y-73400403D01*
X93686459Y-73386543D01*
X93682882Y-73372264D01*
X93680722Y-73357703D01*
X93680000Y-73343000D01*
X93680000Y-71593000D01*
X93680722Y-71578297D01*
X93682882Y-71563736D01*
X93686459Y-71549457D01*
X93691418Y-71535597D01*
X93697712Y-71522290D01*
X93705280Y-71509664D01*
X93714048Y-71497841D01*
X93723934Y-71486934D01*
X93734841Y-71477048D01*
X93746664Y-71468280D01*
X93759290Y-71460712D01*
X93772597Y-71454418D01*
X93786457Y-71449459D01*
X93800736Y-71445882D01*
X93815297Y-71443722D01*
X93830000Y-71443000D01*
X94130000Y-71443000D01*
X94144703Y-71443722D01*
G37*
G04 #@! TD.AperFunction*
G04 #@! TA.AperFunction,SMDPad,CuDef*
G36*
X92874703Y-71443722D02*
G01*
X92889264Y-71445882D01*
X92903543Y-71449459D01*
X92917403Y-71454418D01*
X92930710Y-71460712D01*
X92943336Y-71468280D01*
X92955159Y-71477048D01*
X92966066Y-71486934D01*
X92975952Y-71497841D01*
X92984720Y-71509664D01*
X92992288Y-71522290D01*
X92998582Y-71535597D01*
X93003541Y-71549457D01*
X93007118Y-71563736D01*
X93009278Y-71578297D01*
X93010000Y-71593000D01*
X93010000Y-73343000D01*
X93009278Y-73357703D01*
X93007118Y-73372264D01*
X93003541Y-73386543D01*
X92998582Y-73400403D01*
X92992288Y-73413710D01*
X92984720Y-73426336D01*
X92975952Y-73438159D01*
X92966066Y-73449066D01*
X92955159Y-73458952D01*
X92943336Y-73467720D01*
X92930710Y-73475288D01*
X92917403Y-73481582D01*
X92903543Y-73486541D01*
X92889264Y-73490118D01*
X92874703Y-73492278D01*
X92860000Y-73493000D01*
X92560000Y-73493000D01*
X92545297Y-73492278D01*
X92530736Y-73490118D01*
X92516457Y-73486541D01*
X92502597Y-73481582D01*
X92489290Y-73475288D01*
X92476664Y-73467720D01*
X92464841Y-73458952D01*
X92453934Y-73449066D01*
X92444048Y-73438159D01*
X92435280Y-73426336D01*
X92427712Y-73413710D01*
X92421418Y-73400403D01*
X92416459Y-73386543D01*
X92412882Y-73372264D01*
X92410722Y-73357703D01*
X92410000Y-73343000D01*
X92410000Y-71593000D01*
X92410722Y-71578297D01*
X92412882Y-71563736D01*
X92416459Y-71549457D01*
X92421418Y-71535597D01*
X92427712Y-71522290D01*
X92435280Y-71509664D01*
X92444048Y-71497841D01*
X92453934Y-71486934D01*
X92464841Y-71477048D01*
X92476664Y-71468280D01*
X92489290Y-71460712D01*
X92502597Y-71454418D01*
X92516457Y-71449459D01*
X92530736Y-71445882D01*
X92545297Y-71443722D01*
X92560000Y-71443000D01*
X92860000Y-71443000D01*
X92874703Y-71443722D01*
G37*
G04 #@! TD.AperFunction*
G04 #@! TA.AperFunction,SMDPad,CuDef*
G36*
X91604703Y-71443722D02*
G01*
X91619264Y-71445882D01*
X91633543Y-71449459D01*
X91647403Y-71454418D01*
X91660710Y-71460712D01*
X91673336Y-71468280D01*
X91685159Y-71477048D01*
X91696066Y-71486934D01*
X91705952Y-71497841D01*
X91714720Y-71509664D01*
X91722288Y-71522290D01*
X91728582Y-71535597D01*
X91733541Y-71549457D01*
X91737118Y-71563736D01*
X91739278Y-71578297D01*
X91740000Y-71593000D01*
X91740000Y-73343000D01*
X91739278Y-73357703D01*
X91737118Y-73372264D01*
X91733541Y-73386543D01*
X91728582Y-73400403D01*
X91722288Y-73413710D01*
X91714720Y-73426336D01*
X91705952Y-73438159D01*
X91696066Y-73449066D01*
X91685159Y-73458952D01*
X91673336Y-73467720D01*
X91660710Y-73475288D01*
X91647403Y-73481582D01*
X91633543Y-73486541D01*
X91619264Y-73490118D01*
X91604703Y-73492278D01*
X91590000Y-73493000D01*
X91290000Y-73493000D01*
X91275297Y-73492278D01*
X91260736Y-73490118D01*
X91246457Y-73486541D01*
X91232597Y-73481582D01*
X91219290Y-73475288D01*
X91206664Y-73467720D01*
X91194841Y-73458952D01*
X91183934Y-73449066D01*
X91174048Y-73438159D01*
X91165280Y-73426336D01*
X91157712Y-73413710D01*
X91151418Y-73400403D01*
X91146459Y-73386543D01*
X91142882Y-73372264D01*
X91140722Y-73357703D01*
X91140000Y-73343000D01*
X91140000Y-71593000D01*
X91140722Y-71578297D01*
X91142882Y-71563736D01*
X91146459Y-71549457D01*
X91151418Y-71535597D01*
X91157712Y-71522290D01*
X91165280Y-71509664D01*
X91174048Y-71497841D01*
X91183934Y-71486934D01*
X91194841Y-71477048D01*
X91206664Y-71468280D01*
X91219290Y-71460712D01*
X91232597Y-71454418D01*
X91246457Y-71449459D01*
X91260736Y-71445882D01*
X91275297Y-71443722D01*
X91290000Y-71443000D01*
X91590000Y-71443000D01*
X91604703Y-71443722D01*
G37*
G04 #@! TD.AperFunction*
D10*
X109220000Y-72390000D03*
D11*
X109220000Y-69850000D03*
D13*
X124800000Y-68945000D03*
X124800000Y-68445000D03*
X124800000Y-67945000D03*
X124800000Y-67445000D03*
X124800000Y-66945000D03*
X129200000Y-66945000D03*
X129200000Y-67445000D03*
X129200000Y-67945000D03*
X129200000Y-68445000D03*
X129200000Y-68945000D03*
D14*
X114130000Y-70170000D03*
X114130000Y-72070000D03*
X111930000Y-72070000D03*
X111930000Y-71120000D03*
X111930000Y-70170000D03*
X114470000Y-66040000D03*
X114470000Y-66990000D03*
X114470000Y-65090000D03*
X116670000Y-65090000D03*
X116670000Y-66040000D03*
X116670000Y-66990000D03*
G04 #@! TA.AperFunction,SMDPad,CuDef*
D12*
G36*
X122878504Y-66436204D02*
G01*
X122902773Y-66439804D01*
X122926571Y-66445765D01*
X122949671Y-66454030D01*
X122971849Y-66464520D01*
X122992893Y-66477133D01*
X123012598Y-66491747D01*
X123030777Y-66508223D01*
X123047253Y-66526402D01*
X123061867Y-66546107D01*
X123074480Y-66567151D01*
X123084970Y-66589329D01*
X123093235Y-66612429D01*
X123099196Y-66636227D01*
X123102796Y-66660496D01*
X123104000Y-66685000D01*
X123104000Y-67935000D01*
X123102796Y-67959504D01*
X123099196Y-67983773D01*
X123093235Y-68007571D01*
X123084970Y-68030671D01*
X123074480Y-68052849D01*
X123061867Y-68073893D01*
X123047253Y-68093598D01*
X123030777Y-68111777D01*
X123012598Y-68128253D01*
X122992893Y-68142867D01*
X122971849Y-68155480D01*
X122949671Y-68165970D01*
X122926571Y-68174235D01*
X122902773Y-68180196D01*
X122878504Y-68183796D01*
X122854000Y-68185000D01*
X121929000Y-68185000D01*
X121904496Y-68183796D01*
X121880227Y-68180196D01*
X121856429Y-68174235D01*
X121833329Y-68165970D01*
X121811151Y-68155480D01*
X121790107Y-68142867D01*
X121770402Y-68128253D01*
X121752223Y-68111777D01*
X121735747Y-68093598D01*
X121721133Y-68073893D01*
X121708520Y-68052849D01*
X121698030Y-68030671D01*
X121689765Y-68007571D01*
X121683804Y-67983773D01*
X121680204Y-67959504D01*
X121679000Y-67935000D01*
X121679000Y-66685000D01*
X121680204Y-66660496D01*
X121683804Y-66636227D01*
X121689765Y-66612429D01*
X121698030Y-66589329D01*
X121708520Y-66567151D01*
X121721133Y-66546107D01*
X121735747Y-66526402D01*
X121752223Y-66508223D01*
X121770402Y-66491747D01*
X121790107Y-66477133D01*
X121811151Y-66464520D01*
X121833329Y-66454030D01*
X121856429Y-66445765D01*
X121880227Y-66439804D01*
X121904496Y-66436204D01*
X121929000Y-66435000D01*
X122854000Y-66435000D01*
X122878504Y-66436204D01*
G37*
G04 #@! TD.AperFunction*
G04 #@! TA.AperFunction,SMDPad,CuDef*
G36*
X119903504Y-66436204D02*
G01*
X119927773Y-66439804D01*
X119951571Y-66445765D01*
X119974671Y-66454030D01*
X119996849Y-66464520D01*
X120017893Y-66477133D01*
X120037598Y-66491747D01*
X120055777Y-66508223D01*
X120072253Y-66526402D01*
X120086867Y-66546107D01*
X120099480Y-66567151D01*
X120109970Y-66589329D01*
X120118235Y-66612429D01*
X120124196Y-66636227D01*
X120127796Y-66660496D01*
X120129000Y-66685000D01*
X120129000Y-67935000D01*
X120127796Y-67959504D01*
X120124196Y-67983773D01*
X120118235Y-68007571D01*
X120109970Y-68030671D01*
X120099480Y-68052849D01*
X120086867Y-68073893D01*
X120072253Y-68093598D01*
X120055777Y-68111777D01*
X120037598Y-68128253D01*
X120017893Y-68142867D01*
X119996849Y-68155480D01*
X119974671Y-68165970D01*
X119951571Y-68174235D01*
X119927773Y-68180196D01*
X119903504Y-68183796D01*
X119879000Y-68185000D01*
X118954000Y-68185000D01*
X118929496Y-68183796D01*
X118905227Y-68180196D01*
X118881429Y-68174235D01*
X118858329Y-68165970D01*
X118836151Y-68155480D01*
X118815107Y-68142867D01*
X118795402Y-68128253D01*
X118777223Y-68111777D01*
X118760747Y-68093598D01*
X118746133Y-68073893D01*
X118733520Y-68052849D01*
X118723030Y-68030671D01*
X118714765Y-68007571D01*
X118708804Y-67983773D01*
X118705204Y-67959504D01*
X118704000Y-67935000D01*
X118704000Y-66685000D01*
X118705204Y-66660496D01*
X118708804Y-66636227D01*
X118714765Y-66612429D01*
X118723030Y-66589329D01*
X118733520Y-66567151D01*
X118746133Y-66546107D01*
X118760747Y-66526402D01*
X118777223Y-66508223D01*
X118795402Y-66491747D01*
X118815107Y-66477133D01*
X118836151Y-66464520D01*
X118858329Y-66454030D01*
X118881429Y-66445765D01*
X118905227Y-66439804D01*
X118929496Y-66436204D01*
X118954000Y-66435000D01*
X119879000Y-66435000D01*
X119903504Y-66436204D01*
G37*
G04 #@! TD.AperFunction*
G04 #@! TA.AperFunction,SMDPad,CuDef*
G36*
X123894504Y-95646204D02*
G01*
X123918773Y-95649804D01*
X123942571Y-95655765D01*
X123965671Y-95664030D01*
X123987849Y-95674520D01*
X124008893Y-95687133D01*
X124028598Y-95701747D01*
X124046777Y-95718223D01*
X124063253Y-95736402D01*
X124077867Y-95756107D01*
X124090480Y-95777151D01*
X124100970Y-95799329D01*
X124109235Y-95822429D01*
X124115196Y-95846227D01*
X124118796Y-95870496D01*
X124120000Y-95895000D01*
X124120000Y-97145000D01*
X124118796Y-97169504D01*
X124115196Y-97193773D01*
X124109235Y-97217571D01*
X124100970Y-97240671D01*
X124090480Y-97262849D01*
X124077867Y-97283893D01*
X124063253Y-97303598D01*
X124046777Y-97321777D01*
X124028598Y-97338253D01*
X124008893Y-97352867D01*
X123987849Y-97365480D01*
X123965671Y-97375970D01*
X123942571Y-97384235D01*
X123918773Y-97390196D01*
X123894504Y-97393796D01*
X123870000Y-97395000D01*
X122945000Y-97395000D01*
X122920496Y-97393796D01*
X122896227Y-97390196D01*
X122872429Y-97384235D01*
X122849329Y-97375970D01*
X122827151Y-97365480D01*
X122806107Y-97352867D01*
X122786402Y-97338253D01*
X122768223Y-97321777D01*
X122751747Y-97303598D01*
X122737133Y-97283893D01*
X122724520Y-97262849D01*
X122714030Y-97240671D01*
X122705765Y-97217571D01*
X122699804Y-97193773D01*
X122696204Y-97169504D01*
X122695000Y-97145000D01*
X122695000Y-95895000D01*
X122696204Y-95870496D01*
X122699804Y-95846227D01*
X122705765Y-95822429D01*
X122714030Y-95799329D01*
X122724520Y-95777151D01*
X122737133Y-95756107D01*
X122751747Y-95736402D01*
X122768223Y-95718223D01*
X122786402Y-95701747D01*
X122806107Y-95687133D01*
X122827151Y-95674520D01*
X122849329Y-95664030D01*
X122872429Y-95655765D01*
X122896227Y-95649804D01*
X122920496Y-95646204D01*
X122945000Y-95645000D01*
X123870000Y-95645000D01*
X123894504Y-95646204D01*
G37*
G04 #@! TD.AperFunction*
G04 #@! TA.AperFunction,SMDPad,CuDef*
G36*
X120919504Y-95646204D02*
G01*
X120943773Y-95649804D01*
X120967571Y-95655765D01*
X120990671Y-95664030D01*
X121012849Y-95674520D01*
X121033893Y-95687133D01*
X121053598Y-95701747D01*
X121071777Y-95718223D01*
X121088253Y-95736402D01*
X121102867Y-95756107D01*
X121115480Y-95777151D01*
X121125970Y-95799329D01*
X121134235Y-95822429D01*
X121140196Y-95846227D01*
X121143796Y-95870496D01*
X121145000Y-95895000D01*
X121145000Y-97145000D01*
X121143796Y-97169504D01*
X121140196Y-97193773D01*
X121134235Y-97217571D01*
X121125970Y-97240671D01*
X121115480Y-97262849D01*
X121102867Y-97283893D01*
X121088253Y-97303598D01*
X121071777Y-97321777D01*
X121053598Y-97338253D01*
X121033893Y-97352867D01*
X121012849Y-97365480D01*
X120990671Y-97375970D01*
X120967571Y-97384235D01*
X120943773Y-97390196D01*
X120919504Y-97393796D01*
X120895000Y-97395000D01*
X119970000Y-97395000D01*
X119945496Y-97393796D01*
X119921227Y-97390196D01*
X119897429Y-97384235D01*
X119874329Y-97375970D01*
X119852151Y-97365480D01*
X119831107Y-97352867D01*
X119811402Y-97338253D01*
X119793223Y-97321777D01*
X119776747Y-97303598D01*
X119762133Y-97283893D01*
X119749520Y-97262849D01*
X119739030Y-97240671D01*
X119730765Y-97217571D01*
X119724804Y-97193773D01*
X119721204Y-97169504D01*
X119720000Y-97145000D01*
X119720000Y-95895000D01*
X119721204Y-95870496D01*
X119724804Y-95846227D01*
X119730765Y-95822429D01*
X119739030Y-95799329D01*
X119749520Y-95777151D01*
X119762133Y-95756107D01*
X119776747Y-95736402D01*
X119793223Y-95718223D01*
X119811402Y-95701747D01*
X119831107Y-95687133D01*
X119852151Y-95674520D01*
X119874329Y-95664030D01*
X119897429Y-95655765D01*
X119921227Y-95649804D01*
X119945496Y-95646204D01*
X119970000Y-95645000D01*
X120895000Y-95645000D01*
X120919504Y-95646204D01*
G37*
G04 #@! TD.AperFunction*
G04 #@! TA.AperFunction,SMDPad,CuDef*
G36*
X92979504Y-59578204D02*
G01*
X93003773Y-59581804D01*
X93027571Y-59587765D01*
X93050671Y-59596030D01*
X93072849Y-59606520D01*
X93093893Y-59619133D01*
X93113598Y-59633747D01*
X93131777Y-59650223D01*
X93148253Y-59668402D01*
X93162867Y-59688107D01*
X93175480Y-59709151D01*
X93185970Y-59731329D01*
X93194235Y-59754429D01*
X93200196Y-59778227D01*
X93203796Y-59802496D01*
X93205000Y-59827000D01*
X93205000Y-61077000D01*
X93203796Y-61101504D01*
X93200196Y-61125773D01*
X93194235Y-61149571D01*
X93185970Y-61172671D01*
X93175480Y-61194849D01*
X93162867Y-61215893D01*
X93148253Y-61235598D01*
X93131777Y-61253777D01*
X93113598Y-61270253D01*
X93093893Y-61284867D01*
X93072849Y-61297480D01*
X93050671Y-61307970D01*
X93027571Y-61316235D01*
X93003773Y-61322196D01*
X92979504Y-61325796D01*
X92955000Y-61327000D01*
X92030000Y-61327000D01*
X92005496Y-61325796D01*
X91981227Y-61322196D01*
X91957429Y-61316235D01*
X91934329Y-61307970D01*
X91912151Y-61297480D01*
X91891107Y-61284867D01*
X91871402Y-61270253D01*
X91853223Y-61253777D01*
X91836747Y-61235598D01*
X91822133Y-61215893D01*
X91809520Y-61194849D01*
X91799030Y-61172671D01*
X91790765Y-61149571D01*
X91784804Y-61125773D01*
X91781204Y-61101504D01*
X91780000Y-61077000D01*
X91780000Y-59827000D01*
X91781204Y-59802496D01*
X91784804Y-59778227D01*
X91790765Y-59754429D01*
X91799030Y-59731329D01*
X91809520Y-59709151D01*
X91822133Y-59688107D01*
X91836747Y-59668402D01*
X91853223Y-59650223D01*
X91871402Y-59633747D01*
X91891107Y-59619133D01*
X91912151Y-59606520D01*
X91934329Y-59596030D01*
X91957429Y-59587765D01*
X91981227Y-59581804D01*
X92005496Y-59578204D01*
X92030000Y-59577000D01*
X92955000Y-59577000D01*
X92979504Y-59578204D01*
G37*
G04 #@! TD.AperFunction*
G04 #@! TA.AperFunction,SMDPad,CuDef*
G36*
X95954504Y-59578204D02*
G01*
X95978773Y-59581804D01*
X96002571Y-59587765D01*
X96025671Y-59596030D01*
X96047849Y-59606520D01*
X96068893Y-59619133D01*
X96088598Y-59633747D01*
X96106777Y-59650223D01*
X96123253Y-59668402D01*
X96137867Y-59688107D01*
X96150480Y-59709151D01*
X96160970Y-59731329D01*
X96169235Y-59754429D01*
X96175196Y-59778227D01*
X96178796Y-59802496D01*
X96180000Y-59827000D01*
X96180000Y-61077000D01*
X96178796Y-61101504D01*
X96175196Y-61125773D01*
X96169235Y-61149571D01*
X96160970Y-61172671D01*
X96150480Y-61194849D01*
X96137867Y-61215893D01*
X96123253Y-61235598D01*
X96106777Y-61253777D01*
X96088598Y-61270253D01*
X96068893Y-61284867D01*
X96047849Y-61297480D01*
X96025671Y-61307970D01*
X96002571Y-61316235D01*
X95978773Y-61322196D01*
X95954504Y-61325796D01*
X95930000Y-61327000D01*
X95005000Y-61327000D01*
X94980496Y-61325796D01*
X94956227Y-61322196D01*
X94932429Y-61316235D01*
X94909329Y-61307970D01*
X94887151Y-61297480D01*
X94866107Y-61284867D01*
X94846402Y-61270253D01*
X94828223Y-61253777D01*
X94811747Y-61235598D01*
X94797133Y-61215893D01*
X94784520Y-61194849D01*
X94774030Y-61172671D01*
X94765765Y-61149571D01*
X94759804Y-61125773D01*
X94756204Y-61101504D01*
X94755000Y-61077000D01*
X94755000Y-59827000D01*
X94756204Y-59802496D01*
X94759804Y-59778227D01*
X94765765Y-59754429D01*
X94774030Y-59731329D01*
X94784520Y-59709151D01*
X94797133Y-59688107D01*
X94811747Y-59668402D01*
X94828223Y-59650223D01*
X94846402Y-59633747D01*
X94866107Y-59619133D01*
X94887151Y-59606520D01*
X94909329Y-59596030D01*
X94932429Y-59587765D01*
X94956227Y-59581804D01*
X94980496Y-59578204D01*
X95005000Y-59577000D01*
X95930000Y-59577000D01*
X95954504Y-59578204D01*
G37*
G04 #@! TD.AperFunction*
G04 #@! TA.AperFunction,SMDPad,CuDef*
G36*
X117871504Y-71516204D02*
G01*
X117895773Y-71519804D01*
X117919571Y-71525765D01*
X117942671Y-71534030D01*
X117964849Y-71544520D01*
X117985893Y-71557133D01*
X118005598Y-71571747D01*
X118023777Y-71588223D01*
X118040253Y-71606402D01*
X118054867Y-71626107D01*
X118067480Y-71647151D01*
X118077970Y-71669329D01*
X118086235Y-71692429D01*
X118092196Y-71716227D01*
X118095796Y-71740496D01*
X118097000Y-71765000D01*
X118097000Y-73015000D01*
X118095796Y-73039504D01*
X118092196Y-73063773D01*
X118086235Y-73087571D01*
X118077970Y-73110671D01*
X118067480Y-73132849D01*
X118054867Y-73153893D01*
X118040253Y-73173598D01*
X118023777Y-73191777D01*
X118005598Y-73208253D01*
X117985893Y-73222867D01*
X117964849Y-73235480D01*
X117942671Y-73245970D01*
X117919571Y-73254235D01*
X117895773Y-73260196D01*
X117871504Y-73263796D01*
X117847000Y-73265000D01*
X116922000Y-73265000D01*
X116897496Y-73263796D01*
X116873227Y-73260196D01*
X116849429Y-73254235D01*
X116826329Y-73245970D01*
X116804151Y-73235480D01*
X116783107Y-73222867D01*
X116763402Y-73208253D01*
X116745223Y-73191777D01*
X116728747Y-73173598D01*
X116714133Y-73153893D01*
X116701520Y-73132849D01*
X116691030Y-73110671D01*
X116682765Y-73087571D01*
X116676804Y-73063773D01*
X116673204Y-73039504D01*
X116672000Y-73015000D01*
X116672000Y-71765000D01*
X116673204Y-71740496D01*
X116676804Y-71716227D01*
X116682765Y-71692429D01*
X116691030Y-71669329D01*
X116701520Y-71647151D01*
X116714133Y-71626107D01*
X116728747Y-71606402D01*
X116745223Y-71588223D01*
X116763402Y-71571747D01*
X116783107Y-71557133D01*
X116804151Y-71544520D01*
X116826329Y-71534030D01*
X116849429Y-71525765D01*
X116873227Y-71519804D01*
X116897496Y-71516204D01*
X116922000Y-71515000D01*
X117847000Y-71515000D01*
X117871504Y-71516204D01*
G37*
G04 #@! TD.AperFunction*
G04 #@! TA.AperFunction,SMDPad,CuDef*
G36*
X120846504Y-71516204D02*
G01*
X120870773Y-71519804D01*
X120894571Y-71525765D01*
X120917671Y-71534030D01*
X120939849Y-71544520D01*
X120960893Y-71557133D01*
X120980598Y-71571747D01*
X120998777Y-71588223D01*
X121015253Y-71606402D01*
X121029867Y-71626107D01*
X121042480Y-71647151D01*
X121052970Y-71669329D01*
X121061235Y-71692429D01*
X121067196Y-71716227D01*
X121070796Y-71740496D01*
X121072000Y-71765000D01*
X121072000Y-73015000D01*
X121070796Y-73039504D01*
X121067196Y-73063773D01*
X121061235Y-73087571D01*
X121052970Y-73110671D01*
X121042480Y-73132849D01*
X121029867Y-73153893D01*
X121015253Y-73173598D01*
X120998777Y-73191777D01*
X120980598Y-73208253D01*
X120960893Y-73222867D01*
X120939849Y-73235480D01*
X120917671Y-73245970D01*
X120894571Y-73254235D01*
X120870773Y-73260196D01*
X120846504Y-73263796D01*
X120822000Y-73265000D01*
X119897000Y-73265000D01*
X119872496Y-73263796D01*
X119848227Y-73260196D01*
X119824429Y-73254235D01*
X119801329Y-73245970D01*
X119779151Y-73235480D01*
X119758107Y-73222867D01*
X119738402Y-73208253D01*
X119720223Y-73191777D01*
X119703747Y-73173598D01*
X119689133Y-73153893D01*
X119676520Y-73132849D01*
X119666030Y-73110671D01*
X119657765Y-73087571D01*
X119651804Y-73063773D01*
X119648204Y-73039504D01*
X119647000Y-73015000D01*
X119647000Y-71765000D01*
X119648204Y-71740496D01*
X119651804Y-71716227D01*
X119657765Y-71692429D01*
X119666030Y-71669329D01*
X119676520Y-71647151D01*
X119689133Y-71626107D01*
X119703747Y-71606402D01*
X119720223Y-71588223D01*
X119738402Y-71571747D01*
X119758107Y-71557133D01*
X119779151Y-71544520D01*
X119801329Y-71534030D01*
X119824429Y-71525765D01*
X119848227Y-71519804D01*
X119872496Y-71516204D01*
X119897000Y-71515000D01*
X120822000Y-71515000D01*
X120846504Y-71516204D01*
G37*
G04 #@! TD.AperFunction*
D10*
X128270000Y-72390000D03*
X125730000Y-72390000D03*
D11*
X123190000Y-72390000D03*
D10*
X128270000Y-64135000D03*
X125730000Y-64135000D03*
D11*
X123190000Y-64135000D03*
D10*
X93980000Y-101600000D03*
X93980000Y-99060000D03*
X93980000Y-96520000D03*
X93980000Y-93980000D03*
X93980000Y-91440000D03*
X93980000Y-88900000D03*
X93980000Y-86360000D03*
X93980000Y-83820000D03*
X93980000Y-81280000D03*
X93980000Y-78740000D03*
D11*
X93980000Y-76200000D03*
D10*
X91440000Y-101600000D03*
X91440000Y-99060000D03*
X91440000Y-96520000D03*
X91440000Y-93980000D03*
X91440000Y-91440000D03*
X91440000Y-88900000D03*
X91440000Y-86360000D03*
X91440000Y-83820000D03*
X91440000Y-81280000D03*
X91440000Y-78740000D03*
D11*
X91440000Y-76200000D03*
D15*
X114660000Y-59849500D03*
X108860000Y-59849500D03*
D16*
X108260000Y-59849500D03*
X115260000Y-59849500D03*
D17*
X112760000Y-59849500D03*
D18*
X109260000Y-62549500D03*
D19*
X111760000Y-62549500D03*
X111110000Y-62549500D03*
X110460000Y-62549500D03*
X113060000Y-62549500D03*
X112410000Y-62549500D03*
D18*
X114260000Y-62549500D03*
D17*
X110760000Y-59849500D03*
D20*
X128523988Y-65786000D03*
X106680000Y-72517000D03*
X113030000Y-72009000D03*
X94488000Y-74422000D03*
X102870000Y-103251008D03*
X93980000Y-65786000D03*
X117983000Y-66421000D03*
X99568000Y-69088000D03*
X114046000Y-68834000D03*
X99060000Y-69850000D03*
X113284000Y-68834000D03*
X98551994Y-69088000D03*
X112522000Y-68834000D03*
X98044000Y-69850000D03*
X111760000Y-68834000D03*
X120904000Y-67310000D03*
X95250000Y-69850000D03*
D21*
X129216000Y-66929000D02*
X129200000Y-66945000D01*
X130556000Y-66929000D02*
X129216000Y-66929000D01*
X130556000Y-66929000D02*
X130556000Y-68834000D01*
X130445000Y-68945000D02*
X129200000Y-68945000D01*
X130556000Y-68834000D02*
X130445000Y-68945000D01*
X129200000Y-66462012D02*
X128523988Y-65786000D01*
X129200000Y-66945000D02*
X129200000Y-66462012D01*
X92710000Y-69342000D02*
X92710000Y-63168000D01*
X94234000Y-70866000D02*
X92710000Y-69342000D01*
X105156000Y-70866000D02*
X94234000Y-70866000D01*
X105410000Y-72468000D02*
X105410000Y-71120000D01*
X105410000Y-71120000D02*
X105156000Y-70866000D01*
X92710000Y-60669500D02*
X92492500Y-60452000D01*
X92710000Y-63168000D02*
X92710000Y-60669500D01*
X110460000Y-62422500D02*
X109260000Y-62422500D01*
X108860000Y-59722500D02*
X108260000Y-59722500D01*
X114660000Y-59722500D02*
X115260000Y-59722500D01*
X122086000Y-64135000D02*
X123190000Y-64135000D01*
X119359000Y-64135000D02*
X122086000Y-64135000D01*
X117454000Y-66040000D02*
X119359000Y-64135000D01*
X116670000Y-66040000D02*
X117454000Y-66040000D01*
X114260000Y-60122500D02*
X114660000Y-59722500D01*
X114260000Y-62422500D02*
X114260000Y-60122500D01*
X121072000Y-72390000D02*
X123190000Y-72390000D01*
X120359500Y-72390000D02*
X121072000Y-72390000D01*
X110460000Y-60149500D02*
X110760000Y-59849500D01*
X110460000Y-62549500D02*
X110460000Y-60149500D01*
X110760000Y-59849500D02*
X108860000Y-59849500D01*
X108860000Y-59849500D02*
X108260000Y-59849500D01*
X110760000Y-59849500D02*
X112760000Y-59849500D01*
X112760000Y-59849500D02*
X114660000Y-59849500D01*
X115886000Y-66040000D02*
X116670000Y-66040000D01*
X115671610Y-65825610D02*
X115886000Y-66040000D01*
X114260000Y-62549500D02*
X115671610Y-63961110D01*
X115671610Y-63961110D02*
X115671610Y-65825610D01*
X106680000Y-76200000D02*
X107950000Y-77470000D01*
X124460000Y-77470000D02*
X125730000Y-76200000D01*
X107950000Y-77470000D02*
X124460000Y-77470000D01*
X104902000Y-74422000D02*
X106680000Y-76200000D01*
X93980000Y-78740000D02*
X98298000Y-74422000D01*
X98298000Y-74422000D02*
X104902000Y-74422000D01*
X105424500Y-72453500D02*
X105410000Y-72468000D01*
X108458000Y-71120000D02*
X111930000Y-71120000D01*
X106680000Y-72517000D02*
X108077000Y-71120000D01*
X108077000Y-71120000D02*
X108458000Y-71120000D01*
X105459000Y-72517000D02*
X105410000Y-72468000D01*
X106680000Y-72517000D02*
X105459000Y-72517000D01*
X91440000Y-76200000D02*
X91440000Y-72468000D01*
X91440000Y-72468000D02*
X91440000Y-63168000D01*
X119383901Y-67342599D02*
X119416500Y-67310000D01*
X118872000Y-70866000D02*
X118176000Y-70170000D01*
X118176000Y-70170000D02*
X114130000Y-70170000D01*
X118872000Y-69469000D02*
X119396000Y-68945000D01*
X119396000Y-68945000D02*
X124800000Y-68945000D01*
X118872000Y-69469000D02*
X118872000Y-70104000D01*
X118872000Y-70866000D02*
X118872000Y-70104000D01*
X118872000Y-70104000D02*
X118872000Y-69850000D01*
X119416500Y-68924500D02*
X119416500Y-67310000D01*
X119396000Y-68945000D02*
X119416500Y-68924500D01*
X95084000Y-76200000D02*
X97370000Y-73914000D01*
X118872000Y-71381802D02*
X118872000Y-70866000D01*
X93980000Y-76200000D02*
X95084000Y-76200000D01*
X117856000Y-73914000D02*
X118872000Y-72898000D01*
X97370000Y-73914000D02*
X117856000Y-73914000D01*
X118872000Y-72898000D02*
X118872000Y-71381802D01*
D22*
X114130000Y-72070000D02*
X113091000Y-72070000D01*
X113091000Y-72070000D02*
X113030000Y-72009000D01*
X115824000Y-72390000D02*
X117384500Y-72390000D01*
X114130000Y-72070000D02*
X115504000Y-72070000D01*
X115504000Y-72070000D02*
X115824000Y-72390000D01*
X93980000Y-73914000D02*
X94488000Y-74422000D01*
X93980000Y-72468000D02*
X93980000Y-73914000D01*
X92710000Y-74168000D02*
X92710000Y-72468000D01*
X92710000Y-82550000D02*
X93980000Y-83820000D01*
X92710000Y-74168000D02*
X92710000Y-82550000D01*
X105410000Y-88392000D02*
X105410000Y-87630000D01*
X105410000Y-87630000D02*
X104140000Y-86360000D01*
X104989999Y-85510001D02*
X104140000Y-86360000D01*
X105410000Y-85090000D02*
X104989999Y-85510001D01*
X105410000Y-92710000D02*
X104140000Y-93980000D01*
X105410000Y-89154000D02*
X105410000Y-92710000D01*
X105410000Y-89154000D02*
X105410000Y-90170000D01*
X105410000Y-88392000D02*
X105410000Y-89154000D01*
X124460000Y-87630000D02*
X123190000Y-86360000D01*
X124460000Y-88646000D02*
X124460000Y-87630000D01*
X124460000Y-90170000D02*
X124460000Y-88646000D01*
X124460000Y-85090000D02*
X123190000Y-86360000D01*
X124460000Y-82550000D02*
X124460000Y-85090000D01*
X124460000Y-92710000D02*
X123190000Y-93980000D01*
X124460000Y-90170000D02*
X124460000Y-92710000D01*
X105410000Y-100330000D02*
X104140000Y-101600000D01*
X104140000Y-93980000D02*
X105410000Y-95250000D01*
X124460000Y-82550000D02*
X124460000Y-81280000D01*
X105410000Y-81280000D02*
X105410000Y-85090000D01*
X105410000Y-95250000D02*
X105410000Y-96520000D01*
X105410000Y-96520000D02*
X105410000Y-100330000D01*
X102870000Y-95250000D02*
X104140000Y-93980000D01*
X93980000Y-96520000D02*
X95250000Y-95250000D01*
X95250000Y-95250000D02*
X102870000Y-95250000D01*
X124460000Y-80010000D02*
X123190000Y-78740000D01*
X124460000Y-80264000D02*
X124460000Y-80010000D01*
X124460000Y-81280000D02*
X124460000Y-80264000D01*
X123190000Y-101600000D02*
X121920000Y-100330000D01*
X121920000Y-95250000D02*
X123190000Y-93980000D01*
X121920000Y-100330000D02*
X121920000Y-95250000D01*
X105410000Y-80518000D02*
X105410000Y-81280000D01*
X104140000Y-78740000D02*
X105410000Y-80010000D01*
X105410000Y-80010000D02*
X105410000Y-80518000D01*
X121920000Y-80010000D02*
X123190000Y-78740000D01*
X105410000Y-80010000D02*
X121920000Y-80010000D01*
X95250000Y-97790000D02*
X94829999Y-98210001D01*
X104140000Y-99060000D02*
X102870000Y-97790000D01*
X94829999Y-98210001D02*
X93980000Y-99060000D01*
X102870000Y-97790000D02*
X95250000Y-97790000D01*
X104140000Y-99060000D02*
X102870000Y-100330000D01*
X102870000Y-100330000D02*
X102870000Y-103251008D01*
X93980000Y-65786000D02*
X93980000Y-63168000D01*
X94488000Y-60452000D02*
X95467500Y-60452000D01*
X93980000Y-63168000D02*
X93980000Y-60960000D01*
X93980000Y-60960000D02*
X94488000Y-60452000D01*
X100330000Y-100330000D02*
X101600000Y-99060000D01*
X93980000Y-101600000D02*
X95250000Y-100330000D01*
X95250000Y-100330000D02*
X100330000Y-100330000D01*
X120650000Y-96737500D02*
X120432500Y-96520000D01*
X120650000Y-99060000D02*
X120650000Y-96737500D01*
D21*
X125984000Y-74930000D02*
X126238000Y-74930000D01*
X127000000Y-74930000D02*
X128270000Y-76200000D01*
X125984000Y-74930000D02*
X127000000Y-74930000D01*
X126746000Y-97536000D02*
X128270000Y-99060000D01*
X123407500Y-96520000D02*
X125730000Y-96520000D01*
X125730000Y-96520000D02*
X126746000Y-97536000D01*
X110490000Y-74930000D02*
X109220000Y-76200000D01*
X125984000Y-74930000D02*
X110490000Y-74930000D01*
D22*
X126847600Y-66573400D02*
X126476000Y-66945000D01*
X126476000Y-66945000D02*
X124800000Y-66945000D01*
X125730000Y-64135000D02*
X126847600Y-65252600D01*
X126847600Y-65252600D02*
X126847600Y-66573400D01*
X117352400Y-65090000D02*
X120085400Y-62357000D01*
X116670000Y-65090000D02*
X117352400Y-65090000D01*
X123952000Y-62357000D02*
X125730000Y-64135000D01*
X120085400Y-62357000D02*
X123952000Y-62357000D01*
X128270000Y-64135000D02*
X127381000Y-65024000D01*
X128151000Y-67445000D02*
X129200000Y-67445000D01*
X127381000Y-66675000D02*
X128151000Y-67445000D01*
X127381000Y-65024000D02*
X127381000Y-66675000D01*
X116670000Y-66990000D02*
X117414000Y-66990000D01*
X117414000Y-66990000D02*
X117983000Y-66421000D01*
X100330000Y-63168000D02*
X100330000Y-68326000D01*
X100330000Y-68326000D02*
X99568000Y-69088000D01*
X114046000Y-68834000D02*
X112014000Y-66802000D01*
X112014000Y-66802000D02*
X107188000Y-66802000D01*
X105410000Y-65024000D02*
X105410000Y-63168000D01*
X107188000Y-66802000D02*
X105410000Y-65024000D01*
X99060000Y-63168000D02*
X99060000Y-69850000D01*
X104140000Y-65024000D02*
X104140000Y-63168000D01*
X111760000Y-67310000D02*
X106426000Y-67310000D01*
X106426000Y-67310000D02*
X104140000Y-65024000D01*
X113284000Y-68834000D02*
X111760000Y-67310000D01*
X127152400Y-68681600D02*
X127389000Y-68445000D01*
X127389000Y-68445000D02*
X129200000Y-68445000D01*
X128270000Y-72390000D02*
X127152400Y-71272400D01*
X127152400Y-71272400D02*
X127152400Y-68681600D01*
X127152400Y-100990400D02*
X127762000Y-101600000D01*
X108057764Y-103016236D02*
X108440041Y-103398513D01*
X108440041Y-103398513D02*
X123461959Y-103398513D01*
X109220000Y-101600000D02*
X108057764Y-102762236D01*
X124307600Y-102552872D02*
X124307600Y-100774872D01*
X108057764Y-102762236D02*
X108057764Y-103016236D01*
X127762000Y-101600000D02*
X128270000Y-101600000D01*
X124904872Y-100177600D02*
X126682128Y-100177600D01*
X124307600Y-100774872D02*
X124904872Y-100177600D01*
X127152400Y-100647872D02*
X127152400Y-100990400D01*
X123461959Y-103398513D02*
X124307600Y-102552872D01*
X126682128Y-100177600D02*
X127152400Y-100647872D01*
X126847600Y-69062600D02*
X125730000Y-67945000D01*
X125730000Y-67945000D02*
X124800000Y-67945000D01*
X125730000Y-72390000D02*
X126847600Y-71272400D01*
X126847600Y-71272400D02*
X126847600Y-69062600D01*
X108313785Y-103703313D02*
X123588215Y-103703313D01*
X124612400Y-102679128D02*
X124612400Y-100901128D01*
X125031128Y-100482400D02*
X126555872Y-100482400D01*
X106680000Y-101600000D02*
X107696000Y-102616000D01*
X107696000Y-103085528D02*
X108313785Y-103703313D01*
X123588215Y-103703313D02*
X124612400Y-102679128D01*
X107696000Y-102616000D02*
X107696000Y-103085528D01*
X124612400Y-100901128D02*
X125031128Y-100482400D01*
X126555872Y-100482400D02*
X126847600Y-100774128D01*
X126847600Y-100774128D02*
X126847600Y-101117400D01*
X126365000Y-101600000D02*
X125730000Y-101600000D01*
X126847600Y-101117400D02*
X126365000Y-101600000D01*
X97790000Y-63168000D02*
X97790000Y-68326006D01*
X97790000Y-68326006D02*
X98297995Y-68834001D01*
X98297995Y-68834001D02*
X98551994Y-69088000D01*
X105664000Y-67818000D02*
X111506000Y-67818000D01*
X102870000Y-63168000D02*
X102870000Y-65024000D01*
X102870000Y-65024000D02*
X105664000Y-67818000D01*
X112268001Y-68580001D02*
X112522000Y-68834000D01*
X111506000Y-67818000D02*
X112268001Y-68580001D01*
X96520000Y-68326000D02*
X98044000Y-69850000D01*
X96520000Y-63168000D02*
X96520000Y-68326000D01*
X111252000Y-68326000D02*
X111760000Y-68834000D01*
X104902000Y-68326000D02*
X111252000Y-68326000D01*
X101600000Y-63168000D02*
X101600000Y-65024000D01*
X101600000Y-65024000D02*
X104902000Y-68326000D01*
X120904000Y-67310000D02*
X122391500Y-67310000D01*
X123947600Y-68445000D02*
X124800000Y-68445000D01*
X122391500Y-67310000D02*
X122812600Y-67310000D01*
X122812600Y-67310000D02*
X123947600Y-68445000D01*
X95250000Y-63168000D02*
X95250000Y-69850000D01*
X111760000Y-63249900D02*
X111760000Y-62422500D01*
X111760000Y-64962400D02*
X111760000Y-63249900D01*
X113787600Y-66990000D02*
X111760000Y-64962400D01*
X114470000Y-66990000D02*
X113787600Y-66990000D01*
X112410000Y-63249900D02*
X112410000Y-62422500D01*
X112410000Y-63712400D02*
X112410000Y-63249900D01*
X113787600Y-65090000D02*
X112410000Y-63712400D01*
X114470000Y-65090000D02*
X113787600Y-65090000D01*
D21*
X109540000Y-70170000D02*
X109220000Y-69850000D01*
X111930000Y-70170000D02*
X109540000Y-70170000D01*
D22*
X115062000Y-66040000D02*
X114470000Y-66040000D01*
X115316000Y-65786000D02*
X115062000Y-66040000D01*
X113060000Y-63466500D02*
X113538000Y-63944500D01*
X113060000Y-62422500D02*
X113060000Y-63466500D01*
X113538000Y-63944500D02*
X114808000Y-63944500D01*
X114808000Y-63944500D02*
X115316000Y-64452500D01*
X115316000Y-64452500D02*
X115316000Y-65786000D01*
M02*
