M48
; DRILL file {KiCad 5.1.5} date Пн 18 мая 2020 04:02:56
; FORMAT={-:-/ absolute / metric / decimal}
; #@! TF.CreationDate,2020-05-18T04:02:56+03:00
; #@! TF.GenerationSoftware,Kicad,Pcbnew,5.1.5
FMAT,2
METRIC
T1C0.254
T2C0.600
T3C0.850
T4C1.000
%
G90
G05
T1
X93.98Y-65.786
X94.488Y-74.422
X95.25Y-69.85
X98.044Y-69.85
X98.552Y-69.088
X99.06Y-69.85
X99.568Y-69.088
X102.87Y-103.251
X106.68Y-72.517
X111.76Y-68.834
X112.522Y-68.834
X113.03Y-72.009
X113.284Y-68.834
X114.046Y-68.834
X117.983Y-66.421
X120.904Y-67.31
X128.524Y-65.786
T3
X109.26Y-62.549
X114.26Y-62.549
T4
X120.65Y-91.44
X120.65Y-93.98
X123.19Y-91.44
X123.19Y-93.98
X125.73Y-91.44
X125.73Y-93.98
X128.27Y-91.44
X128.27Y-93.98
X130.81Y-91.44
X130.81Y-93.98
X101.6Y-99.06
X101.6Y-101.6
X104.14Y-99.06
X104.14Y-101.6
X106.68Y-99.06
X106.68Y-101.6
X109.22Y-99.06
X109.22Y-101.6
X111.76Y-99.06
X111.76Y-101.6
X101.6Y-76.2
X101.6Y-78.74
X104.14Y-76.2
X104.14Y-78.74
X106.68Y-76.2
X106.68Y-78.74
X109.22Y-76.2
X109.22Y-78.74
X111.76Y-76.2
X111.76Y-78.74
X109.22Y-69.85
X109.22Y-72.39
X101.6Y-83.82
X101.6Y-86.36
X104.14Y-83.82
X104.14Y-86.36
X106.68Y-83.82
X106.68Y-86.36
X109.22Y-83.82
X109.22Y-86.36
X111.76Y-83.82
X111.76Y-86.36
X91.44Y-76.2
X91.44Y-78.74
X91.44Y-81.28
X91.44Y-83.82
X91.44Y-86.36
X91.44Y-88.9
X91.44Y-91.44
X91.44Y-93.98
X91.44Y-96.52
X91.44Y-99.06
X91.44Y-101.6
X120.65Y-76.2
X120.65Y-78.74
X123.19Y-76.2
X123.19Y-78.74
X125.73Y-76.2
X125.73Y-78.74
X128.27Y-76.2
X128.27Y-78.74
X130.81Y-76.2
X130.81Y-78.74
X120.65Y-99.06
X120.65Y-101.6
X123.19Y-99.06
X123.19Y-101.6
X125.73Y-99.06
X125.73Y-101.6
X128.27Y-99.06
X128.27Y-101.6
X130.81Y-99.06
X130.81Y-101.6
X123.19Y-64.135
X125.73Y-64.135
X128.27Y-64.135
X123.19Y-72.39
X125.73Y-72.39
X128.27Y-72.39
X120.65Y-83.82
X120.65Y-86.36
X123.19Y-83.82
X123.19Y-86.36
X125.73Y-83.82
X125.73Y-86.36
X128.27Y-83.82
X128.27Y-86.36
X130.81Y-83.82
X130.81Y-86.36
X101.6Y-91.44
X101.6Y-93.98
X104.14Y-91.44
X104.14Y-93.98
X106.68Y-91.44
X106.68Y-93.98
X109.22Y-91.44
X109.22Y-93.98
X111.76Y-91.44
X111.76Y-93.98
X93.98Y-76.2
X93.98Y-78.74
X93.98Y-81.28
X93.98Y-83.82
X93.98Y-86.36
X93.98Y-88.9
X93.98Y-91.44
X93.98Y-93.98
X93.98Y-96.52
X93.98Y-99.06
X93.98Y-101.6
T2
X108.26Y-60.2G85X108.26Y-59.499
G05
X115.26Y-59.499G85X115.26Y-60.2
G05
T0
M30
