G04 #@! TF.GenerationSoftware,KiCad,Pcbnew,5.1.5*
G04 #@! TF.CreationDate,2020-02-24T19:09:01+03:00*
G04 #@! TF.ProjectId,mod-lqfp64,6d6f642d-6c71-4667-9036-342e6b696361,rev?*
G04 #@! TF.SameCoordinates,PX1e84800PY280de80*
G04 #@! TF.FileFunction,Legend,Top*
G04 #@! TF.FilePolarity,Positive*
%FSLAX46Y46*%
G04 Gerber Fmt 4.6, Leading zero omitted, Abs format (unit mm)*
G04 Created by KiCad (PCBNEW 5.1.5) date 2020-02-24 19:09:01*
%MOMM*%
%LPD*%
G04 APERTURE LIST*
%ADD10C,0.120000*%
%ADD11C,0.150000*%
G04 APERTURE END LIST*
D10*
X24714000Y-11577000D02*
X24714000Y-6277000D01*
X21014000Y-11577000D02*
X24714000Y-11577000D01*
X18830000Y-11563000D02*
X20170000Y-11563000D01*
X18830000Y-12513000D02*
X18830000Y-11563000D01*
X17880000Y-12513000D02*
X18830000Y-12513000D01*
X8610000Y-12513000D02*
X8610000Y-11563000D01*
X9560000Y-12513000D02*
X8610000Y-12513000D01*
X18830000Y-2293000D02*
X18830000Y-3243000D01*
X17880000Y-2293000D02*
X18830000Y-2293000D01*
X8610000Y-2293000D02*
X8610000Y-3243000D01*
X9560000Y-2293000D02*
X8610000Y-2293000D01*
X23125252Y-4407000D02*
X22602748Y-4407000D01*
X23125252Y-5827000D02*
X22602748Y-5827000D01*
X22602748Y-13447000D02*
X23125252Y-13447000D01*
X22602748Y-12027000D02*
X23125252Y-12027000D01*
D11*
X22840190Y-9403190D02*
X23316380Y-9403190D01*
X22316380Y-9736523D02*
X22840190Y-9403190D01*
X22316380Y-9069857D01*
X23316380Y-8212714D02*
X23316380Y-8784142D01*
X23316380Y-8498428D02*
X22316380Y-8498428D01*
X22459238Y-8593666D01*
X22554476Y-8688904D01*
X22602095Y-8784142D01*
X7266880Y-13308404D02*
X8076404Y-13308404D01*
X8171642Y-13260785D01*
X8219261Y-13213166D01*
X8266880Y-13117928D01*
X8266880Y-12927452D01*
X8219261Y-12832214D01*
X8171642Y-12784595D01*
X8076404Y-12736976D01*
X7266880Y-12736976D01*
X8266880Y-11736976D02*
X8266880Y-12308404D01*
X8266880Y-12022690D02*
X7266880Y-12022690D01*
X7409738Y-12117928D01*
X7504976Y-12213166D01*
X7552595Y-12308404D01*
X4282380Y-7799833D02*
X4996666Y-7799833D01*
X5139523Y-7847452D01*
X5234761Y-7942690D01*
X5282380Y-8085547D01*
X5282380Y-8180785D01*
X5282380Y-6799833D02*
X5282380Y-7371261D01*
X5282380Y-7085547D02*
X4282380Y-7085547D01*
X4425238Y-7180785D01*
X4520476Y-7276023D01*
X4568095Y-7371261D01*
X23221142Y-3442166D02*
X23268761Y-3489785D01*
X23316380Y-3632642D01*
X23316380Y-3727880D01*
X23268761Y-3870738D01*
X23173523Y-3965976D01*
X23078285Y-4013595D01*
X22887809Y-4061214D01*
X22744952Y-4061214D01*
X22554476Y-4013595D01*
X22459238Y-3965976D01*
X22364000Y-3870738D01*
X22316380Y-3727880D01*
X22316380Y-3632642D01*
X22364000Y-3489785D01*
X22411619Y-3442166D01*
X22411619Y-3061214D02*
X22364000Y-3013595D01*
X22316380Y-2918357D01*
X22316380Y-2680261D01*
X22364000Y-2585023D01*
X22411619Y-2537404D01*
X22506857Y-2489785D01*
X22602095Y-2489785D01*
X22744952Y-2537404D01*
X23316380Y-3108833D01*
X23316380Y-2489785D01*
X20744642Y-12967166D02*
X20792261Y-13014785D01*
X20839880Y-13157642D01*
X20839880Y-13252880D01*
X20792261Y-13395738D01*
X20697023Y-13490976D01*
X20601785Y-13538595D01*
X20411309Y-13586214D01*
X20268452Y-13586214D01*
X20077976Y-13538595D01*
X19982738Y-13490976D01*
X19887500Y-13395738D01*
X19839880Y-13252880D01*
X19839880Y-13157642D01*
X19887500Y-13014785D01*
X19935119Y-12967166D01*
X20839880Y-12014785D02*
X20839880Y-12586214D01*
X20839880Y-12300500D02*
X19839880Y-12300500D01*
X19982738Y-12395738D01*
X20077976Y-12490976D01*
X20125595Y-12586214D01*
M02*
