G04 #@! TF.GenerationSoftware,KiCad,Pcbnew,5.1.5*
G04 #@! TF.CreationDate,2020-02-24T19:09:01+03:00*
G04 #@! TF.ProjectId,mod-lqfp64,6d6f642d-6c71-4667-9036-342e6b696361,rev?*
G04 #@! TF.SameCoordinates,PX1e84800PY280de80*
G04 #@! TF.FileFunction,Legend,Bot*
G04 #@! TF.FilePolarity,Positive*
%FSLAX46Y46*%
G04 Gerber Fmt 4.6, Leading zero omitted, Abs format (unit mm)*
G04 Created by KiCad (PCBNEW 5.1.5) date 2020-02-24 19:09:01*
%MOMM*%
%LPD*%
G04 APERTURE LIST*
%ADD10C,0.120000*%
%ADD11C,0.150000*%
G04 APERTURE END LIST*
D10*
X17168120Y-2593988D02*
X17168120Y-3116492D01*
X15748120Y-2593988D02*
X15748120Y-3116492D01*
X16185000Y-12299752D02*
X16185000Y-11777248D01*
X17605000Y-12299752D02*
X17605000Y-11777248D01*
X3993000Y-9061252D02*
X3993000Y-8538748D01*
X5413000Y-9061252D02*
X5413000Y-8538748D01*
X18807252Y-6716000D02*
X18284748Y-6716000D01*
X18807252Y-5296000D02*
X18284748Y-5296000D01*
X9604000Y-3585748D02*
X9604000Y-4108252D01*
X8184000Y-3585748D02*
X8184000Y-4108252D01*
X9013748Y-9931500D02*
X9536252Y-9931500D01*
X9013748Y-11351500D02*
X9536252Y-11351500D01*
X12442748Y-2502000D02*
X12965252Y-2502000D01*
X12442748Y-3922000D02*
X12965252Y-3922000D01*
D11*
X18458642Y-2688573D02*
X18506261Y-2640954D01*
X18553880Y-2498097D01*
X18553880Y-2402859D01*
X18506261Y-2260001D01*
X18411023Y-2164763D01*
X18315785Y-2117144D01*
X18125309Y-2069525D01*
X17982452Y-2069525D01*
X17791976Y-2117144D01*
X17696738Y-2164763D01*
X17601500Y-2260001D01*
X17553880Y-2402859D01*
X17553880Y-2498097D01*
X17601500Y-2640954D01*
X17649119Y-2688573D01*
X18553880Y-3164763D02*
X18553880Y-3355240D01*
X18506261Y-3450478D01*
X18458642Y-3498097D01*
X18315785Y-3593335D01*
X18125309Y-3640954D01*
X17744357Y-3640954D01*
X17649119Y-3593335D01*
X17601500Y-3545716D01*
X17553880Y-3450478D01*
X17553880Y-3260001D01*
X17601500Y-3164763D01*
X17649119Y-3117144D01*
X17744357Y-3069525D01*
X17982452Y-3069525D01*
X18077690Y-3117144D01*
X18125309Y-3164763D01*
X18172928Y-3260001D01*
X18172928Y-3450478D01*
X18125309Y-3545716D01*
X18077690Y-3593335D01*
X17982452Y-3640954D01*
X18902142Y-11871833D02*
X18949761Y-11824214D01*
X18997380Y-11681357D01*
X18997380Y-11586119D01*
X18949761Y-11443261D01*
X18854523Y-11348023D01*
X18759285Y-11300404D01*
X18568809Y-11252785D01*
X18425952Y-11252785D01*
X18235476Y-11300404D01*
X18140238Y-11348023D01*
X18045000Y-11443261D01*
X17997380Y-11586119D01*
X17997380Y-11681357D01*
X18045000Y-11824214D01*
X18092619Y-11871833D01*
X18425952Y-12443261D02*
X18378333Y-12348023D01*
X18330714Y-12300404D01*
X18235476Y-12252785D01*
X18187857Y-12252785D01*
X18092619Y-12300404D01*
X18045000Y-12348023D01*
X17997380Y-12443261D01*
X17997380Y-12633738D01*
X18045000Y-12728976D01*
X18092619Y-12776595D01*
X18187857Y-12824214D01*
X18235476Y-12824214D01*
X18330714Y-12776595D01*
X18378333Y-12728976D01*
X18425952Y-12633738D01*
X18425952Y-12443261D01*
X18473571Y-12348023D01*
X18521190Y-12300404D01*
X18616428Y-12252785D01*
X18806904Y-12252785D01*
X18902142Y-12300404D01*
X18949761Y-12348023D01*
X18997380Y-12443261D01*
X18997380Y-12633738D01*
X18949761Y-12728976D01*
X18902142Y-12776595D01*
X18806904Y-12824214D01*
X18616428Y-12824214D01*
X18521190Y-12776595D01*
X18473571Y-12728976D01*
X18425952Y-12633738D01*
X6710142Y-8633333D02*
X6757761Y-8585714D01*
X6805380Y-8442857D01*
X6805380Y-8347619D01*
X6757761Y-8204761D01*
X6662523Y-8109523D01*
X6567285Y-8061904D01*
X6376809Y-8014285D01*
X6233952Y-8014285D01*
X6043476Y-8061904D01*
X5948238Y-8109523D01*
X5853000Y-8204761D01*
X5805380Y-8347619D01*
X5805380Y-8442857D01*
X5853000Y-8585714D01*
X5900619Y-8633333D01*
X5805380Y-8966666D02*
X5805380Y-9633333D01*
X6805380Y-9204761D01*
X18903142Y-7617333D02*
X18950761Y-7569714D01*
X18998380Y-7426857D01*
X18998380Y-7331619D01*
X18950761Y-7188761D01*
X18855523Y-7093523D01*
X18760285Y-7045904D01*
X18569809Y-6998285D01*
X18426952Y-6998285D01*
X18236476Y-7045904D01*
X18141238Y-7093523D01*
X18046000Y-7188761D01*
X17998380Y-7331619D01*
X17998380Y-7426857D01*
X18046000Y-7569714D01*
X18093619Y-7617333D01*
X17998380Y-8474476D02*
X17998380Y-8284000D01*
X18046000Y-8188761D01*
X18093619Y-8141142D01*
X18236476Y-8045904D01*
X18426952Y-7998285D01*
X18807904Y-7998285D01*
X18903142Y-8045904D01*
X18950761Y-8093523D01*
X18998380Y-8188761D01*
X18998380Y-8379238D01*
X18950761Y-8474476D01*
X18903142Y-8522095D01*
X18807904Y-8569714D01*
X18569809Y-8569714D01*
X18474571Y-8522095D01*
X18426952Y-8474476D01*
X18379333Y-8379238D01*
X18379333Y-8188761D01*
X18426952Y-8093523D01*
X18474571Y-8045904D01*
X18569809Y-7998285D01*
X7663642Y-3680333D02*
X7711261Y-3632714D01*
X7758880Y-3489857D01*
X7758880Y-3394619D01*
X7711261Y-3251761D01*
X7616023Y-3156523D01*
X7520785Y-3108904D01*
X7330309Y-3061285D01*
X7187452Y-3061285D01*
X6996976Y-3108904D01*
X6901738Y-3156523D01*
X6806500Y-3251761D01*
X6758880Y-3394619D01*
X6758880Y-3489857D01*
X6806500Y-3632714D01*
X6854119Y-3680333D01*
X6758880Y-4585095D02*
X6758880Y-4108904D01*
X7235071Y-4061285D01*
X7187452Y-4108904D01*
X7139833Y-4204142D01*
X7139833Y-4442238D01*
X7187452Y-4537476D01*
X7235071Y-4585095D01*
X7330309Y-4632714D01*
X7568404Y-4632714D01*
X7663642Y-4585095D01*
X7711261Y-4537476D01*
X7758880Y-4442238D01*
X7758880Y-4204142D01*
X7711261Y-4108904D01*
X7663642Y-4061285D01*
X9632142Y-12252833D02*
X9679761Y-12205214D01*
X9727380Y-12062357D01*
X9727380Y-11967119D01*
X9679761Y-11824261D01*
X9584523Y-11729023D01*
X9489285Y-11681404D01*
X9298809Y-11633785D01*
X9155952Y-11633785D01*
X8965476Y-11681404D01*
X8870238Y-11729023D01*
X8775000Y-11824261D01*
X8727380Y-11967119D01*
X8727380Y-12062357D01*
X8775000Y-12205214D01*
X8822619Y-12252833D01*
X9060714Y-13109976D02*
X9727380Y-13109976D01*
X8679761Y-12871880D02*
X9394047Y-12633785D01*
X9394047Y-13252833D01*
X13061142Y-4886833D02*
X13108761Y-4839214D01*
X13156380Y-4696357D01*
X13156380Y-4601119D01*
X13108761Y-4458261D01*
X13013523Y-4363023D01*
X12918285Y-4315404D01*
X12727809Y-4267785D01*
X12584952Y-4267785D01*
X12394476Y-4315404D01*
X12299238Y-4363023D01*
X12204000Y-4458261D01*
X12156380Y-4601119D01*
X12156380Y-4696357D01*
X12204000Y-4839214D01*
X12251619Y-4886833D01*
X12156380Y-5220166D02*
X12156380Y-5839214D01*
X12537333Y-5505880D01*
X12537333Y-5648738D01*
X12584952Y-5743976D01*
X12632571Y-5791595D01*
X12727809Y-5839214D01*
X12965904Y-5839214D01*
X13061142Y-5791595D01*
X13108761Y-5743976D01*
X13156380Y-5648738D01*
X13156380Y-5363023D01*
X13108761Y-5267785D01*
X13061142Y-5220166D01*
M02*
