G04 #@! TF.GenerationSoftware,KiCad,Pcbnew,5.1.5*
G04 #@! TF.CreationDate,2020-02-24T19:09:01+03:00*
G04 #@! TF.ProjectId,mod-lqfp64,6d6f642d-6c71-4667-9036-342e6b696361,rev?*
G04 #@! TF.SameCoordinates,PX1e84800PY280de80*
G04 #@! TF.FileFunction,Copper,L1,Top*
G04 #@! TF.FilePolarity,Positive*
%FSLAX46Y46*%
G04 Gerber Fmt 4.6, Leading zero omitted, Abs format (unit mm)*
G04 Created by KiCad (PCBNEW 5.1.5) date 2020-02-24 19:09:01*
%MOMM*%
%LPD*%
G04 APERTURE LIST*
%ADD10R,1.300000X1.600000*%
%ADD11C,0.100000*%
%ADD12R,2.540000X1.270000*%
%ADD13C,0.600000*%
%ADD14C,0.200000*%
%ADD15C,0.300000*%
G04 APERTURE END LIST*
D10*
X21864000Y-10577000D03*
X21864000Y-7277000D03*
X23864000Y-7277000D03*
X23864000Y-10577000D03*
G04 #@! TA.AperFunction,SMDPad,CuDef*
D11*
G36*
X17552351Y-12303361D02*
G01*
X17559632Y-12304441D01*
X17566771Y-12306229D01*
X17573701Y-12308709D01*
X17580355Y-12311856D01*
X17586668Y-12315640D01*
X17592579Y-12320024D01*
X17598033Y-12324967D01*
X17602976Y-12330421D01*
X17607360Y-12336332D01*
X17611144Y-12342645D01*
X17614291Y-12349299D01*
X17616771Y-12356229D01*
X17618559Y-12363368D01*
X17619639Y-12370649D01*
X17620000Y-12378000D01*
X17620000Y-13778000D01*
X17619639Y-13785351D01*
X17618559Y-13792632D01*
X17616771Y-13799771D01*
X17614291Y-13806701D01*
X17611144Y-13813355D01*
X17607360Y-13819668D01*
X17602976Y-13825579D01*
X17598033Y-13831033D01*
X17592579Y-13835976D01*
X17586668Y-13840360D01*
X17580355Y-13844144D01*
X17573701Y-13847291D01*
X17566771Y-13849771D01*
X17559632Y-13851559D01*
X17552351Y-13852639D01*
X17545000Y-13853000D01*
X17395000Y-13853000D01*
X17387649Y-13852639D01*
X17380368Y-13851559D01*
X17373229Y-13849771D01*
X17366299Y-13847291D01*
X17359645Y-13844144D01*
X17353332Y-13840360D01*
X17347421Y-13835976D01*
X17341967Y-13831033D01*
X17337024Y-13825579D01*
X17332640Y-13819668D01*
X17328856Y-13813355D01*
X17325709Y-13806701D01*
X17323229Y-13799771D01*
X17321441Y-13792632D01*
X17320361Y-13785351D01*
X17320000Y-13778000D01*
X17320000Y-12378000D01*
X17320361Y-12370649D01*
X17321441Y-12363368D01*
X17323229Y-12356229D01*
X17325709Y-12349299D01*
X17328856Y-12342645D01*
X17332640Y-12336332D01*
X17337024Y-12330421D01*
X17341967Y-12324967D01*
X17347421Y-12320024D01*
X17353332Y-12315640D01*
X17359645Y-12311856D01*
X17366299Y-12308709D01*
X17373229Y-12306229D01*
X17380368Y-12304441D01*
X17387649Y-12303361D01*
X17395000Y-12303000D01*
X17545000Y-12303000D01*
X17552351Y-12303361D01*
G37*
G04 #@! TD.AperFunction*
G04 #@! TA.AperFunction,SMDPad,CuDef*
G36*
X17052351Y-12303361D02*
G01*
X17059632Y-12304441D01*
X17066771Y-12306229D01*
X17073701Y-12308709D01*
X17080355Y-12311856D01*
X17086668Y-12315640D01*
X17092579Y-12320024D01*
X17098033Y-12324967D01*
X17102976Y-12330421D01*
X17107360Y-12336332D01*
X17111144Y-12342645D01*
X17114291Y-12349299D01*
X17116771Y-12356229D01*
X17118559Y-12363368D01*
X17119639Y-12370649D01*
X17120000Y-12378000D01*
X17120000Y-13778000D01*
X17119639Y-13785351D01*
X17118559Y-13792632D01*
X17116771Y-13799771D01*
X17114291Y-13806701D01*
X17111144Y-13813355D01*
X17107360Y-13819668D01*
X17102976Y-13825579D01*
X17098033Y-13831033D01*
X17092579Y-13835976D01*
X17086668Y-13840360D01*
X17080355Y-13844144D01*
X17073701Y-13847291D01*
X17066771Y-13849771D01*
X17059632Y-13851559D01*
X17052351Y-13852639D01*
X17045000Y-13853000D01*
X16895000Y-13853000D01*
X16887649Y-13852639D01*
X16880368Y-13851559D01*
X16873229Y-13849771D01*
X16866299Y-13847291D01*
X16859645Y-13844144D01*
X16853332Y-13840360D01*
X16847421Y-13835976D01*
X16841967Y-13831033D01*
X16837024Y-13825579D01*
X16832640Y-13819668D01*
X16828856Y-13813355D01*
X16825709Y-13806701D01*
X16823229Y-13799771D01*
X16821441Y-13792632D01*
X16820361Y-13785351D01*
X16820000Y-13778000D01*
X16820000Y-12378000D01*
X16820361Y-12370649D01*
X16821441Y-12363368D01*
X16823229Y-12356229D01*
X16825709Y-12349299D01*
X16828856Y-12342645D01*
X16832640Y-12336332D01*
X16837024Y-12330421D01*
X16841967Y-12324967D01*
X16847421Y-12320024D01*
X16853332Y-12315640D01*
X16859645Y-12311856D01*
X16866299Y-12308709D01*
X16873229Y-12306229D01*
X16880368Y-12304441D01*
X16887649Y-12303361D01*
X16895000Y-12303000D01*
X17045000Y-12303000D01*
X17052351Y-12303361D01*
G37*
G04 #@! TD.AperFunction*
G04 #@! TA.AperFunction,SMDPad,CuDef*
G36*
X16552351Y-12303361D02*
G01*
X16559632Y-12304441D01*
X16566771Y-12306229D01*
X16573701Y-12308709D01*
X16580355Y-12311856D01*
X16586668Y-12315640D01*
X16592579Y-12320024D01*
X16598033Y-12324967D01*
X16602976Y-12330421D01*
X16607360Y-12336332D01*
X16611144Y-12342645D01*
X16614291Y-12349299D01*
X16616771Y-12356229D01*
X16618559Y-12363368D01*
X16619639Y-12370649D01*
X16620000Y-12378000D01*
X16620000Y-13778000D01*
X16619639Y-13785351D01*
X16618559Y-13792632D01*
X16616771Y-13799771D01*
X16614291Y-13806701D01*
X16611144Y-13813355D01*
X16607360Y-13819668D01*
X16602976Y-13825579D01*
X16598033Y-13831033D01*
X16592579Y-13835976D01*
X16586668Y-13840360D01*
X16580355Y-13844144D01*
X16573701Y-13847291D01*
X16566771Y-13849771D01*
X16559632Y-13851559D01*
X16552351Y-13852639D01*
X16545000Y-13853000D01*
X16395000Y-13853000D01*
X16387649Y-13852639D01*
X16380368Y-13851559D01*
X16373229Y-13849771D01*
X16366299Y-13847291D01*
X16359645Y-13844144D01*
X16353332Y-13840360D01*
X16347421Y-13835976D01*
X16341967Y-13831033D01*
X16337024Y-13825579D01*
X16332640Y-13819668D01*
X16328856Y-13813355D01*
X16325709Y-13806701D01*
X16323229Y-13799771D01*
X16321441Y-13792632D01*
X16320361Y-13785351D01*
X16320000Y-13778000D01*
X16320000Y-12378000D01*
X16320361Y-12370649D01*
X16321441Y-12363368D01*
X16323229Y-12356229D01*
X16325709Y-12349299D01*
X16328856Y-12342645D01*
X16332640Y-12336332D01*
X16337024Y-12330421D01*
X16341967Y-12324967D01*
X16347421Y-12320024D01*
X16353332Y-12315640D01*
X16359645Y-12311856D01*
X16366299Y-12308709D01*
X16373229Y-12306229D01*
X16380368Y-12304441D01*
X16387649Y-12303361D01*
X16395000Y-12303000D01*
X16545000Y-12303000D01*
X16552351Y-12303361D01*
G37*
G04 #@! TD.AperFunction*
G04 #@! TA.AperFunction,SMDPad,CuDef*
G36*
X16052351Y-12303361D02*
G01*
X16059632Y-12304441D01*
X16066771Y-12306229D01*
X16073701Y-12308709D01*
X16080355Y-12311856D01*
X16086668Y-12315640D01*
X16092579Y-12320024D01*
X16098033Y-12324967D01*
X16102976Y-12330421D01*
X16107360Y-12336332D01*
X16111144Y-12342645D01*
X16114291Y-12349299D01*
X16116771Y-12356229D01*
X16118559Y-12363368D01*
X16119639Y-12370649D01*
X16120000Y-12378000D01*
X16120000Y-13778000D01*
X16119639Y-13785351D01*
X16118559Y-13792632D01*
X16116771Y-13799771D01*
X16114291Y-13806701D01*
X16111144Y-13813355D01*
X16107360Y-13819668D01*
X16102976Y-13825579D01*
X16098033Y-13831033D01*
X16092579Y-13835976D01*
X16086668Y-13840360D01*
X16080355Y-13844144D01*
X16073701Y-13847291D01*
X16066771Y-13849771D01*
X16059632Y-13851559D01*
X16052351Y-13852639D01*
X16045000Y-13853000D01*
X15895000Y-13853000D01*
X15887649Y-13852639D01*
X15880368Y-13851559D01*
X15873229Y-13849771D01*
X15866299Y-13847291D01*
X15859645Y-13844144D01*
X15853332Y-13840360D01*
X15847421Y-13835976D01*
X15841967Y-13831033D01*
X15837024Y-13825579D01*
X15832640Y-13819668D01*
X15828856Y-13813355D01*
X15825709Y-13806701D01*
X15823229Y-13799771D01*
X15821441Y-13792632D01*
X15820361Y-13785351D01*
X15820000Y-13778000D01*
X15820000Y-12378000D01*
X15820361Y-12370649D01*
X15821441Y-12363368D01*
X15823229Y-12356229D01*
X15825709Y-12349299D01*
X15828856Y-12342645D01*
X15832640Y-12336332D01*
X15837024Y-12330421D01*
X15841967Y-12324967D01*
X15847421Y-12320024D01*
X15853332Y-12315640D01*
X15859645Y-12311856D01*
X15866299Y-12308709D01*
X15873229Y-12306229D01*
X15880368Y-12304441D01*
X15887649Y-12303361D01*
X15895000Y-12303000D01*
X16045000Y-12303000D01*
X16052351Y-12303361D01*
G37*
G04 #@! TD.AperFunction*
G04 #@! TA.AperFunction,SMDPad,CuDef*
G36*
X15552351Y-12303361D02*
G01*
X15559632Y-12304441D01*
X15566771Y-12306229D01*
X15573701Y-12308709D01*
X15580355Y-12311856D01*
X15586668Y-12315640D01*
X15592579Y-12320024D01*
X15598033Y-12324967D01*
X15602976Y-12330421D01*
X15607360Y-12336332D01*
X15611144Y-12342645D01*
X15614291Y-12349299D01*
X15616771Y-12356229D01*
X15618559Y-12363368D01*
X15619639Y-12370649D01*
X15620000Y-12378000D01*
X15620000Y-13778000D01*
X15619639Y-13785351D01*
X15618559Y-13792632D01*
X15616771Y-13799771D01*
X15614291Y-13806701D01*
X15611144Y-13813355D01*
X15607360Y-13819668D01*
X15602976Y-13825579D01*
X15598033Y-13831033D01*
X15592579Y-13835976D01*
X15586668Y-13840360D01*
X15580355Y-13844144D01*
X15573701Y-13847291D01*
X15566771Y-13849771D01*
X15559632Y-13851559D01*
X15552351Y-13852639D01*
X15545000Y-13853000D01*
X15395000Y-13853000D01*
X15387649Y-13852639D01*
X15380368Y-13851559D01*
X15373229Y-13849771D01*
X15366299Y-13847291D01*
X15359645Y-13844144D01*
X15353332Y-13840360D01*
X15347421Y-13835976D01*
X15341967Y-13831033D01*
X15337024Y-13825579D01*
X15332640Y-13819668D01*
X15328856Y-13813355D01*
X15325709Y-13806701D01*
X15323229Y-13799771D01*
X15321441Y-13792632D01*
X15320361Y-13785351D01*
X15320000Y-13778000D01*
X15320000Y-12378000D01*
X15320361Y-12370649D01*
X15321441Y-12363368D01*
X15323229Y-12356229D01*
X15325709Y-12349299D01*
X15328856Y-12342645D01*
X15332640Y-12336332D01*
X15337024Y-12330421D01*
X15341967Y-12324967D01*
X15347421Y-12320024D01*
X15353332Y-12315640D01*
X15359645Y-12311856D01*
X15366299Y-12308709D01*
X15373229Y-12306229D01*
X15380368Y-12304441D01*
X15387649Y-12303361D01*
X15395000Y-12303000D01*
X15545000Y-12303000D01*
X15552351Y-12303361D01*
G37*
G04 #@! TD.AperFunction*
G04 #@! TA.AperFunction,SMDPad,CuDef*
G36*
X15052351Y-12303361D02*
G01*
X15059632Y-12304441D01*
X15066771Y-12306229D01*
X15073701Y-12308709D01*
X15080355Y-12311856D01*
X15086668Y-12315640D01*
X15092579Y-12320024D01*
X15098033Y-12324967D01*
X15102976Y-12330421D01*
X15107360Y-12336332D01*
X15111144Y-12342645D01*
X15114291Y-12349299D01*
X15116771Y-12356229D01*
X15118559Y-12363368D01*
X15119639Y-12370649D01*
X15120000Y-12378000D01*
X15120000Y-13778000D01*
X15119639Y-13785351D01*
X15118559Y-13792632D01*
X15116771Y-13799771D01*
X15114291Y-13806701D01*
X15111144Y-13813355D01*
X15107360Y-13819668D01*
X15102976Y-13825579D01*
X15098033Y-13831033D01*
X15092579Y-13835976D01*
X15086668Y-13840360D01*
X15080355Y-13844144D01*
X15073701Y-13847291D01*
X15066771Y-13849771D01*
X15059632Y-13851559D01*
X15052351Y-13852639D01*
X15045000Y-13853000D01*
X14895000Y-13853000D01*
X14887649Y-13852639D01*
X14880368Y-13851559D01*
X14873229Y-13849771D01*
X14866299Y-13847291D01*
X14859645Y-13844144D01*
X14853332Y-13840360D01*
X14847421Y-13835976D01*
X14841967Y-13831033D01*
X14837024Y-13825579D01*
X14832640Y-13819668D01*
X14828856Y-13813355D01*
X14825709Y-13806701D01*
X14823229Y-13799771D01*
X14821441Y-13792632D01*
X14820361Y-13785351D01*
X14820000Y-13778000D01*
X14820000Y-12378000D01*
X14820361Y-12370649D01*
X14821441Y-12363368D01*
X14823229Y-12356229D01*
X14825709Y-12349299D01*
X14828856Y-12342645D01*
X14832640Y-12336332D01*
X14837024Y-12330421D01*
X14841967Y-12324967D01*
X14847421Y-12320024D01*
X14853332Y-12315640D01*
X14859645Y-12311856D01*
X14866299Y-12308709D01*
X14873229Y-12306229D01*
X14880368Y-12304441D01*
X14887649Y-12303361D01*
X14895000Y-12303000D01*
X15045000Y-12303000D01*
X15052351Y-12303361D01*
G37*
G04 #@! TD.AperFunction*
G04 #@! TA.AperFunction,SMDPad,CuDef*
G36*
X14552351Y-12303361D02*
G01*
X14559632Y-12304441D01*
X14566771Y-12306229D01*
X14573701Y-12308709D01*
X14580355Y-12311856D01*
X14586668Y-12315640D01*
X14592579Y-12320024D01*
X14598033Y-12324967D01*
X14602976Y-12330421D01*
X14607360Y-12336332D01*
X14611144Y-12342645D01*
X14614291Y-12349299D01*
X14616771Y-12356229D01*
X14618559Y-12363368D01*
X14619639Y-12370649D01*
X14620000Y-12378000D01*
X14620000Y-13778000D01*
X14619639Y-13785351D01*
X14618559Y-13792632D01*
X14616771Y-13799771D01*
X14614291Y-13806701D01*
X14611144Y-13813355D01*
X14607360Y-13819668D01*
X14602976Y-13825579D01*
X14598033Y-13831033D01*
X14592579Y-13835976D01*
X14586668Y-13840360D01*
X14580355Y-13844144D01*
X14573701Y-13847291D01*
X14566771Y-13849771D01*
X14559632Y-13851559D01*
X14552351Y-13852639D01*
X14545000Y-13853000D01*
X14395000Y-13853000D01*
X14387649Y-13852639D01*
X14380368Y-13851559D01*
X14373229Y-13849771D01*
X14366299Y-13847291D01*
X14359645Y-13844144D01*
X14353332Y-13840360D01*
X14347421Y-13835976D01*
X14341967Y-13831033D01*
X14337024Y-13825579D01*
X14332640Y-13819668D01*
X14328856Y-13813355D01*
X14325709Y-13806701D01*
X14323229Y-13799771D01*
X14321441Y-13792632D01*
X14320361Y-13785351D01*
X14320000Y-13778000D01*
X14320000Y-12378000D01*
X14320361Y-12370649D01*
X14321441Y-12363368D01*
X14323229Y-12356229D01*
X14325709Y-12349299D01*
X14328856Y-12342645D01*
X14332640Y-12336332D01*
X14337024Y-12330421D01*
X14341967Y-12324967D01*
X14347421Y-12320024D01*
X14353332Y-12315640D01*
X14359645Y-12311856D01*
X14366299Y-12308709D01*
X14373229Y-12306229D01*
X14380368Y-12304441D01*
X14387649Y-12303361D01*
X14395000Y-12303000D01*
X14545000Y-12303000D01*
X14552351Y-12303361D01*
G37*
G04 #@! TD.AperFunction*
G04 #@! TA.AperFunction,SMDPad,CuDef*
G36*
X14052351Y-12303361D02*
G01*
X14059632Y-12304441D01*
X14066771Y-12306229D01*
X14073701Y-12308709D01*
X14080355Y-12311856D01*
X14086668Y-12315640D01*
X14092579Y-12320024D01*
X14098033Y-12324967D01*
X14102976Y-12330421D01*
X14107360Y-12336332D01*
X14111144Y-12342645D01*
X14114291Y-12349299D01*
X14116771Y-12356229D01*
X14118559Y-12363368D01*
X14119639Y-12370649D01*
X14120000Y-12378000D01*
X14120000Y-13778000D01*
X14119639Y-13785351D01*
X14118559Y-13792632D01*
X14116771Y-13799771D01*
X14114291Y-13806701D01*
X14111144Y-13813355D01*
X14107360Y-13819668D01*
X14102976Y-13825579D01*
X14098033Y-13831033D01*
X14092579Y-13835976D01*
X14086668Y-13840360D01*
X14080355Y-13844144D01*
X14073701Y-13847291D01*
X14066771Y-13849771D01*
X14059632Y-13851559D01*
X14052351Y-13852639D01*
X14045000Y-13853000D01*
X13895000Y-13853000D01*
X13887649Y-13852639D01*
X13880368Y-13851559D01*
X13873229Y-13849771D01*
X13866299Y-13847291D01*
X13859645Y-13844144D01*
X13853332Y-13840360D01*
X13847421Y-13835976D01*
X13841967Y-13831033D01*
X13837024Y-13825579D01*
X13832640Y-13819668D01*
X13828856Y-13813355D01*
X13825709Y-13806701D01*
X13823229Y-13799771D01*
X13821441Y-13792632D01*
X13820361Y-13785351D01*
X13820000Y-13778000D01*
X13820000Y-12378000D01*
X13820361Y-12370649D01*
X13821441Y-12363368D01*
X13823229Y-12356229D01*
X13825709Y-12349299D01*
X13828856Y-12342645D01*
X13832640Y-12336332D01*
X13837024Y-12330421D01*
X13841967Y-12324967D01*
X13847421Y-12320024D01*
X13853332Y-12315640D01*
X13859645Y-12311856D01*
X13866299Y-12308709D01*
X13873229Y-12306229D01*
X13880368Y-12304441D01*
X13887649Y-12303361D01*
X13895000Y-12303000D01*
X14045000Y-12303000D01*
X14052351Y-12303361D01*
G37*
G04 #@! TD.AperFunction*
G04 #@! TA.AperFunction,SMDPad,CuDef*
G36*
X13552351Y-12303361D02*
G01*
X13559632Y-12304441D01*
X13566771Y-12306229D01*
X13573701Y-12308709D01*
X13580355Y-12311856D01*
X13586668Y-12315640D01*
X13592579Y-12320024D01*
X13598033Y-12324967D01*
X13602976Y-12330421D01*
X13607360Y-12336332D01*
X13611144Y-12342645D01*
X13614291Y-12349299D01*
X13616771Y-12356229D01*
X13618559Y-12363368D01*
X13619639Y-12370649D01*
X13620000Y-12378000D01*
X13620000Y-13778000D01*
X13619639Y-13785351D01*
X13618559Y-13792632D01*
X13616771Y-13799771D01*
X13614291Y-13806701D01*
X13611144Y-13813355D01*
X13607360Y-13819668D01*
X13602976Y-13825579D01*
X13598033Y-13831033D01*
X13592579Y-13835976D01*
X13586668Y-13840360D01*
X13580355Y-13844144D01*
X13573701Y-13847291D01*
X13566771Y-13849771D01*
X13559632Y-13851559D01*
X13552351Y-13852639D01*
X13545000Y-13853000D01*
X13395000Y-13853000D01*
X13387649Y-13852639D01*
X13380368Y-13851559D01*
X13373229Y-13849771D01*
X13366299Y-13847291D01*
X13359645Y-13844144D01*
X13353332Y-13840360D01*
X13347421Y-13835976D01*
X13341967Y-13831033D01*
X13337024Y-13825579D01*
X13332640Y-13819668D01*
X13328856Y-13813355D01*
X13325709Y-13806701D01*
X13323229Y-13799771D01*
X13321441Y-13792632D01*
X13320361Y-13785351D01*
X13320000Y-13778000D01*
X13320000Y-12378000D01*
X13320361Y-12370649D01*
X13321441Y-12363368D01*
X13323229Y-12356229D01*
X13325709Y-12349299D01*
X13328856Y-12342645D01*
X13332640Y-12336332D01*
X13337024Y-12330421D01*
X13341967Y-12324967D01*
X13347421Y-12320024D01*
X13353332Y-12315640D01*
X13359645Y-12311856D01*
X13366299Y-12308709D01*
X13373229Y-12306229D01*
X13380368Y-12304441D01*
X13387649Y-12303361D01*
X13395000Y-12303000D01*
X13545000Y-12303000D01*
X13552351Y-12303361D01*
G37*
G04 #@! TD.AperFunction*
G04 #@! TA.AperFunction,SMDPad,CuDef*
G36*
X13052351Y-12303361D02*
G01*
X13059632Y-12304441D01*
X13066771Y-12306229D01*
X13073701Y-12308709D01*
X13080355Y-12311856D01*
X13086668Y-12315640D01*
X13092579Y-12320024D01*
X13098033Y-12324967D01*
X13102976Y-12330421D01*
X13107360Y-12336332D01*
X13111144Y-12342645D01*
X13114291Y-12349299D01*
X13116771Y-12356229D01*
X13118559Y-12363368D01*
X13119639Y-12370649D01*
X13120000Y-12378000D01*
X13120000Y-13778000D01*
X13119639Y-13785351D01*
X13118559Y-13792632D01*
X13116771Y-13799771D01*
X13114291Y-13806701D01*
X13111144Y-13813355D01*
X13107360Y-13819668D01*
X13102976Y-13825579D01*
X13098033Y-13831033D01*
X13092579Y-13835976D01*
X13086668Y-13840360D01*
X13080355Y-13844144D01*
X13073701Y-13847291D01*
X13066771Y-13849771D01*
X13059632Y-13851559D01*
X13052351Y-13852639D01*
X13045000Y-13853000D01*
X12895000Y-13853000D01*
X12887649Y-13852639D01*
X12880368Y-13851559D01*
X12873229Y-13849771D01*
X12866299Y-13847291D01*
X12859645Y-13844144D01*
X12853332Y-13840360D01*
X12847421Y-13835976D01*
X12841967Y-13831033D01*
X12837024Y-13825579D01*
X12832640Y-13819668D01*
X12828856Y-13813355D01*
X12825709Y-13806701D01*
X12823229Y-13799771D01*
X12821441Y-13792632D01*
X12820361Y-13785351D01*
X12820000Y-13778000D01*
X12820000Y-12378000D01*
X12820361Y-12370649D01*
X12821441Y-12363368D01*
X12823229Y-12356229D01*
X12825709Y-12349299D01*
X12828856Y-12342645D01*
X12832640Y-12336332D01*
X12837024Y-12330421D01*
X12841967Y-12324967D01*
X12847421Y-12320024D01*
X12853332Y-12315640D01*
X12859645Y-12311856D01*
X12866299Y-12308709D01*
X12873229Y-12306229D01*
X12880368Y-12304441D01*
X12887649Y-12303361D01*
X12895000Y-12303000D01*
X13045000Y-12303000D01*
X13052351Y-12303361D01*
G37*
G04 #@! TD.AperFunction*
G04 #@! TA.AperFunction,SMDPad,CuDef*
G36*
X12552351Y-12303361D02*
G01*
X12559632Y-12304441D01*
X12566771Y-12306229D01*
X12573701Y-12308709D01*
X12580355Y-12311856D01*
X12586668Y-12315640D01*
X12592579Y-12320024D01*
X12598033Y-12324967D01*
X12602976Y-12330421D01*
X12607360Y-12336332D01*
X12611144Y-12342645D01*
X12614291Y-12349299D01*
X12616771Y-12356229D01*
X12618559Y-12363368D01*
X12619639Y-12370649D01*
X12620000Y-12378000D01*
X12620000Y-13778000D01*
X12619639Y-13785351D01*
X12618559Y-13792632D01*
X12616771Y-13799771D01*
X12614291Y-13806701D01*
X12611144Y-13813355D01*
X12607360Y-13819668D01*
X12602976Y-13825579D01*
X12598033Y-13831033D01*
X12592579Y-13835976D01*
X12586668Y-13840360D01*
X12580355Y-13844144D01*
X12573701Y-13847291D01*
X12566771Y-13849771D01*
X12559632Y-13851559D01*
X12552351Y-13852639D01*
X12545000Y-13853000D01*
X12395000Y-13853000D01*
X12387649Y-13852639D01*
X12380368Y-13851559D01*
X12373229Y-13849771D01*
X12366299Y-13847291D01*
X12359645Y-13844144D01*
X12353332Y-13840360D01*
X12347421Y-13835976D01*
X12341967Y-13831033D01*
X12337024Y-13825579D01*
X12332640Y-13819668D01*
X12328856Y-13813355D01*
X12325709Y-13806701D01*
X12323229Y-13799771D01*
X12321441Y-13792632D01*
X12320361Y-13785351D01*
X12320000Y-13778000D01*
X12320000Y-12378000D01*
X12320361Y-12370649D01*
X12321441Y-12363368D01*
X12323229Y-12356229D01*
X12325709Y-12349299D01*
X12328856Y-12342645D01*
X12332640Y-12336332D01*
X12337024Y-12330421D01*
X12341967Y-12324967D01*
X12347421Y-12320024D01*
X12353332Y-12315640D01*
X12359645Y-12311856D01*
X12366299Y-12308709D01*
X12373229Y-12306229D01*
X12380368Y-12304441D01*
X12387649Y-12303361D01*
X12395000Y-12303000D01*
X12545000Y-12303000D01*
X12552351Y-12303361D01*
G37*
G04 #@! TD.AperFunction*
G04 #@! TA.AperFunction,SMDPad,CuDef*
G36*
X12052351Y-12303361D02*
G01*
X12059632Y-12304441D01*
X12066771Y-12306229D01*
X12073701Y-12308709D01*
X12080355Y-12311856D01*
X12086668Y-12315640D01*
X12092579Y-12320024D01*
X12098033Y-12324967D01*
X12102976Y-12330421D01*
X12107360Y-12336332D01*
X12111144Y-12342645D01*
X12114291Y-12349299D01*
X12116771Y-12356229D01*
X12118559Y-12363368D01*
X12119639Y-12370649D01*
X12120000Y-12378000D01*
X12120000Y-13778000D01*
X12119639Y-13785351D01*
X12118559Y-13792632D01*
X12116771Y-13799771D01*
X12114291Y-13806701D01*
X12111144Y-13813355D01*
X12107360Y-13819668D01*
X12102976Y-13825579D01*
X12098033Y-13831033D01*
X12092579Y-13835976D01*
X12086668Y-13840360D01*
X12080355Y-13844144D01*
X12073701Y-13847291D01*
X12066771Y-13849771D01*
X12059632Y-13851559D01*
X12052351Y-13852639D01*
X12045000Y-13853000D01*
X11895000Y-13853000D01*
X11887649Y-13852639D01*
X11880368Y-13851559D01*
X11873229Y-13849771D01*
X11866299Y-13847291D01*
X11859645Y-13844144D01*
X11853332Y-13840360D01*
X11847421Y-13835976D01*
X11841967Y-13831033D01*
X11837024Y-13825579D01*
X11832640Y-13819668D01*
X11828856Y-13813355D01*
X11825709Y-13806701D01*
X11823229Y-13799771D01*
X11821441Y-13792632D01*
X11820361Y-13785351D01*
X11820000Y-13778000D01*
X11820000Y-12378000D01*
X11820361Y-12370649D01*
X11821441Y-12363368D01*
X11823229Y-12356229D01*
X11825709Y-12349299D01*
X11828856Y-12342645D01*
X11832640Y-12336332D01*
X11837024Y-12330421D01*
X11841967Y-12324967D01*
X11847421Y-12320024D01*
X11853332Y-12315640D01*
X11859645Y-12311856D01*
X11866299Y-12308709D01*
X11873229Y-12306229D01*
X11880368Y-12304441D01*
X11887649Y-12303361D01*
X11895000Y-12303000D01*
X12045000Y-12303000D01*
X12052351Y-12303361D01*
G37*
G04 #@! TD.AperFunction*
G04 #@! TA.AperFunction,SMDPad,CuDef*
G36*
X11552351Y-12303361D02*
G01*
X11559632Y-12304441D01*
X11566771Y-12306229D01*
X11573701Y-12308709D01*
X11580355Y-12311856D01*
X11586668Y-12315640D01*
X11592579Y-12320024D01*
X11598033Y-12324967D01*
X11602976Y-12330421D01*
X11607360Y-12336332D01*
X11611144Y-12342645D01*
X11614291Y-12349299D01*
X11616771Y-12356229D01*
X11618559Y-12363368D01*
X11619639Y-12370649D01*
X11620000Y-12378000D01*
X11620000Y-13778000D01*
X11619639Y-13785351D01*
X11618559Y-13792632D01*
X11616771Y-13799771D01*
X11614291Y-13806701D01*
X11611144Y-13813355D01*
X11607360Y-13819668D01*
X11602976Y-13825579D01*
X11598033Y-13831033D01*
X11592579Y-13835976D01*
X11586668Y-13840360D01*
X11580355Y-13844144D01*
X11573701Y-13847291D01*
X11566771Y-13849771D01*
X11559632Y-13851559D01*
X11552351Y-13852639D01*
X11545000Y-13853000D01*
X11395000Y-13853000D01*
X11387649Y-13852639D01*
X11380368Y-13851559D01*
X11373229Y-13849771D01*
X11366299Y-13847291D01*
X11359645Y-13844144D01*
X11353332Y-13840360D01*
X11347421Y-13835976D01*
X11341967Y-13831033D01*
X11337024Y-13825579D01*
X11332640Y-13819668D01*
X11328856Y-13813355D01*
X11325709Y-13806701D01*
X11323229Y-13799771D01*
X11321441Y-13792632D01*
X11320361Y-13785351D01*
X11320000Y-13778000D01*
X11320000Y-12378000D01*
X11320361Y-12370649D01*
X11321441Y-12363368D01*
X11323229Y-12356229D01*
X11325709Y-12349299D01*
X11328856Y-12342645D01*
X11332640Y-12336332D01*
X11337024Y-12330421D01*
X11341967Y-12324967D01*
X11347421Y-12320024D01*
X11353332Y-12315640D01*
X11359645Y-12311856D01*
X11366299Y-12308709D01*
X11373229Y-12306229D01*
X11380368Y-12304441D01*
X11387649Y-12303361D01*
X11395000Y-12303000D01*
X11545000Y-12303000D01*
X11552351Y-12303361D01*
G37*
G04 #@! TD.AperFunction*
G04 #@! TA.AperFunction,SMDPad,CuDef*
G36*
X11052351Y-12303361D02*
G01*
X11059632Y-12304441D01*
X11066771Y-12306229D01*
X11073701Y-12308709D01*
X11080355Y-12311856D01*
X11086668Y-12315640D01*
X11092579Y-12320024D01*
X11098033Y-12324967D01*
X11102976Y-12330421D01*
X11107360Y-12336332D01*
X11111144Y-12342645D01*
X11114291Y-12349299D01*
X11116771Y-12356229D01*
X11118559Y-12363368D01*
X11119639Y-12370649D01*
X11120000Y-12378000D01*
X11120000Y-13778000D01*
X11119639Y-13785351D01*
X11118559Y-13792632D01*
X11116771Y-13799771D01*
X11114291Y-13806701D01*
X11111144Y-13813355D01*
X11107360Y-13819668D01*
X11102976Y-13825579D01*
X11098033Y-13831033D01*
X11092579Y-13835976D01*
X11086668Y-13840360D01*
X11080355Y-13844144D01*
X11073701Y-13847291D01*
X11066771Y-13849771D01*
X11059632Y-13851559D01*
X11052351Y-13852639D01*
X11045000Y-13853000D01*
X10895000Y-13853000D01*
X10887649Y-13852639D01*
X10880368Y-13851559D01*
X10873229Y-13849771D01*
X10866299Y-13847291D01*
X10859645Y-13844144D01*
X10853332Y-13840360D01*
X10847421Y-13835976D01*
X10841967Y-13831033D01*
X10837024Y-13825579D01*
X10832640Y-13819668D01*
X10828856Y-13813355D01*
X10825709Y-13806701D01*
X10823229Y-13799771D01*
X10821441Y-13792632D01*
X10820361Y-13785351D01*
X10820000Y-13778000D01*
X10820000Y-12378000D01*
X10820361Y-12370649D01*
X10821441Y-12363368D01*
X10823229Y-12356229D01*
X10825709Y-12349299D01*
X10828856Y-12342645D01*
X10832640Y-12336332D01*
X10837024Y-12330421D01*
X10841967Y-12324967D01*
X10847421Y-12320024D01*
X10853332Y-12315640D01*
X10859645Y-12311856D01*
X10866299Y-12308709D01*
X10873229Y-12306229D01*
X10880368Y-12304441D01*
X10887649Y-12303361D01*
X10895000Y-12303000D01*
X11045000Y-12303000D01*
X11052351Y-12303361D01*
G37*
G04 #@! TD.AperFunction*
G04 #@! TA.AperFunction,SMDPad,CuDef*
G36*
X10552351Y-12303361D02*
G01*
X10559632Y-12304441D01*
X10566771Y-12306229D01*
X10573701Y-12308709D01*
X10580355Y-12311856D01*
X10586668Y-12315640D01*
X10592579Y-12320024D01*
X10598033Y-12324967D01*
X10602976Y-12330421D01*
X10607360Y-12336332D01*
X10611144Y-12342645D01*
X10614291Y-12349299D01*
X10616771Y-12356229D01*
X10618559Y-12363368D01*
X10619639Y-12370649D01*
X10620000Y-12378000D01*
X10620000Y-13778000D01*
X10619639Y-13785351D01*
X10618559Y-13792632D01*
X10616771Y-13799771D01*
X10614291Y-13806701D01*
X10611144Y-13813355D01*
X10607360Y-13819668D01*
X10602976Y-13825579D01*
X10598033Y-13831033D01*
X10592579Y-13835976D01*
X10586668Y-13840360D01*
X10580355Y-13844144D01*
X10573701Y-13847291D01*
X10566771Y-13849771D01*
X10559632Y-13851559D01*
X10552351Y-13852639D01*
X10545000Y-13853000D01*
X10395000Y-13853000D01*
X10387649Y-13852639D01*
X10380368Y-13851559D01*
X10373229Y-13849771D01*
X10366299Y-13847291D01*
X10359645Y-13844144D01*
X10353332Y-13840360D01*
X10347421Y-13835976D01*
X10341967Y-13831033D01*
X10337024Y-13825579D01*
X10332640Y-13819668D01*
X10328856Y-13813355D01*
X10325709Y-13806701D01*
X10323229Y-13799771D01*
X10321441Y-13792632D01*
X10320361Y-13785351D01*
X10320000Y-13778000D01*
X10320000Y-12378000D01*
X10320361Y-12370649D01*
X10321441Y-12363368D01*
X10323229Y-12356229D01*
X10325709Y-12349299D01*
X10328856Y-12342645D01*
X10332640Y-12336332D01*
X10337024Y-12330421D01*
X10341967Y-12324967D01*
X10347421Y-12320024D01*
X10353332Y-12315640D01*
X10359645Y-12311856D01*
X10366299Y-12308709D01*
X10373229Y-12306229D01*
X10380368Y-12304441D01*
X10387649Y-12303361D01*
X10395000Y-12303000D01*
X10545000Y-12303000D01*
X10552351Y-12303361D01*
G37*
G04 #@! TD.AperFunction*
G04 #@! TA.AperFunction,SMDPad,CuDef*
G36*
X10052351Y-12303361D02*
G01*
X10059632Y-12304441D01*
X10066771Y-12306229D01*
X10073701Y-12308709D01*
X10080355Y-12311856D01*
X10086668Y-12315640D01*
X10092579Y-12320024D01*
X10098033Y-12324967D01*
X10102976Y-12330421D01*
X10107360Y-12336332D01*
X10111144Y-12342645D01*
X10114291Y-12349299D01*
X10116771Y-12356229D01*
X10118559Y-12363368D01*
X10119639Y-12370649D01*
X10120000Y-12378000D01*
X10120000Y-13778000D01*
X10119639Y-13785351D01*
X10118559Y-13792632D01*
X10116771Y-13799771D01*
X10114291Y-13806701D01*
X10111144Y-13813355D01*
X10107360Y-13819668D01*
X10102976Y-13825579D01*
X10098033Y-13831033D01*
X10092579Y-13835976D01*
X10086668Y-13840360D01*
X10080355Y-13844144D01*
X10073701Y-13847291D01*
X10066771Y-13849771D01*
X10059632Y-13851559D01*
X10052351Y-13852639D01*
X10045000Y-13853000D01*
X9895000Y-13853000D01*
X9887649Y-13852639D01*
X9880368Y-13851559D01*
X9873229Y-13849771D01*
X9866299Y-13847291D01*
X9859645Y-13844144D01*
X9853332Y-13840360D01*
X9847421Y-13835976D01*
X9841967Y-13831033D01*
X9837024Y-13825579D01*
X9832640Y-13819668D01*
X9828856Y-13813355D01*
X9825709Y-13806701D01*
X9823229Y-13799771D01*
X9821441Y-13792632D01*
X9820361Y-13785351D01*
X9820000Y-13778000D01*
X9820000Y-12378000D01*
X9820361Y-12370649D01*
X9821441Y-12363368D01*
X9823229Y-12356229D01*
X9825709Y-12349299D01*
X9828856Y-12342645D01*
X9832640Y-12336332D01*
X9837024Y-12330421D01*
X9841967Y-12324967D01*
X9847421Y-12320024D01*
X9853332Y-12315640D01*
X9859645Y-12311856D01*
X9866299Y-12308709D01*
X9873229Y-12306229D01*
X9880368Y-12304441D01*
X9887649Y-12303361D01*
X9895000Y-12303000D01*
X10045000Y-12303000D01*
X10052351Y-12303361D01*
G37*
G04 #@! TD.AperFunction*
G04 #@! TA.AperFunction,SMDPad,CuDef*
G36*
X8752351Y-11003361D02*
G01*
X8759632Y-11004441D01*
X8766771Y-11006229D01*
X8773701Y-11008709D01*
X8780355Y-11011856D01*
X8786668Y-11015640D01*
X8792579Y-11020024D01*
X8798033Y-11024967D01*
X8802976Y-11030421D01*
X8807360Y-11036332D01*
X8811144Y-11042645D01*
X8814291Y-11049299D01*
X8816771Y-11056229D01*
X8818559Y-11063368D01*
X8819639Y-11070649D01*
X8820000Y-11078000D01*
X8820000Y-11228000D01*
X8819639Y-11235351D01*
X8818559Y-11242632D01*
X8816771Y-11249771D01*
X8814291Y-11256701D01*
X8811144Y-11263355D01*
X8807360Y-11269668D01*
X8802976Y-11275579D01*
X8798033Y-11281033D01*
X8792579Y-11285976D01*
X8786668Y-11290360D01*
X8780355Y-11294144D01*
X8773701Y-11297291D01*
X8766771Y-11299771D01*
X8759632Y-11301559D01*
X8752351Y-11302639D01*
X8745000Y-11303000D01*
X7345000Y-11303000D01*
X7337649Y-11302639D01*
X7330368Y-11301559D01*
X7323229Y-11299771D01*
X7316299Y-11297291D01*
X7309645Y-11294144D01*
X7303332Y-11290360D01*
X7297421Y-11285976D01*
X7291967Y-11281033D01*
X7287024Y-11275579D01*
X7282640Y-11269668D01*
X7278856Y-11263355D01*
X7275709Y-11256701D01*
X7273229Y-11249771D01*
X7271441Y-11242632D01*
X7270361Y-11235351D01*
X7270000Y-11228000D01*
X7270000Y-11078000D01*
X7270361Y-11070649D01*
X7271441Y-11063368D01*
X7273229Y-11056229D01*
X7275709Y-11049299D01*
X7278856Y-11042645D01*
X7282640Y-11036332D01*
X7287024Y-11030421D01*
X7291967Y-11024967D01*
X7297421Y-11020024D01*
X7303332Y-11015640D01*
X7309645Y-11011856D01*
X7316299Y-11008709D01*
X7323229Y-11006229D01*
X7330368Y-11004441D01*
X7337649Y-11003361D01*
X7345000Y-11003000D01*
X8745000Y-11003000D01*
X8752351Y-11003361D01*
G37*
G04 #@! TD.AperFunction*
G04 #@! TA.AperFunction,SMDPad,CuDef*
G36*
X8752351Y-10503361D02*
G01*
X8759632Y-10504441D01*
X8766771Y-10506229D01*
X8773701Y-10508709D01*
X8780355Y-10511856D01*
X8786668Y-10515640D01*
X8792579Y-10520024D01*
X8798033Y-10524967D01*
X8802976Y-10530421D01*
X8807360Y-10536332D01*
X8811144Y-10542645D01*
X8814291Y-10549299D01*
X8816771Y-10556229D01*
X8818559Y-10563368D01*
X8819639Y-10570649D01*
X8820000Y-10578000D01*
X8820000Y-10728000D01*
X8819639Y-10735351D01*
X8818559Y-10742632D01*
X8816771Y-10749771D01*
X8814291Y-10756701D01*
X8811144Y-10763355D01*
X8807360Y-10769668D01*
X8802976Y-10775579D01*
X8798033Y-10781033D01*
X8792579Y-10785976D01*
X8786668Y-10790360D01*
X8780355Y-10794144D01*
X8773701Y-10797291D01*
X8766771Y-10799771D01*
X8759632Y-10801559D01*
X8752351Y-10802639D01*
X8745000Y-10803000D01*
X7345000Y-10803000D01*
X7337649Y-10802639D01*
X7330368Y-10801559D01*
X7323229Y-10799771D01*
X7316299Y-10797291D01*
X7309645Y-10794144D01*
X7303332Y-10790360D01*
X7297421Y-10785976D01*
X7291967Y-10781033D01*
X7287024Y-10775579D01*
X7282640Y-10769668D01*
X7278856Y-10763355D01*
X7275709Y-10756701D01*
X7273229Y-10749771D01*
X7271441Y-10742632D01*
X7270361Y-10735351D01*
X7270000Y-10728000D01*
X7270000Y-10578000D01*
X7270361Y-10570649D01*
X7271441Y-10563368D01*
X7273229Y-10556229D01*
X7275709Y-10549299D01*
X7278856Y-10542645D01*
X7282640Y-10536332D01*
X7287024Y-10530421D01*
X7291967Y-10524967D01*
X7297421Y-10520024D01*
X7303332Y-10515640D01*
X7309645Y-10511856D01*
X7316299Y-10508709D01*
X7323229Y-10506229D01*
X7330368Y-10504441D01*
X7337649Y-10503361D01*
X7345000Y-10503000D01*
X8745000Y-10503000D01*
X8752351Y-10503361D01*
G37*
G04 #@! TD.AperFunction*
G04 #@! TA.AperFunction,SMDPad,CuDef*
G36*
X8752351Y-10003361D02*
G01*
X8759632Y-10004441D01*
X8766771Y-10006229D01*
X8773701Y-10008709D01*
X8780355Y-10011856D01*
X8786668Y-10015640D01*
X8792579Y-10020024D01*
X8798033Y-10024967D01*
X8802976Y-10030421D01*
X8807360Y-10036332D01*
X8811144Y-10042645D01*
X8814291Y-10049299D01*
X8816771Y-10056229D01*
X8818559Y-10063368D01*
X8819639Y-10070649D01*
X8820000Y-10078000D01*
X8820000Y-10228000D01*
X8819639Y-10235351D01*
X8818559Y-10242632D01*
X8816771Y-10249771D01*
X8814291Y-10256701D01*
X8811144Y-10263355D01*
X8807360Y-10269668D01*
X8802976Y-10275579D01*
X8798033Y-10281033D01*
X8792579Y-10285976D01*
X8786668Y-10290360D01*
X8780355Y-10294144D01*
X8773701Y-10297291D01*
X8766771Y-10299771D01*
X8759632Y-10301559D01*
X8752351Y-10302639D01*
X8745000Y-10303000D01*
X7345000Y-10303000D01*
X7337649Y-10302639D01*
X7330368Y-10301559D01*
X7323229Y-10299771D01*
X7316299Y-10297291D01*
X7309645Y-10294144D01*
X7303332Y-10290360D01*
X7297421Y-10285976D01*
X7291967Y-10281033D01*
X7287024Y-10275579D01*
X7282640Y-10269668D01*
X7278856Y-10263355D01*
X7275709Y-10256701D01*
X7273229Y-10249771D01*
X7271441Y-10242632D01*
X7270361Y-10235351D01*
X7270000Y-10228000D01*
X7270000Y-10078000D01*
X7270361Y-10070649D01*
X7271441Y-10063368D01*
X7273229Y-10056229D01*
X7275709Y-10049299D01*
X7278856Y-10042645D01*
X7282640Y-10036332D01*
X7287024Y-10030421D01*
X7291967Y-10024967D01*
X7297421Y-10020024D01*
X7303332Y-10015640D01*
X7309645Y-10011856D01*
X7316299Y-10008709D01*
X7323229Y-10006229D01*
X7330368Y-10004441D01*
X7337649Y-10003361D01*
X7345000Y-10003000D01*
X8745000Y-10003000D01*
X8752351Y-10003361D01*
G37*
G04 #@! TD.AperFunction*
G04 #@! TA.AperFunction,SMDPad,CuDef*
G36*
X8752351Y-9503361D02*
G01*
X8759632Y-9504441D01*
X8766771Y-9506229D01*
X8773701Y-9508709D01*
X8780355Y-9511856D01*
X8786668Y-9515640D01*
X8792579Y-9520024D01*
X8798033Y-9524967D01*
X8802976Y-9530421D01*
X8807360Y-9536332D01*
X8811144Y-9542645D01*
X8814291Y-9549299D01*
X8816771Y-9556229D01*
X8818559Y-9563368D01*
X8819639Y-9570649D01*
X8820000Y-9578000D01*
X8820000Y-9728000D01*
X8819639Y-9735351D01*
X8818559Y-9742632D01*
X8816771Y-9749771D01*
X8814291Y-9756701D01*
X8811144Y-9763355D01*
X8807360Y-9769668D01*
X8802976Y-9775579D01*
X8798033Y-9781033D01*
X8792579Y-9785976D01*
X8786668Y-9790360D01*
X8780355Y-9794144D01*
X8773701Y-9797291D01*
X8766771Y-9799771D01*
X8759632Y-9801559D01*
X8752351Y-9802639D01*
X8745000Y-9803000D01*
X7345000Y-9803000D01*
X7337649Y-9802639D01*
X7330368Y-9801559D01*
X7323229Y-9799771D01*
X7316299Y-9797291D01*
X7309645Y-9794144D01*
X7303332Y-9790360D01*
X7297421Y-9785976D01*
X7291967Y-9781033D01*
X7287024Y-9775579D01*
X7282640Y-9769668D01*
X7278856Y-9763355D01*
X7275709Y-9756701D01*
X7273229Y-9749771D01*
X7271441Y-9742632D01*
X7270361Y-9735351D01*
X7270000Y-9728000D01*
X7270000Y-9578000D01*
X7270361Y-9570649D01*
X7271441Y-9563368D01*
X7273229Y-9556229D01*
X7275709Y-9549299D01*
X7278856Y-9542645D01*
X7282640Y-9536332D01*
X7287024Y-9530421D01*
X7291967Y-9524967D01*
X7297421Y-9520024D01*
X7303332Y-9515640D01*
X7309645Y-9511856D01*
X7316299Y-9508709D01*
X7323229Y-9506229D01*
X7330368Y-9504441D01*
X7337649Y-9503361D01*
X7345000Y-9503000D01*
X8745000Y-9503000D01*
X8752351Y-9503361D01*
G37*
G04 #@! TD.AperFunction*
G04 #@! TA.AperFunction,SMDPad,CuDef*
G36*
X8752351Y-9003361D02*
G01*
X8759632Y-9004441D01*
X8766771Y-9006229D01*
X8773701Y-9008709D01*
X8780355Y-9011856D01*
X8786668Y-9015640D01*
X8792579Y-9020024D01*
X8798033Y-9024967D01*
X8802976Y-9030421D01*
X8807360Y-9036332D01*
X8811144Y-9042645D01*
X8814291Y-9049299D01*
X8816771Y-9056229D01*
X8818559Y-9063368D01*
X8819639Y-9070649D01*
X8820000Y-9078000D01*
X8820000Y-9228000D01*
X8819639Y-9235351D01*
X8818559Y-9242632D01*
X8816771Y-9249771D01*
X8814291Y-9256701D01*
X8811144Y-9263355D01*
X8807360Y-9269668D01*
X8802976Y-9275579D01*
X8798033Y-9281033D01*
X8792579Y-9285976D01*
X8786668Y-9290360D01*
X8780355Y-9294144D01*
X8773701Y-9297291D01*
X8766771Y-9299771D01*
X8759632Y-9301559D01*
X8752351Y-9302639D01*
X8745000Y-9303000D01*
X7345000Y-9303000D01*
X7337649Y-9302639D01*
X7330368Y-9301559D01*
X7323229Y-9299771D01*
X7316299Y-9297291D01*
X7309645Y-9294144D01*
X7303332Y-9290360D01*
X7297421Y-9285976D01*
X7291967Y-9281033D01*
X7287024Y-9275579D01*
X7282640Y-9269668D01*
X7278856Y-9263355D01*
X7275709Y-9256701D01*
X7273229Y-9249771D01*
X7271441Y-9242632D01*
X7270361Y-9235351D01*
X7270000Y-9228000D01*
X7270000Y-9078000D01*
X7270361Y-9070649D01*
X7271441Y-9063368D01*
X7273229Y-9056229D01*
X7275709Y-9049299D01*
X7278856Y-9042645D01*
X7282640Y-9036332D01*
X7287024Y-9030421D01*
X7291967Y-9024967D01*
X7297421Y-9020024D01*
X7303332Y-9015640D01*
X7309645Y-9011856D01*
X7316299Y-9008709D01*
X7323229Y-9006229D01*
X7330368Y-9004441D01*
X7337649Y-9003361D01*
X7345000Y-9003000D01*
X8745000Y-9003000D01*
X8752351Y-9003361D01*
G37*
G04 #@! TD.AperFunction*
G04 #@! TA.AperFunction,SMDPad,CuDef*
G36*
X8752351Y-8503361D02*
G01*
X8759632Y-8504441D01*
X8766771Y-8506229D01*
X8773701Y-8508709D01*
X8780355Y-8511856D01*
X8786668Y-8515640D01*
X8792579Y-8520024D01*
X8798033Y-8524967D01*
X8802976Y-8530421D01*
X8807360Y-8536332D01*
X8811144Y-8542645D01*
X8814291Y-8549299D01*
X8816771Y-8556229D01*
X8818559Y-8563368D01*
X8819639Y-8570649D01*
X8820000Y-8578000D01*
X8820000Y-8728000D01*
X8819639Y-8735351D01*
X8818559Y-8742632D01*
X8816771Y-8749771D01*
X8814291Y-8756701D01*
X8811144Y-8763355D01*
X8807360Y-8769668D01*
X8802976Y-8775579D01*
X8798033Y-8781033D01*
X8792579Y-8785976D01*
X8786668Y-8790360D01*
X8780355Y-8794144D01*
X8773701Y-8797291D01*
X8766771Y-8799771D01*
X8759632Y-8801559D01*
X8752351Y-8802639D01*
X8745000Y-8803000D01*
X7345000Y-8803000D01*
X7337649Y-8802639D01*
X7330368Y-8801559D01*
X7323229Y-8799771D01*
X7316299Y-8797291D01*
X7309645Y-8794144D01*
X7303332Y-8790360D01*
X7297421Y-8785976D01*
X7291967Y-8781033D01*
X7287024Y-8775579D01*
X7282640Y-8769668D01*
X7278856Y-8763355D01*
X7275709Y-8756701D01*
X7273229Y-8749771D01*
X7271441Y-8742632D01*
X7270361Y-8735351D01*
X7270000Y-8728000D01*
X7270000Y-8578000D01*
X7270361Y-8570649D01*
X7271441Y-8563368D01*
X7273229Y-8556229D01*
X7275709Y-8549299D01*
X7278856Y-8542645D01*
X7282640Y-8536332D01*
X7287024Y-8530421D01*
X7291967Y-8524967D01*
X7297421Y-8520024D01*
X7303332Y-8515640D01*
X7309645Y-8511856D01*
X7316299Y-8508709D01*
X7323229Y-8506229D01*
X7330368Y-8504441D01*
X7337649Y-8503361D01*
X7345000Y-8503000D01*
X8745000Y-8503000D01*
X8752351Y-8503361D01*
G37*
G04 #@! TD.AperFunction*
G04 #@! TA.AperFunction,SMDPad,CuDef*
G36*
X8752351Y-8003361D02*
G01*
X8759632Y-8004441D01*
X8766771Y-8006229D01*
X8773701Y-8008709D01*
X8780355Y-8011856D01*
X8786668Y-8015640D01*
X8792579Y-8020024D01*
X8798033Y-8024967D01*
X8802976Y-8030421D01*
X8807360Y-8036332D01*
X8811144Y-8042645D01*
X8814291Y-8049299D01*
X8816771Y-8056229D01*
X8818559Y-8063368D01*
X8819639Y-8070649D01*
X8820000Y-8078000D01*
X8820000Y-8228000D01*
X8819639Y-8235351D01*
X8818559Y-8242632D01*
X8816771Y-8249771D01*
X8814291Y-8256701D01*
X8811144Y-8263355D01*
X8807360Y-8269668D01*
X8802976Y-8275579D01*
X8798033Y-8281033D01*
X8792579Y-8285976D01*
X8786668Y-8290360D01*
X8780355Y-8294144D01*
X8773701Y-8297291D01*
X8766771Y-8299771D01*
X8759632Y-8301559D01*
X8752351Y-8302639D01*
X8745000Y-8303000D01*
X7345000Y-8303000D01*
X7337649Y-8302639D01*
X7330368Y-8301559D01*
X7323229Y-8299771D01*
X7316299Y-8297291D01*
X7309645Y-8294144D01*
X7303332Y-8290360D01*
X7297421Y-8285976D01*
X7291967Y-8281033D01*
X7287024Y-8275579D01*
X7282640Y-8269668D01*
X7278856Y-8263355D01*
X7275709Y-8256701D01*
X7273229Y-8249771D01*
X7271441Y-8242632D01*
X7270361Y-8235351D01*
X7270000Y-8228000D01*
X7270000Y-8078000D01*
X7270361Y-8070649D01*
X7271441Y-8063368D01*
X7273229Y-8056229D01*
X7275709Y-8049299D01*
X7278856Y-8042645D01*
X7282640Y-8036332D01*
X7287024Y-8030421D01*
X7291967Y-8024967D01*
X7297421Y-8020024D01*
X7303332Y-8015640D01*
X7309645Y-8011856D01*
X7316299Y-8008709D01*
X7323229Y-8006229D01*
X7330368Y-8004441D01*
X7337649Y-8003361D01*
X7345000Y-8003000D01*
X8745000Y-8003000D01*
X8752351Y-8003361D01*
G37*
G04 #@! TD.AperFunction*
G04 #@! TA.AperFunction,SMDPad,CuDef*
G36*
X8752351Y-7503361D02*
G01*
X8759632Y-7504441D01*
X8766771Y-7506229D01*
X8773701Y-7508709D01*
X8780355Y-7511856D01*
X8786668Y-7515640D01*
X8792579Y-7520024D01*
X8798033Y-7524967D01*
X8802976Y-7530421D01*
X8807360Y-7536332D01*
X8811144Y-7542645D01*
X8814291Y-7549299D01*
X8816771Y-7556229D01*
X8818559Y-7563368D01*
X8819639Y-7570649D01*
X8820000Y-7578000D01*
X8820000Y-7728000D01*
X8819639Y-7735351D01*
X8818559Y-7742632D01*
X8816771Y-7749771D01*
X8814291Y-7756701D01*
X8811144Y-7763355D01*
X8807360Y-7769668D01*
X8802976Y-7775579D01*
X8798033Y-7781033D01*
X8792579Y-7785976D01*
X8786668Y-7790360D01*
X8780355Y-7794144D01*
X8773701Y-7797291D01*
X8766771Y-7799771D01*
X8759632Y-7801559D01*
X8752351Y-7802639D01*
X8745000Y-7803000D01*
X7345000Y-7803000D01*
X7337649Y-7802639D01*
X7330368Y-7801559D01*
X7323229Y-7799771D01*
X7316299Y-7797291D01*
X7309645Y-7794144D01*
X7303332Y-7790360D01*
X7297421Y-7785976D01*
X7291967Y-7781033D01*
X7287024Y-7775579D01*
X7282640Y-7769668D01*
X7278856Y-7763355D01*
X7275709Y-7756701D01*
X7273229Y-7749771D01*
X7271441Y-7742632D01*
X7270361Y-7735351D01*
X7270000Y-7728000D01*
X7270000Y-7578000D01*
X7270361Y-7570649D01*
X7271441Y-7563368D01*
X7273229Y-7556229D01*
X7275709Y-7549299D01*
X7278856Y-7542645D01*
X7282640Y-7536332D01*
X7287024Y-7530421D01*
X7291967Y-7524967D01*
X7297421Y-7520024D01*
X7303332Y-7515640D01*
X7309645Y-7511856D01*
X7316299Y-7508709D01*
X7323229Y-7506229D01*
X7330368Y-7504441D01*
X7337649Y-7503361D01*
X7345000Y-7503000D01*
X8745000Y-7503000D01*
X8752351Y-7503361D01*
G37*
G04 #@! TD.AperFunction*
G04 #@! TA.AperFunction,SMDPad,CuDef*
G36*
X8752351Y-7003361D02*
G01*
X8759632Y-7004441D01*
X8766771Y-7006229D01*
X8773701Y-7008709D01*
X8780355Y-7011856D01*
X8786668Y-7015640D01*
X8792579Y-7020024D01*
X8798033Y-7024967D01*
X8802976Y-7030421D01*
X8807360Y-7036332D01*
X8811144Y-7042645D01*
X8814291Y-7049299D01*
X8816771Y-7056229D01*
X8818559Y-7063368D01*
X8819639Y-7070649D01*
X8820000Y-7078000D01*
X8820000Y-7228000D01*
X8819639Y-7235351D01*
X8818559Y-7242632D01*
X8816771Y-7249771D01*
X8814291Y-7256701D01*
X8811144Y-7263355D01*
X8807360Y-7269668D01*
X8802976Y-7275579D01*
X8798033Y-7281033D01*
X8792579Y-7285976D01*
X8786668Y-7290360D01*
X8780355Y-7294144D01*
X8773701Y-7297291D01*
X8766771Y-7299771D01*
X8759632Y-7301559D01*
X8752351Y-7302639D01*
X8745000Y-7303000D01*
X7345000Y-7303000D01*
X7337649Y-7302639D01*
X7330368Y-7301559D01*
X7323229Y-7299771D01*
X7316299Y-7297291D01*
X7309645Y-7294144D01*
X7303332Y-7290360D01*
X7297421Y-7285976D01*
X7291967Y-7281033D01*
X7287024Y-7275579D01*
X7282640Y-7269668D01*
X7278856Y-7263355D01*
X7275709Y-7256701D01*
X7273229Y-7249771D01*
X7271441Y-7242632D01*
X7270361Y-7235351D01*
X7270000Y-7228000D01*
X7270000Y-7078000D01*
X7270361Y-7070649D01*
X7271441Y-7063368D01*
X7273229Y-7056229D01*
X7275709Y-7049299D01*
X7278856Y-7042645D01*
X7282640Y-7036332D01*
X7287024Y-7030421D01*
X7291967Y-7024967D01*
X7297421Y-7020024D01*
X7303332Y-7015640D01*
X7309645Y-7011856D01*
X7316299Y-7008709D01*
X7323229Y-7006229D01*
X7330368Y-7004441D01*
X7337649Y-7003361D01*
X7345000Y-7003000D01*
X8745000Y-7003000D01*
X8752351Y-7003361D01*
G37*
G04 #@! TD.AperFunction*
G04 #@! TA.AperFunction,SMDPad,CuDef*
G36*
X8752351Y-6503361D02*
G01*
X8759632Y-6504441D01*
X8766771Y-6506229D01*
X8773701Y-6508709D01*
X8780355Y-6511856D01*
X8786668Y-6515640D01*
X8792579Y-6520024D01*
X8798033Y-6524967D01*
X8802976Y-6530421D01*
X8807360Y-6536332D01*
X8811144Y-6542645D01*
X8814291Y-6549299D01*
X8816771Y-6556229D01*
X8818559Y-6563368D01*
X8819639Y-6570649D01*
X8820000Y-6578000D01*
X8820000Y-6728000D01*
X8819639Y-6735351D01*
X8818559Y-6742632D01*
X8816771Y-6749771D01*
X8814291Y-6756701D01*
X8811144Y-6763355D01*
X8807360Y-6769668D01*
X8802976Y-6775579D01*
X8798033Y-6781033D01*
X8792579Y-6785976D01*
X8786668Y-6790360D01*
X8780355Y-6794144D01*
X8773701Y-6797291D01*
X8766771Y-6799771D01*
X8759632Y-6801559D01*
X8752351Y-6802639D01*
X8745000Y-6803000D01*
X7345000Y-6803000D01*
X7337649Y-6802639D01*
X7330368Y-6801559D01*
X7323229Y-6799771D01*
X7316299Y-6797291D01*
X7309645Y-6794144D01*
X7303332Y-6790360D01*
X7297421Y-6785976D01*
X7291967Y-6781033D01*
X7287024Y-6775579D01*
X7282640Y-6769668D01*
X7278856Y-6763355D01*
X7275709Y-6756701D01*
X7273229Y-6749771D01*
X7271441Y-6742632D01*
X7270361Y-6735351D01*
X7270000Y-6728000D01*
X7270000Y-6578000D01*
X7270361Y-6570649D01*
X7271441Y-6563368D01*
X7273229Y-6556229D01*
X7275709Y-6549299D01*
X7278856Y-6542645D01*
X7282640Y-6536332D01*
X7287024Y-6530421D01*
X7291967Y-6524967D01*
X7297421Y-6520024D01*
X7303332Y-6515640D01*
X7309645Y-6511856D01*
X7316299Y-6508709D01*
X7323229Y-6506229D01*
X7330368Y-6504441D01*
X7337649Y-6503361D01*
X7345000Y-6503000D01*
X8745000Y-6503000D01*
X8752351Y-6503361D01*
G37*
G04 #@! TD.AperFunction*
G04 #@! TA.AperFunction,SMDPad,CuDef*
G36*
X8752351Y-6003361D02*
G01*
X8759632Y-6004441D01*
X8766771Y-6006229D01*
X8773701Y-6008709D01*
X8780355Y-6011856D01*
X8786668Y-6015640D01*
X8792579Y-6020024D01*
X8798033Y-6024967D01*
X8802976Y-6030421D01*
X8807360Y-6036332D01*
X8811144Y-6042645D01*
X8814291Y-6049299D01*
X8816771Y-6056229D01*
X8818559Y-6063368D01*
X8819639Y-6070649D01*
X8820000Y-6078000D01*
X8820000Y-6228000D01*
X8819639Y-6235351D01*
X8818559Y-6242632D01*
X8816771Y-6249771D01*
X8814291Y-6256701D01*
X8811144Y-6263355D01*
X8807360Y-6269668D01*
X8802976Y-6275579D01*
X8798033Y-6281033D01*
X8792579Y-6285976D01*
X8786668Y-6290360D01*
X8780355Y-6294144D01*
X8773701Y-6297291D01*
X8766771Y-6299771D01*
X8759632Y-6301559D01*
X8752351Y-6302639D01*
X8745000Y-6303000D01*
X7345000Y-6303000D01*
X7337649Y-6302639D01*
X7330368Y-6301559D01*
X7323229Y-6299771D01*
X7316299Y-6297291D01*
X7309645Y-6294144D01*
X7303332Y-6290360D01*
X7297421Y-6285976D01*
X7291967Y-6281033D01*
X7287024Y-6275579D01*
X7282640Y-6269668D01*
X7278856Y-6263355D01*
X7275709Y-6256701D01*
X7273229Y-6249771D01*
X7271441Y-6242632D01*
X7270361Y-6235351D01*
X7270000Y-6228000D01*
X7270000Y-6078000D01*
X7270361Y-6070649D01*
X7271441Y-6063368D01*
X7273229Y-6056229D01*
X7275709Y-6049299D01*
X7278856Y-6042645D01*
X7282640Y-6036332D01*
X7287024Y-6030421D01*
X7291967Y-6024967D01*
X7297421Y-6020024D01*
X7303332Y-6015640D01*
X7309645Y-6011856D01*
X7316299Y-6008709D01*
X7323229Y-6006229D01*
X7330368Y-6004441D01*
X7337649Y-6003361D01*
X7345000Y-6003000D01*
X8745000Y-6003000D01*
X8752351Y-6003361D01*
G37*
G04 #@! TD.AperFunction*
G04 #@! TA.AperFunction,SMDPad,CuDef*
G36*
X8752351Y-5503361D02*
G01*
X8759632Y-5504441D01*
X8766771Y-5506229D01*
X8773701Y-5508709D01*
X8780355Y-5511856D01*
X8786668Y-5515640D01*
X8792579Y-5520024D01*
X8798033Y-5524967D01*
X8802976Y-5530421D01*
X8807360Y-5536332D01*
X8811144Y-5542645D01*
X8814291Y-5549299D01*
X8816771Y-5556229D01*
X8818559Y-5563368D01*
X8819639Y-5570649D01*
X8820000Y-5578000D01*
X8820000Y-5728000D01*
X8819639Y-5735351D01*
X8818559Y-5742632D01*
X8816771Y-5749771D01*
X8814291Y-5756701D01*
X8811144Y-5763355D01*
X8807360Y-5769668D01*
X8802976Y-5775579D01*
X8798033Y-5781033D01*
X8792579Y-5785976D01*
X8786668Y-5790360D01*
X8780355Y-5794144D01*
X8773701Y-5797291D01*
X8766771Y-5799771D01*
X8759632Y-5801559D01*
X8752351Y-5802639D01*
X8745000Y-5803000D01*
X7345000Y-5803000D01*
X7337649Y-5802639D01*
X7330368Y-5801559D01*
X7323229Y-5799771D01*
X7316299Y-5797291D01*
X7309645Y-5794144D01*
X7303332Y-5790360D01*
X7297421Y-5785976D01*
X7291967Y-5781033D01*
X7287024Y-5775579D01*
X7282640Y-5769668D01*
X7278856Y-5763355D01*
X7275709Y-5756701D01*
X7273229Y-5749771D01*
X7271441Y-5742632D01*
X7270361Y-5735351D01*
X7270000Y-5728000D01*
X7270000Y-5578000D01*
X7270361Y-5570649D01*
X7271441Y-5563368D01*
X7273229Y-5556229D01*
X7275709Y-5549299D01*
X7278856Y-5542645D01*
X7282640Y-5536332D01*
X7287024Y-5530421D01*
X7291967Y-5524967D01*
X7297421Y-5520024D01*
X7303332Y-5515640D01*
X7309645Y-5511856D01*
X7316299Y-5508709D01*
X7323229Y-5506229D01*
X7330368Y-5504441D01*
X7337649Y-5503361D01*
X7345000Y-5503000D01*
X8745000Y-5503000D01*
X8752351Y-5503361D01*
G37*
G04 #@! TD.AperFunction*
G04 #@! TA.AperFunction,SMDPad,CuDef*
G36*
X8752351Y-5003361D02*
G01*
X8759632Y-5004441D01*
X8766771Y-5006229D01*
X8773701Y-5008709D01*
X8780355Y-5011856D01*
X8786668Y-5015640D01*
X8792579Y-5020024D01*
X8798033Y-5024967D01*
X8802976Y-5030421D01*
X8807360Y-5036332D01*
X8811144Y-5042645D01*
X8814291Y-5049299D01*
X8816771Y-5056229D01*
X8818559Y-5063368D01*
X8819639Y-5070649D01*
X8820000Y-5078000D01*
X8820000Y-5228000D01*
X8819639Y-5235351D01*
X8818559Y-5242632D01*
X8816771Y-5249771D01*
X8814291Y-5256701D01*
X8811144Y-5263355D01*
X8807360Y-5269668D01*
X8802976Y-5275579D01*
X8798033Y-5281033D01*
X8792579Y-5285976D01*
X8786668Y-5290360D01*
X8780355Y-5294144D01*
X8773701Y-5297291D01*
X8766771Y-5299771D01*
X8759632Y-5301559D01*
X8752351Y-5302639D01*
X8745000Y-5303000D01*
X7345000Y-5303000D01*
X7337649Y-5302639D01*
X7330368Y-5301559D01*
X7323229Y-5299771D01*
X7316299Y-5297291D01*
X7309645Y-5294144D01*
X7303332Y-5290360D01*
X7297421Y-5285976D01*
X7291967Y-5281033D01*
X7287024Y-5275579D01*
X7282640Y-5269668D01*
X7278856Y-5263355D01*
X7275709Y-5256701D01*
X7273229Y-5249771D01*
X7271441Y-5242632D01*
X7270361Y-5235351D01*
X7270000Y-5228000D01*
X7270000Y-5078000D01*
X7270361Y-5070649D01*
X7271441Y-5063368D01*
X7273229Y-5056229D01*
X7275709Y-5049299D01*
X7278856Y-5042645D01*
X7282640Y-5036332D01*
X7287024Y-5030421D01*
X7291967Y-5024967D01*
X7297421Y-5020024D01*
X7303332Y-5015640D01*
X7309645Y-5011856D01*
X7316299Y-5008709D01*
X7323229Y-5006229D01*
X7330368Y-5004441D01*
X7337649Y-5003361D01*
X7345000Y-5003000D01*
X8745000Y-5003000D01*
X8752351Y-5003361D01*
G37*
G04 #@! TD.AperFunction*
G04 #@! TA.AperFunction,SMDPad,CuDef*
G36*
X8752351Y-4503361D02*
G01*
X8759632Y-4504441D01*
X8766771Y-4506229D01*
X8773701Y-4508709D01*
X8780355Y-4511856D01*
X8786668Y-4515640D01*
X8792579Y-4520024D01*
X8798033Y-4524967D01*
X8802976Y-4530421D01*
X8807360Y-4536332D01*
X8811144Y-4542645D01*
X8814291Y-4549299D01*
X8816771Y-4556229D01*
X8818559Y-4563368D01*
X8819639Y-4570649D01*
X8820000Y-4578000D01*
X8820000Y-4728000D01*
X8819639Y-4735351D01*
X8818559Y-4742632D01*
X8816771Y-4749771D01*
X8814291Y-4756701D01*
X8811144Y-4763355D01*
X8807360Y-4769668D01*
X8802976Y-4775579D01*
X8798033Y-4781033D01*
X8792579Y-4785976D01*
X8786668Y-4790360D01*
X8780355Y-4794144D01*
X8773701Y-4797291D01*
X8766771Y-4799771D01*
X8759632Y-4801559D01*
X8752351Y-4802639D01*
X8745000Y-4803000D01*
X7345000Y-4803000D01*
X7337649Y-4802639D01*
X7330368Y-4801559D01*
X7323229Y-4799771D01*
X7316299Y-4797291D01*
X7309645Y-4794144D01*
X7303332Y-4790360D01*
X7297421Y-4785976D01*
X7291967Y-4781033D01*
X7287024Y-4775579D01*
X7282640Y-4769668D01*
X7278856Y-4763355D01*
X7275709Y-4756701D01*
X7273229Y-4749771D01*
X7271441Y-4742632D01*
X7270361Y-4735351D01*
X7270000Y-4728000D01*
X7270000Y-4578000D01*
X7270361Y-4570649D01*
X7271441Y-4563368D01*
X7273229Y-4556229D01*
X7275709Y-4549299D01*
X7278856Y-4542645D01*
X7282640Y-4536332D01*
X7287024Y-4530421D01*
X7291967Y-4524967D01*
X7297421Y-4520024D01*
X7303332Y-4515640D01*
X7309645Y-4511856D01*
X7316299Y-4508709D01*
X7323229Y-4506229D01*
X7330368Y-4504441D01*
X7337649Y-4503361D01*
X7345000Y-4503000D01*
X8745000Y-4503000D01*
X8752351Y-4503361D01*
G37*
G04 #@! TD.AperFunction*
G04 #@! TA.AperFunction,SMDPad,CuDef*
G36*
X8752351Y-4003361D02*
G01*
X8759632Y-4004441D01*
X8766771Y-4006229D01*
X8773701Y-4008709D01*
X8780355Y-4011856D01*
X8786668Y-4015640D01*
X8792579Y-4020024D01*
X8798033Y-4024967D01*
X8802976Y-4030421D01*
X8807360Y-4036332D01*
X8811144Y-4042645D01*
X8814291Y-4049299D01*
X8816771Y-4056229D01*
X8818559Y-4063368D01*
X8819639Y-4070649D01*
X8820000Y-4078000D01*
X8820000Y-4228000D01*
X8819639Y-4235351D01*
X8818559Y-4242632D01*
X8816771Y-4249771D01*
X8814291Y-4256701D01*
X8811144Y-4263355D01*
X8807360Y-4269668D01*
X8802976Y-4275579D01*
X8798033Y-4281033D01*
X8792579Y-4285976D01*
X8786668Y-4290360D01*
X8780355Y-4294144D01*
X8773701Y-4297291D01*
X8766771Y-4299771D01*
X8759632Y-4301559D01*
X8752351Y-4302639D01*
X8745000Y-4303000D01*
X7345000Y-4303000D01*
X7337649Y-4302639D01*
X7330368Y-4301559D01*
X7323229Y-4299771D01*
X7316299Y-4297291D01*
X7309645Y-4294144D01*
X7303332Y-4290360D01*
X7297421Y-4285976D01*
X7291967Y-4281033D01*
X7287024Y-4275579D01*
X7282640Y-4269668D01*
X7278856Y-4263355D01*
X7275709Y-4256701D01*
X7273229Y-4249771D01*
X7271441Y-4242632D01*
X7270361Y-4235351D01*
X7270000Y-4228000D01*
X7270000Y-4078000D01*
X7270361Y-4070649D01*
X7271441Y-4063368D01*
X7273229Y-4056229D01*
X7275709Y-4049299D01*
X7278856Y-4042645D01*
X7282640Y-4036332D01*
X7287024Y-4030421D01*
X7291967Y-4024967D01*
X7297421Y-4020024D01*
X7303332Y-4015640D01*
X7309645Y-4011856D01*
X7316299Y-4008709D01*
X7323229Y-4006229D01*
X7330368Y-4004441D01*
X7337649Y-4003361D01*
X7345000Y-4003000D01*
X8745000Y-4003000D01*
X8752351Y-4003361D01*
G37*
G04 #@! TD.AperFunction*
G04 #@! TA.AperFunction,SMDPad,CuDef*
G36*
X8752351Y-3503361D02*
G01*
X8759632Y-3504441D01*
X8766771Y-3506229D01*
X8773701Y-3508709D01*
X8780355Y-3511856D01*
X8786668Y-3515640D01*
X8792579Y-3520024D01*
X8798033Y-3524967D01*
X8802976Y-3530421D01*
X8807360Y-3536332D01*
X8811144Y-3542645D01*
X8814291Y-3549299D01*
X8816771Y-3556229D01*
X8818559Y-3563368D01*
X8819639Y-3570649D01*
X8820000Y-3578000D01*
X8820000Y-3728000D01*
X8819639Y-3735351D01*
X8818559Y-3742632D01*
X8816771Y-3749771D01*
X8814291Y-3756701D01*
X8811144Y-3763355D01*
X8807360Y-3769668D01*
X8802976Y-3775579D01*
X8798033Y-3781033D01*
X8792579Y-3785976D01*
X8786668Y-3790360D01*
X8780355Y-3794144D01*
X8773701Y-3797291D01*
X8766771Y-3799771D01*
X8759632Y-3801559D01*
X8752351Y-3802639D01*
X8745000Y-3803000D01*
X7345000Y-3803000D01*
X7337649Y-3802639D01*
X7330368Y-3801559D01*
X7323229Y-3799771D01*
X7316299Y-3797291D01*
X7309645Y-3794144D01*
X7303332Y-3790360D01*
X7297421Y-3785976D01*
X7291967Y-3781033D01*
X7287024Y-3775579D01*
X7282640Y-3769668D01*
X7278856Y-3763355D01*
X7275709Y-3756701D01*
X7273229Y-3749771D01*
X7271441Y-3742632D01*
X7270361Y-3735351D01*
X7270000Y-3728000D01*
X7270000Y-3578000D01*
X7270361Y-3570649D01*
X7271441Y-3563368D01*
X7273229Y-3556229D01*
X7275709Y-3549299D01*
X7278856Y-3542645D01*
X7282640Y-3536332D01*
X7287024Y-3530421D01*
X7291967Y-3524967D01*
X7297421Y-3520024D01*
X7303332Y-3515640D01*
X7309645Y-3511856D01*
X7316299Y-3508709D01*
X7323229Y-3506229D01*
X7330368Y-3504441D01*
X7337649Y-3503361D01*
X7345000Y-3503000D01*
X8745000Y-3503000D01*
X8752351Y-3503361D01*
G37*
G04 #@! TD.AperFunction*
G04 #@! TA.AperFunction,SMDPad,CuDef*
G36*
X10052351Y-953361D02*
G01*
X10059632Y-954441D01*
X10066771Y-956229D01*
X10073701Y-958709D01*
X10080355Y-961856D01*
X10086668Y-965640D01*
X10092579Y-970024D01*
X10098033Y-974967D01*
X10102976Y-980421D01*
X10107360Y-986332D01*
X10111144Y-992645D01*
X10114291Y-999299D01*
X10116771Y-1006229D01*
X10118559Y-1013368D01*
X10119639Y-1020649D01*
X10120000Y-1028000D01*
X10120000Y-2428000D01*
X10119639Y-2435351D01*
X10118559Y-2442632D01*
X10116771Y-2449771D01*
X10114291Y-2456701D01*
X10111144Y-2463355D01*
X10107360Y-2469668D01*
X10102976Y-2475579D01*
X10098033Y-2481033D01*
X10092579Y-2485976D01*
X10086668Y-2490360D01*
X10080355Y-2494144D01*
X10073701Y-2497291D01*
X10066771Y-2499771D01*
X10059632Y-2501559D01*
X10052351Y-2502639D01*
X10045000Y-2503000D01*
X9895000Y-2503000D01*
X9887649Y-2502639D01*
X9880368Y-2501559D01*
X9873229Y-2499771D01*
X9866299Y-2497291D01*
X9859645Y-2494144D01*
X9853332Y-2490360D01*
X9847421Y-2485976D01*
X9841967Y-2481033D01*
X9837024Y-2475579D01*
X9832640Y-2469668D01*
X9828856Y-2463355D01*
X9825709Y-2456701D01*
X9823229Y-2449771D01*
X9821441Y-2442632D01*
X9820361Y-2435351D01*
X9820000Y-2428000D01*
X9820000Y-1028000D01*
X9820361Y-1020649D01*
X9821441Y-1013368D01*
X9823229Y-1006229D01*
X9825709Y-999299D01*
X9828856Y-992645D01*
X9832640Y-986332D01*
X9837024Y-980421D01*
X9841967Y-974967D01*
X9847421Y-970024D01*
X9853332Y-965640D01*
X9859645Y-961856D01*
X9866299Y-958709D01*
X9873229Y-956229D01*
X9880368Y-954441D01*
X9887649Y-953361D01*
X9895000Y-953000D01*
X10045000Y-953000D01*
X10052351Y-953361D01*
G37*
G04 #@! TD.AperFunction*
G04 #@! TA.AperFunction,SMDPad,CuDef*
G36*
X10552351Y-953361D02*
G01*
X10559632Y-954441D01*
X10566771Y-956229D01*
X10573701Y-958709D01*
X10580355Y-961856D01*
X10586668Y-965640D01*
X10592579Y-970024D01*
X10598033Y-974967D01*
X10602976Y-980421D01*
X10607360Y-986332D01*
X10611144Y-992645D01*
X10614291Y-999299D01*
X10616771Y-1006229D01*
X10618559Y-1013368D01*
X10619639Y-1020649D01*
X10620000Y-1028000D01*
X10620000Y-2428000D01*
X10619639Y-2435351D01*
X10618559Y-2442632D01*
X10616771Y-2449771D01*
X10614291Y-2456701D01*
X10611144Y-2463355D01*
X10607360Y-2469668D01*
X10602976Y-2475579D01*
X10598033Y-2481033D01*
X10592579Y-2485976D01*
X10586668Y-2490360D01*
X10580355Y-2494144D01*
X10573701Y-2497291D01*
X10566771Y-2499771D01*
X10559632Y-2501559D01*
X10552351Y-2502639D01*
X10545000Y-2503000D01*
X10395000Y-2503000D01*
X10387649Y-2502639D01*
X10380368Y-2501559D01*
X10373229Y-2499771D01*
X10366299Y-2497291D01*
X10359645Y-2494144D01*
X10353332Y-2490360D01*
X10347421Y-2485976D01*
X10341967Y-2481033D01*
X10337024Y-2475579D01*
X10332640Y-2469668D01*
X10328856Y-2463355D01*
X10325709Y-2456701D01*
X10323229Y-2449771D01*
X10321441Y-2442632D01*
X10320361Y-2435351D01*
X10320000Y-2428000D01*
X10320000Y-1028000D01*
X10320361Y-1020649D01*
X10321441Y-1013368D01*
X10323229Y-1006229D01*
X10325709Y-999299D01*
X10328856Y-992645D01*
X10332640Y-986332D01*
X10337024Y-980421D01*
X10341967Y-974967D01*
X10347421Y-970024D01*
X10353332Y-965640D01*
X10359645Y-961856D01*
X10366299Y-958709D01*
X10373229Y-956229D01*
X10380368Y-954441D01*
X10387649Y-953361D01*
X10395000Y-953000D01*
X10545000Y-953000D01*
X10552351Y-953361D01*
G37*
G04 #@! TD.AperFunction*
G04 #@! TA.AperFunction,SMDPad,CuDef*
G36*
X11052351Y-953361D02*
G01*
X11059632Y-954441D01*
X11066771Y-956229D01*
X11073701Y-958709D01*
X11080355Y-961856D01*
X11086668Y-965640D01*
X11092579Y-970024D01*
X11098033Y-974967D01*
X11102976Y-980421D01*
X11107360Y-986332D01*
X11111144Y-992645D01*
X11114291Y-999299D01*
X11116771Y-1006229D01*
X11118559Y-1013368D01*
X11119639Y-1020649D01*
X11120000Y-1028000D01*
X11120000Y-2428000D01*
X11119639Y-2435351D01*
X11118559Y-2442632D01*
X11116771Y-2449771D01*
X11114291Y-2456701D01*
X11111144Y-2463355D01*
X11107360Y-2469668D01*
X11102976Y-2475579D01*
X11098033Y-2481033D01*
X11092579Y-2485976D01*
X11086668Y-2490360D01*
X11080355Y-2494144D01*
X11073701Y-2497291D01*
X11066771Y-2499771D01*
X11059632Y-2501559D01*
X11052351Y-2502639D01*
X11045000Y-2503000D01*
X10895000Y-2503000D01*
X10887649Y-2502639D01*
X10880368Y-2501559D01*
X10873229Y-2499771D01*
X10866299Y-2497291D01*
X10859645Y-2494144D01*
X10853332Y-2490360D01*
X10847421Y-2485976D01*
X10841967Y-2481033D01*
X10837024Y-2475579D01*
X10832640Y-2469668D01*
X10828856Y-2463355D01*
X10825709Y-2456701D01*
X10823229Y-2449771D01*
X10821441Y-2442632D01*
X10820361Y-2435351D01*
X10820000Y-2428000D01*
X10820000Y-1028000D01*
X10820361Y-1020649D01*
X10821441Y-1013368D01*
X10823229Y-1006229D01*
X10825709Y-999299D01*
X10828856Y-992645D01*
X10832640Y-986332D01*
X10837024Y-980421D01*
X10841967Y-974967D01*
X10847421Y-970024D01*
X10853332Y-965640D01*
X10859645Y-961856D01*
X10866299Y-958709D01*
X10873229Y-956229D01*
X10880368Y-954441D01*
X10887649Y-953361D01*
X10895000Y-953000D01*
X11045000Y-953000D01*
X11052351Y-953361D01*
G37*
G04 #@! TD.AperFunction*
G04 #@! TA.AperFunction,SMDPad,CuDef*
G36*
X11552351Y-953361D02*
G01*
X11559632Y-954441D01*
X11566771Y-956229D01*
X11573701Y-958709D01*
X11580355Y-961856D01*
X11586668Y-965640D01*
X11592579Y-970024D01*
X11598033Y-974967D01*
X11602976Y-980421D01*
X11607360Y-986332D01*
X11611144Y-992645D01*
X11614291Y-999299D01*
X11616771Y-1006229D01*
X11618559Y-1013368D01*
X11619639Y-1020649D01*
X11620000Y-1028000D01*
X11620000Y-2428000D01*
X11619639Y-2435351D01*
X11618559Y-2442632D01*
X11616771Y-2449771D01*
X11614291Y-2456701D01*
X11611144Y-2463355D01*
X11607360Y-2469668D01*
X11602976Y-2475579D01*
X11598033Y-2481033D01*
X11592579Y-2485976D01*
X11586668Y-2490360D01*
X11580355Y-2494144D01*
X11573701Y-2497291D01*
X11566771Y-2499771D01*
X11559632Y-2501559D01*
X11552351Y-2502639D01*
X11545000Y-2503000D01*
X11395000Y-2503000D01*
X11387649Y-2502639D01*
X11380368Y-2501559D01*
X11373229Y-2499771D01*
X11366299Y-2497291D01*
X11359645Y-2494144D01*
X11353332Y-2490360D01*
X11347421Y-2485976D01*
X11341967Y-2481033D01*
X11337024Y-2475579D01*
X11332640Y-2469668D01*
X11328856Y-2463355D01*
X11325709Y-2456701D01*
X11323229Y-2449771D01*
X11321441Y-2442632D01*
X11320361Y-2435351D01*
X11320000Y-2428000D01*
X11320000Y-1028000D01*
X11320361Y-1020649D01*
X11321441Y-1013368D01*
X11323229Y-1006229D01*
X11325709Y-999299D01*
X11328856Y-992645D01*
X11332640Y-986332D01*
X11337024Y-980421D01*
X11341967Y-974967D01*
X11347421Y-970024D01*
X11353332Y-965640D01*
X11359645Y-961856D01*
X11366299Y-958709D01*
X11373229Y-956229D01*
X11380368Y-954441D01*
X11387649Y-953361D01*
X11395000Y-953000D01*
X11545000Y-953000D01*
X11552351Y-953361D01*
G37*
G04 #@! TD.AperFunction*
G04 #@! TA.AperFunction,SMDPad,CuDef*
G36*
X12052351Y-953361D02*
G01*
X12059632Y-954441D01*
X12066771Y-956229D01*
X12073701Y-958709D01*
X12080355Y-961856D01*
X12086668Y-965640D01*
X12092579Y-970024D01*
X12098033Y-974967D01*
X12102976Y-980421D01*
X12107360Y-986332D01*
X12111144Y-992645D01*
X12114291Y-999299D01*
X12116771Y-1006229D01*
X12118559Y-1013368D01*
X12119639Y-1020649D01*
X12120000Y-1028000D01*
X12120000Y-2428000D01*
X12119639Y-2435351D01*
X12118559Y-2442632D01*
X12116771Y-2449771D01*
X12114291Y-2456701D01*
X12111144Y-2463355D01*
X12107360Y-2469668D01*
X12102976Y-2475579D01*
X12098033Y-2481033D01*
X12092579Y-2485976D01*
X12086668Y-2490360D01*
X12080355Y-2494144D01*
X12073701Y-2497291D01*
X12066771Y-2499771D01*
X12059632Y-2501559D01*
X12052351Y-2502639D01*
X12045000Y-2503000D01*
X11895000Y-2503000D01*
X11887649Y-2502639D01*
X11880368Y-2501559D01*
X11873229Y-2499771D01*
X11866299Y-2497291D01*
X11859645Y-2494144D01*
X11853332Y-2490360D01*
X11847421Y-2485976D01*
X11841967Y-2481033D01*
X11837024Y-2475579D01*
X11832640Y-2469668D01*
X11828856Y-2463355D01*
X11825709Y-2456701D01*
X11823229Y-2449771D01*
X11821441Y-2442632D01*
X11820361Y-2435351D01*
X11820000Y-2428000D01*
X11820000Y-1028000D01*
X11820361Y-1020649D01*
X11821441Y-1013368D01*
X11823229Y-1006229D01*
X11825709Y-999299D01*
X11828856Y-992645D01*
X11832640Y-986332D01*
X11837024Y-980421D01*
X11841967Y-974967D01*
X11847421Y-970024D01*
X11853332Y-965640D01*
X11859645Y-961856D01*
X11866299Y-958709D01*
X11873229Y-956229D01*
X11880368Y-954441D01*
X11887649Y-953361D01*
X11895000Y-953000D01*
X12045000Y-953000D01*
X12052351Y-953361D01*
G37*
G04 #@! TD.AperFunction*
G04 #@! TA.AperFunction,SMDPad,CuDef*
G36*
X12552351Y-953361D02*
G01*
X12559632Y-954441D01*
X12566771Y-956229D01*
X12573701Y-958709D01*
X12580355Y-961856D01*
X12586668Y-965640D01*
X12592579Y-970024D01*
X12598033Y-974967D01*
X12602976Y-980421D01*
X12607360Y-986332D01*
X12611144Y-992645D01*
X12614291Y-999299D01*
X12616771Y-1006229D01*
X12618559Y-1013368D01*
X12619639Y-1020649D01*
X12620000Y-1028000D01*
X12620000Y-2428000D01*
X12619639Y-2435351D01*
X12618559Y-2442632D01*
X12616771Y-2449771D01*
X12614291Y-2456701D01*
X12611144Y-2463355D01*
X12607360Y-2469668D01*
X12602976Y-2475579D01*
X12598033Y-2481033D01*
X12592579Y-2485976D01*
X12586668Y-2490360D01*
X12580355Y-2494144D01*
X12573701Y-2497291D01*
X12566771Y-2499771D01*
X12559632Y-2501559D01*
X12552351Y-2502639D01*
X12545000Y-2503000D01*
X12395000Y-2503000D01*
X12387649Y-2502639D01*
X12380368Y-2501559D01*
X12373229Y-2499771D01*
X12366299Y-2497291D01*
X12359645Y-2494144D01*
X12353332Y-2490360D01*
X12347421Y-2485976D01*
X12341967Y-2481033D01*
X12337024Y-2475579D01*
X12332640Y-2469668D01*
X12328856Y-2463355D01*
X12325709Y-2456701D01*
X12323229Y-2449771D01*
X12321441Y-2442632D01*
X12320361Y-2435351D01*
X12320000Y-2428000D01*
X12320000Y-1028000D01*
X12320361Y-1020649D01*
X12321441Y-1013368D01*
X12323229Y-1006229D01*
X12325709Y-999299D01*
X12328856Y-992645D01*
X12332640Y-986332D01*
X12337024Y-980421D01*
X12341967Y-974967D01*
X12347421Y-970024D01*
X12353332Y-965640D01*
X12359645Y-961856D01*
X12366299Y-958709D01*
X12373229Y-956229D01*
X12380368Y-954441D01*
X12387649Y-953361D01*
X12395000Y-953000D01*
X12545000Y-953000D01*
X12552351Y-953361D01*
G37*
G04 #@! TD.AperFunction*
G04 #@! TA.AperFunction,SMDPad,CuDef*
G36*
X13052351Y-953361D02*
G01*
X13059632Y-954441D01*
X13066771Y-956229D01*
X13073701Y-958709D01*
X13080355Y-961856D01*
X13086668Y-965640D01*
X13092579Y-970024D01*
X13098033Y-974967D01*
X13102976Y-980421D01*
X13107360Y-986332D01*
X13111144Y-992645D01*
X13114291Y-999299D01*
X13116771Y-1006229D01*
X13118559Y-1013368D01*
X13119639Y-1020649D01*
X13120000Y-1028000D01*
X13120000Y-2428000D01*
X13119639Y-2435351D01*
X13118559Y-2442632D01*
X13116771Y-2449771D01*
X13114291Y-2456701D01*
X13111144Y-2463355D01*
X13107360Y-2469668D01*
X13102976Y-2475579D01*
X13098033Y-2481033D01*
X13092579Y-2485976D01*
X13086668Y-2490360D01*
X13080355Y-2494144D01*
X13073701Y-2497291D01*
X13066771Y-2499771D01*
X13059632Y-2501559D01*
X13052351Y-2502639D01*
X13045000Y-2503000D01*
X12895000Y-2503000D01*
X12887649Y-2502639D01*
X12880368Y-2501559D01*
X12873229Y-2499771D01*
X12866299Y-2497291D01*
X12859645Y-2494144D01*
X12853332Y-2490360D01*
X12847421Y-2485976D01*
X12841967Y-2481033D01*
X12837024Y-2475579D01*
X12832640Y-2469668D01*
X12828856Y-2463355D01*
X12825709Y-2456701D01*
X12823229Y-2449771D01*
X12821441Y-2442632D01*
X12820361Y-2435351D01*
X12820000Y-2428000D01*
X12820000Y-1028000D01*
X12820361Y-1020649D01*
X12821441Y-1013368D01*
X12823229Y-1006229D01*
X12825709Y-999299D01*
X12828856Y-992645D01*
X12832640Y-986332D01*
X12837024Y-980421D01*
X12841967Y-974967D01*
X12847421Y-970024D01*
X12853332Y-965640D01*
X12859645Y-961856D01*
X12866299Y-958709D01*
X12873229Y-956229D01*
X12880368Y-954441D01*
X12887649Y-953361D01*
X12895000Y-953000D01*
X13045000Y-953000D01*
X13052351Y-953361D01*
G37*
G04 #@! TD.AperFunction*
G04 #@! TA.AperFunction,SMDPad,CuDef*
G36*
X13552351Y-953361D02*
G01*
X13559632Y-954441D01*
X13566771Y-956229D01*
X13573701Y-958709D01*
X13580355Y-961856D01*
X13586668Y-965640D01*
X13592579Y-970024D01*
X13598033Y-974967D01*
X13602976Y-980421D01*
X13607360Y-986332D01*
X13611144Y-992645D01*
X13614291Y-999299D01*
X13616771Y-1006229D01*
X13618559Y-1013368D01*
X13619639Y-1020649D01*
X13620000Y-1028000D01*
X13620000Y-2428000D01*
X13619639Y-2435351D01*
X13618559Y-2442632D01*
X13616771Y-2449771D01*
X13614291Y-2456701D01*
X13611144Y-2463355D01*
X13607360Y-2469668D01*
X13602976Y-2475579D01*
X13598033Y-2481033D01*
X13592579Y-2485976D01*
X13586668Y-2490360D01*
X13580355Y-2494144D01*
X13573701Y-2497291D01*
X13566771Y-2499771D01*
X13559632Y-2501559D01*
X13552351Y-2502639D01*
X13545000Y-2503000D01*
X13395000Y-2503000D01*
X13387649Y-2502639D01*
X13380368Y-2501559D01*
X13373229Y-2499771D01*
X13366299Y-2497291D01*
X13359645Y-2494144D01*
X13353332Y-2490360D01*
X13347421Y-2485976D01*
X13341967Y-2481033D01*
X13337024Y-2475579D01*
X13332640Y-2469668D01*
X13328856Y-2463355D01*
X13325709Y-2456701D01*
X13323229Y-2449771D01*
X13321441Y-2442632D01*
X13320361Y-2435351D01*
X13320000Y-2428000D01*
X13320000Y-1028000D01*
X13320361Y-1020649D01*
X13321441Y-1013368D01*
X13323229Y-1006229D01*
X13325709Y-999299D01*
X13328856Y-992645D01*
X13332640Y-986332D01*
X13337024Y-980421D01*
X13341967Y-974967D01*
X13347421Y-970024D01*
X13353332Y-965640D01*
X13359645Y-961856D01*
X13366299Y-958709D01*
X13373229Y-956229D01*
X13380368Y-954441D01*
X13387649Y-953361D01*
X13395000Y-953000D01*
X13545000Y-953000D01*
X13552351Y-953361D01*
G37*
G04 #@! TD.AperFunction*
G04 #@! TA.AperFunction,SMDPad,CuDef*
G36*
X14052351Y-953361D02*
G01*
X14059632Y-954441D01*
X14066771Y-956229D01*
X14073701Y-958709D01*
X14080355Y-961856D01*
X14086668Y-965640D01*
X14092579Y-970024D01*
X14098033Y-974967D01*
X14102976Y-980421D01*
X14107360Y-986332D01*
X14111144Y-992645D01*
X14114291Y-999299D01*
X14116771Y-1006229D01*
X14118559Y-1013368D01*
X14119639Y-1020649D01*
X14120000Y-1028000D01*
X14120000Y-2428000D01*
X14119639Y-2435351D01*
X14118559Y-2442632D01*
X14116771Y-2449771D01*
X14114291Y-2456701D01*
X14111144Y-2463355D01*
X14107360Y-2469668D01*
X14102976Y-2475579D01*
X14098033Y-2481033D01*
X14092579Y-2485976D01*
X14086668Y-2490360D01*
X14080355Y-2494144D01*
X14073701Y-2497291D01*
X14066771Y-2499771D01*
X14059632Y-2501559D01*
X14052351Y-2502639D01*
X14045000Y-2503000D01*
X13895000Y-2503000D01*
X13887649Y-2502639D01*
X13880368Y-2501559D01*
X13873229Y-2499771D01*
X13866299Y-2497291D01*
X13859645Y-2494144D01*
X13853332Y-2490360D01*
X13847421Y-2485976D01*
X13841967Y-2481033D01*
X13837024Y-2475579D01*
X13832640Y-2469668D01*
X13828856Y-2463355D01*
X13825709Y-2456701D01*
X13823229Y-2449771D01*
X13821441Y-2442632D01*
X13820361Y-2435351D01*
X13820000Y-2428000D01*
X13820000Y-1028000D01*
X13820361Y-1020649D01*
X13821441Y-1013368D01*
X13823229Y-1006229D01*
X13825709Y-999299D01*
X13828856Y-992645D01*
X13832640Y-986332D01*
X13837024Y-980421D01*
X13841967Y-974967D01*
X13847421Y-970024D01*
X13853332Y-965640D01*
X13859645Y-961856D01*
X13866299Y-958709D01*
X13873229Y-956229D01*
X13880368Y-954441D01*
X13887649Y-953361D01*
X13895000Y-953000D01*
X14045000Y-953000D01*
X14052351Y-953361D01*
G37*
G04 #@! TD.AperFunction*
G04 #@! TA.AperFunction,SMDPad,CuDef*
G36*
X14552351Y-953361D02*
G01*
X14559632Y-954441D01*
X14566771Y-956229D01*
X14573701Y-958709D01*
X14580355Y-961856D01*
X14586668Y-965640D01*
X14592579Y-970024D01*
X14598033Y-974967D01*
X14602976Y-980421D01*
X14607360Y-986332D01*
X14611144Y-992645D01*
X14614291Y-999299D01*
X14616771Y-1006229D01*
X14618559Y-1013368D01*
X14619639Y-1020649D01*
X14620000Y-1028000D01*
X14620000Y-2428000D01*
X14619639Y-2435351D01*
X14618559Y-2442632D01*
X14616771Y-2449771D01*
X14614291Y-2456701D01*
X14611144Y-2463355D01*
X14607360Y-2469668D01*
X14602976Y-2475579D01*
X14598033Y-2481033D01*
X14592579Y-2485976D01*
X14586668Y-2490360D01*
X14580355Y-2494144D01*
X14573701Y-2497291D01*
X14566771Y-2499771D01*
X14559632Y-2501559D01*
X14552351Y-2502639D01*
X14545000Y-2503000D01*
X14395000Y-2503000D01*
X14387649Y-2502639D01*
X14380368Y-2501559D01*
X14373229Y-2499771D01*
X14366299Y-2497291D01*
X14359645Y-2494144D01*
X14353332Y-2490360D01*
X14347421Y-2485976D01*
X14341967Y-2481033D01*
X14337024Y-2475579D01*
X14332640Y-2469668D01*
X14328856Y-2463355D01*
X14325709Y-2456701D01*
X14323229Y-2449771D01*
X14321441Y-2442632D01*
X14320361Y-2435351D01*
X14320000Y-2428000D01*
X14320000Y-1028000D01*
X14320361Y-1020649D01*
X14321441Y-1013368D01*
X14323229Y-1006229D01*
X14325709Y-999299D01*
X14328856Y-992645D01*
X14332640Y-986332D01*
X14337024Y-980421D01*
X14341967Y-974967D01*
X14347421Y-970024D01*
X14353332Y-965640D01*
X14359645Y-961856D01*
X14366299Y-958709D01*
X14373229Y-956229D01*
X14380368Y-954441D01*
X14387649Y-953361D01*
X14395000Y-953000D01*
X14545000Y-953000D01*
X14552351Y-953361D01*
G37*
G04 #@! TD.AperFunction*
G04 #@! TA.AperFunction,SMDPad,CuDef*
G36*
X15052351Y-953361D02*
G01*
X15059632Y-954441D01*
X15066771Y-956229D01*
X15073701Y-958709D01*
X15080355Y-961856D01*
X15086668Y-965640D01*
X15092579Y-970024D01*
X15098033Y-974967D01*
X15102976Y-980421D01*
X15107360Y-986332D01*
X15111144Y-992645D01*
X15114291Y-999299D01*
X15116771Y-1006229D01*
X15118559Y-1013368D01*
X15119639Y-1020649D01*
X15120000Y-1028000D01*
X15120000Y-2428000D01*
X15119639Y-2435351D01*
X15118559Y-2442632D01*
X15116771Y-2449771D01*
X15114291Y-2456701D01*
X15111144Y-2463355D01*
X15107360Y-2469668D01*
X15102976Y-2475579D01*
X15098033Y-2481033D01*
X15092579Y-2485976D01*
X15086668Y-2490360D01*
X15080355Y-2494144D01*
X15073701Y-2497291D01*
X15066771Y-2499771D01*
X15059632Y-2501559D01*
X15052351Y-2502639D01*
X15045000Y-2503000D01*
X14895000Y-2503000D01*
X14887649Y-2502639D01*
X14880368Y-2501559D01*
X14873229Y-2499771D01*
X14866299Y-2497291D01*
X14859645Y-2494144D01*
X14853332Y-2490360D01*
X14847421Y-2485976D01*
X14841967Y-2481033D01*
X14837024Y-2475579D01*
X14832640Y-2469668D01*
X14828856Y-2463355D01*
X14825709Y-2456701D01*
X14823229Y-2449771D01*
X14821441Y-2442632D01*
X14820361Y-2435351D01*
X14820000Y-2428000D01*
X14820000Y-1028000D01*
X14820361Y-1020649D01*
X14821441Y-1013368D01*
X14823229Y-1006229D01*
X14825709Y-999299D01*
X14828856Y-992645D01*
X14832640Y-986332D01*
X14837024Y-980421D01*
X14841967Y-974967D01*
X14847421Y-970024D01*
X14853332Y-965640D01*
X14859645Y-961856D01*
X14866299Y-958709D01*
X14873229Y-956229D01*
X14880368Y-954441D01*
X14887649Y-953361D01*
X14895000Y-953000D01*
X15045000Y-953000D01*
X15052351Y-953361D01*
G37*
G04 #@! TD.AperFunction*
G04 #@! TA.AperFunction,SMDPad,CuDef*
G36*
X15552351Y-953361D02*
G01*
X15559632Y-954441D01*
X15566771Y-956229D01*
X15573701Y-958709D01*
X15580355Y-961856D01*
X15586668Y-965640D01*
X15592579Y-970024D01*
X15598033Y-974967D01*
X15602976Y-980421D01*
X15607360Y-986332D01*
X15611144Y-992645D01*
X15614291Y-999299D01*
X15616771Y-1006229D01*
X15618559Y-1013368D01*
X15619639Y-1020649D01*
X15620000Y-1028000D01*
X15620000Y-2428000D01*
X15619639Y-2435351D01*
X15618559Y-2442632D01*
X15616771Y-2449771D01*
X15614291Y-2456701D01*
X15611144Y-2463355D01*
X15607360Y-2469668D01*
X15602976Y-2475579D01*
X15598033Y-2481033D01*
X15592579Y-2485976D01*
X15586668Y-2490360D01*
X15580355Y-2494144D01*
X15573701Y-2497291D01*
X15566771Y-2499771D01*
X15559632Y-2501559D01*
X15552351Y-2502639D01*
X15545000Y-2503000D01*
X15395000Y-2503000D01*
X15387649Y-2502639D01*
X15380368Y-2501559D01*
X15373229Y-2499771D01*
X15366299Y-2497291D01*
X15359645Y-2494144D01*
X15353332Y-2490360D01*
X15347421Y-2485976D01*
X15341967Y-2481033D01*
X15337024Y-2475579D01*
X15332640Y-2469668D01*
X15328856Y-2463355D01*
X15325709Y-2456701D01*
X15323229Y-2449771D01*
X15321441Y-2442632D01*
X15320361Y-2435351D01*
X15320000Y-2428000D01*
X15320000Y-1028000D01*
X15320361Y-1020649D01*
X15321441Y-1013368D01*
X15323229Y-1006229D01*
X15325709Y-999299D01*
X15328856Y-992645D01*
X15332640Y-986332D01*
X15337024Y-980421D01*
X15341967Y-974967D01*
X15347421Y-970024D01*
X15353332Y-965640D01*
X15359645Y-961856D01*
X15366299Y-958709D01*
X15373229Y-956229D01*
X15380368Y-954441D01*
X15387649Y-953361D01*
X15395000Y-953000D01*
X15545000Y-953000D01*
X15552351Y-953361D01*
G37*
G04 #@! TD.AperFunction*
G04 #@! TA.AperFunction,SMDPad,CuDef*
G36*
X16052351Y-953361D02*
G01*
X16059632Y-954441D01*
X16066771Y-956229D01*
X16073701Y-958709D01*
X16080355Y-961856D01*
X16086668Y-965640D01*
X16092579Y-970024D01*
X16098033Y-974967D01*
X16102976Y-980421D01*
X16107360Y-986332D01*
X16111144Y-992645D01*
X16114291Y-999299D01*
X16116771Y-1006229D01*
X16118559Y-1013368D01*
X16119639Y-1020649D01*
X16120000Y-1028000D01*
X16120000Y-2428000D01*
X16119639Y-2435351D01*
X16118559Y-2442632D01*
X16116771Y-2449771D01*
X16114291Y-2456701D01*
X16111144Y-2463355D01*
X16107360Y-2469668D01*
X16102976Y-2475579D01*
X16098033Y-2481033D01*
X16092579Y-2485976D01*
X16086668Y-2490360D01*
X16080355Y-2494144D01*
X16073701Y-2497291D01*
X16066771Y-2499771D01*
X16059632Y-2501559D01*
X16052351Y-2502639D01*
X16045000Y-2503000D01*
X15895000Y-2503000D01*
X15887649Y-2502639D01*
X15880368Y-2501559D01*
X15873229Y-2499771D01*
X15866299Y-2497291D01*
X15859645Y-2494144D01*
X15853332Y-2490360D01*
X15847421Y-2485976D01*
X15841967Y-2481033D01*
X15837024Y-2475579D01*
X15832640Y-2469668D01*
X15828856Y-2463355D01*
X15825709Y-2456701D01*
X15823229Y-2449771D01*
X15821441Y-2442632D01*
X15820361Y-2435351D01*
X15820000Y-2428000D01*
X15820000Y-1028000D01*
X15820361Y-1020649D01*
X15821441Y-1013368D01*
X15823229Y-1006229D01*
X15825709Y-999299D01*
X15828856Y-992645D01*
X15832640Y-986332D01*
X15837024Y-980421D01*
X15841967Y-974967D01*
X15847421Y-970024D01*
X15853332Y-965640D01*
X15859645Y-961856D01*
X15866299Y-958709D01*
X15873229Y-956229D01*
X15880368Y-954441D01*
X15887649Y-953361D01*
X15895000Y-953000D01*
X16045000Y-953000D01*
X16052351Y-953361D01*
G37*
G04 #@! TD.AperFunction*
G04 #@! TA.AperFunction,SMDPad,CuDef*
G36*
X16552351Y-953361D02*
G01*
X16559632Y-954441D01*
X16566771Y-956229D01*
X16573701Y-958709D01*
X16580355Y-961856D01*
X16586668Y-965640D01*
X16592579Y-970024D01*
X16598033Y-974967D01*
X16602976Y-980421D01*
X16607360Y-986332D01*
X16611144Y-992645D01*
X16614291Y-999299D01*
X16616771Y-1006229D01*
X16618559Y-1013368D01*
X16619639Y-1020649D01*
X16620000Y-1028000D01*
X16620000Y-2428000D01*
X16619639Y-2435351D01*
X16618559Y-2442632D01*
X16616771Y-2449771D01*
X16614291Y-2456701D01*
X16611144Y-2463355D01*
X16607360Y-2469668D01*
X16602976Y-2475579D01*
X16598033Y-2481033D01*
X16592579Y-2485976D01*
X16586668Y-2490360D01*
X16580355Y-2494144D01*
X16573701Y-2497291D01*
X16566771Y-2499771D01*
X16559632Y-2501559D01*
X16552351Y-2502639D01*
X16545000Y-2503000D01*
X16395000Y-2503000D01*
X16387649Y-2502639D01*
X16380368Y-2501559D01*
X16373229Y-2499771D01*
X16366299Y-2497291D01*
X16359645Y-2494144D01*
X16353332Y-2490360D01*
X16347421Y-2485976D01*
X16341967Y-2481033D01*
X16337024Y-2475579D01*
X16332640Y-2469668D01*
X16328856Y-2463355D01*
X16325709Y-2456701D01*
X16323229Y-2449771D01*
X16321441Y-2442632D01*
X16320361Y-2435351D01*
X16320000Y-2428000D01*
X16320000Y-1028000D01*
X16320361Y-1020649D01*
X16321441Y-1013368D01*
X16323229Y-1006229D01*
X16325709Y-999299D01*
X16328856Y-992645D01*
X16332640Y-986332D01*
X16337024Y-980421D01*
X16341967Y-974967D01*
X16347421Y-970024D01*
X16353332Y-965640D01*
X16359645Y-961856D01*
X16366299Y-958709D01*
X16373229Y-956229D01*
X16380368Y-954441D01*
X16387649Y-953361D01*
X16395000Y-953000D01*
X16545000Y-953000D01*
X16552351Y-953361D01*
G37*
G04 #@! TD.AperFunction*
G04 #@! TA.AperFunction,SMDPad,CuDef*
G36*
X17052351Y-953361D02*
G01*
X17059632Y-954441D01*
X17066771Y-956229D01*
X17073701Y-958709D01*
X17080355Y-961856D01*
X17086668Y-965640D01*
X17092579Y-970024D01*
X17098033Y-974967D01*
X17102976Y-980421D01*
X17107360Y-986332D01*
X17111144Y-992645D01*
X17114291Y-999299D01*
X17116771Y-1006229D01*
X17118559Y-1013368D01*
X17119639Y-1020649D01*
X17120000Y-1028000D01*
X17120000Y-2428000D01*
X17119639Y-2435351D01*
X17118559Y-2442632D01*
X17116771Y-2449771D01*
X17114291Y-2456701D01*
X17111144Y-2463355D01*
X17107360Y-2469668D01*
X17102976Y-2475579D01*
X17098033Y-2481033D01*
X17092579Y-2485976D01*
X17086668Y-2490360D01*
X17080355Y-2494144D01*
X17073701Y-2497291D01*
X17066771Y-2499771D01*
X17059632Y-2501559D01*
X17052351Y-2502639D01*
X17045000Y-2503000D01*
X16895000Y-2503000D01*
X16887649Y-2502639D01*
X16880368Y-2501559D01*
X16873229Y-2499771D01*
X16866299Y-2497291D01*
X16859645Y-2494144D01*
X16853332Y-2490360D01*
X16847421Y-2485976D01*
X16841967Y-2481033D01*
X16837024Y-2475579D01*
X16832640Y-2469668D01*
X16828856Y-2463355D01*
X16825709Y-2456701D01*
X16823229Y-2449771D01*
X16821441Y-2442632D01*
X16820361Y-2435351D01*
X16820000Y-2428000D01*
X16820000Y-1028000D01*
X16820361Y-1020649D01*
X16821441Y-1013368D01*
X16823229Y-1006229D01*
X16825709Y-999299D01*
X16828856Y-992645D01*
X16832640Y-986332D01*
X16837024Y-980421D01*
X16841967Y-974967D01*
X16847421Y-970024D01*
X16853332Y-965640D01*
X16859645Y-961856D01*
X16866299Y-958709D01*
X16873229Y-956229D01*
X16880368Y-954441D01*
X16887649Y-953361D01*
X16895000Y-953000D01*
X17045000Y-953000D01*
X17052351Y-953361D01*
G37*
G04 #@! TD.AperFunction*
G04 #@! TA.AperFunction,SMDPad,CuDef*
G36*
X17552351Y-953361D02*
G01*
X17559632Y-954441D01*
X17566771Y-956229D01*
X17573701Y-958709D01*
X17580355Y-961856D01*
X17586668Y-965640D01*
X17592579Y-970024D01*
X17598033Y-974967D01*
X17602976Y-980421D01*
X17607360Y-986332D01*
X17611144Y-992645D01*
X17614291Y-999299D01*
X17616771Y-1006229D01*
X17618559Y-1013368D01*
X17619639Y-1020649D01*
X17620000Y-1028000D01*
X17620000Y-2428000D01*
X17619639Y-2435351D01*
X17618559Y-2442632D01*
X17616771Y-2449771D01*
X17614291Y-2456701D01*
X17611144Y-2463355D01*
X17607360Y-2469668D01*
X17602976Y-2475579D01*
X17598033Y-2481033D01*
X17592579Y-2485976D01*
X17586668Y-2490360D01*
X17580355Y-2494144D01*
X17573701Y-2497291D01*
X17566771Y-2499771D01*
X17559632Y-2501559D01*
X17552351Y-2502639D01*
X17545000Y-2503000D01*
X17395000Y-2503000D01*
X17387649Y-2502639D01*
X17380368Y-2501559D01*
X17373229Y-2499771D01*
X17366299Y-2497291D01*
X17359645Y-2494144D01*
X17353332Y-2490360D01*
X17347421Y-2485976D01*
X17341967Y-2481033D01*
X17337024Y-2475579D01*
X17332640Y-2469668D01*
X17328856Y-2463355D01*
X17325709Y-2456701D01*
X17323229Y-2449771D01*
X17321441Y-2442632D01*
X17320361Y-2435351D01*
X17320000Y-2428000D01*
X17320000Y-1028000D01*
X17320361Y-1020649D01*
X17321441Y-1013368D01*
X17323229Y-1006229D01*
X17325709Y-999299D01*
X17328856Y-992645D01*
X17332640Y-986332D01*
X17337024Y-980421D01*
X17341967Y-974967D01*
X17347421Y-970024D01*
X17353332Y-965640D01*
X17359645Y-961856D01*
X17366299Y-958709D01*
X17373229Y-956229D01*
X17380368Y-954441D01*
X17387649Y-953361D01*
X17395000Y-953000D01*
X17545000Y-953000D01*
X17552351Y-953361D01*
G37*
G04 #@! TD.AperFunction*
G04 #@! TA.AperFunction,SMDPad,CuDef*
G36*
X20102351Y-3503361D02*
G01*
X20109632Y-3504441D01*
X20116771Y-3506229D01*
X20123701Y-3508709D01*
X20130355Y-3511856D01*
X20136668Y-3515640D01*
X20142579Y-3520024D01*
X20148033Y-3524967D01*
X20152976Y-3530421D01*
X20157360Y-3536332D01*
X20161144Y-3542645D01*
X20164291Y-3549299D01*
X20166771Y-3556229D01*
X20168559Y-3563368D01*
X20169639Y-3570649D01*
X20170000Y-3578000D01*
X20170000Y-3728000D01*
X20169639Y-3735351D01*
X20168559Y-3742632D01*
X20166771Y-3749771D01*
X20164291Y-3756701D01*
X20161144Y-3763355D01*
X20157360Y-3769668D01*
X20152976Y-3775579D01*
X20148033Y-3781033D01*
X20142579Y-3785976D01*
X20136668Y-3790360D01*
X20130355Y-3794144D01*
X20123701Y-3797291D01*
X20116771Y-3799771D01*
X20109632Y-3801559D01*
X20102351Y-3802639D01*
X20095000Y-3803000D01*
X18695000Y-3803000D01*
X18687649Y-3802639D01*
X18680368Y-3801559D01*
X18673229Y-3799771D01*
X18666299Y-3797291D01*
X18659645Y-3794144D01*
X18653332Y-3790360D01*
X18647421Y-3785976D01*
X18641967Y-3781033D01*
X18637024Y-3775579D01*
X18632640Y-3769668D01*
X18628856Y-3763355D01*
X18625709Y-3756701D01*
X18623229Y-3749771D01*
X18621441Y-3742632D01*
X18620361Y-3735351D01*
X18620000Y-3728000D01*
X18620000Y-3578000D01*
X18620361Y-3570649D01*
X18621441Y-3563368D01*
X18623229Y-3556229D01*
X18625709Y-3549299D01*
X18628856Y-3542645D01*
X18632640Y-3536332D01*
X18637024Y-3530421D01*
X18641967Y-3524967D01*
X18647421Y-3520024D01*
X18653332Y-3515640D01*
X18659645Y-3511856D01*
X18666299Y-3508709D01*
X18673229Y-3506229D01*
X18680368Y-3504441D01*
X18687649Y-3503361D01*
X18695000Y-3503000D01*
X20095000Y-3503000D01*
X20102351Y-3503361D01*
G37*
G04 #@! TD.AperFunction*
G04 #@! TA.AperFunction,SMDPad,CuDef*
G36*
X20102351Y-4003361D02*
G01*
X20109632Y-4004441D01*
X20116771Y-4006229D01*
X20123701Y-4008709D01*
X20130355Y-4011856D01*
X20136668Y-4015640D01*
X20142579Y-4020024D01*
X20148033Y-4024967D01*
X20152976Y-4030421D01*
X20157360Y-4036332D01*
X20161144Y-4042645D01*
X20164291Y-4049299D01*
X20166771Y-4056229D01*
X20168559Y-4063368D01*
X20169639Y-4070649D01*
X20170000Y-4078000D01*
X20170000Y-4228000D01*
X20169639Y-4235351D01*
X20168559Y-4242632D01*
X20166771Y-4249771D01*
X20164291Y-4256701D01*
X20161144Y-4263355D01*
X20157360Y-4269668D01*
X20152976Y-4275579D01*
X20148033Y-4281033D01*
X20142579Y-4285976D01*
X20136668Y-4290360D01*
X20130355Y-4294144D01*
X20123701Y-4297291D01*
X20116771Y-4299771D01*
X20109632Y-4301559D01*
X20102351Y-4302639D01*
X20095000Y-4303000D01*
X18695000Y-4303000D01*
X18687649Y-4302639D01*
X18680368Y-4301559D01*
X18673229Y-4299771D01*
X18666299Y-4297291D01*
X18659645Y-4294144D01*
X18653332Y-4290360D01*
X18647421Y-4285976D01*
X18641967Y-4281033D01*
X18637024Y-4275579D01*
X18632640Y-4269668D01*
X18628856Y-4263355D01*
X18625709Y-4256701D01*
X18623229Y-4249771D01*
X18621441Y-4242632D01*
X18620361Y-4235351D01*
X18620000Y-4228000D01*
X18620000Y-4078000D01*
X18620361Y-4070649D01*
X18621441Y-4063368D01*
X18623229Y-4056229D01*
X18625709Y-4049299D01*
X18628856Y-4042645D01*
X18632640Y-4036332D01*
X18637024Y-4030421D01*
X18641967Y-4024967D01*
X18647421Y-4020024D01*
X18653332Y-4015640D01*
X18659645Y-4011856D01*
X18666299Y-4008709D01*
X18673229Y-4006229D01*
X18680368Y-4004441D01*
X18687649Y-4003361D01*
X18695000Y-4003000D01*
X20095000Y-4003000D01*
X20102351Y-4003361D01*
G37*
G04 #@! TD.AperFunction*
G04 #@! TA.AperFunction,SMDPad,CuDef*
G36*
X20102351Y-4503361D02*
G01*
X20109632Y-4504441D01*
X20116771Y-4506229D01*
X20123701Y-4508709D01*
X20130355Y-4511856D01*
X20136668Y-4515640D01*
X20142579Y-4520024D01*
X20148033Y-4524967D01*
X20152976Y-4530421D01*
X20157360Y-4536332D01*
X20161144Y-4542645D01*
X20164291Y-4549299D01*
X20166771Y-4556229D01*
X20168559Y-4563368D01*
X20169639Y-4570649D01*
X20170000Y-4578000D01*
X20170000Y-4728000D01*
X20169639Y-4735351D01*
X20168559Y-4742632D01*
X20166771Y-4749771D01*
X20164291Y-4756701D01*
X20161144Y-4763355D01*
X20157360Y-4769668D01*
X20152976Y-4775579D01*
X20148033Y-4781033D01*
X20142579Y-4785976D01*
X20136668Y-4790360D01*
X20130355Y-4794144D01*
X20123701Y-4797291D01*
X20116771Y-4799771D01*
X20109632Y-4801559D01*
X20102351Y-4802639D01*
X20095000Y-4803000D01*
X18695000Y-4803000D01*
X18687649Y-4802639D01*
X18680368Y-4801559D01*
X18673229Y-4799771D01*
X18666299Y-4797291D01*
X18659645Y-4794144D01*
X18653332Y-4790360D01*
X18647421Y-4785976D01*
X18641967Y-4781033D01*
X18637024Y-4775579D01*
X18632640Y-4769668D01*
X18628856Y-4763355D01*
X18625709Y-4756701D01*
X18623229Y-4749771D01*
X18621441Y-4742632D01*
X18620361Y-4735351D01*
X18620000Y-4728000D01*
X18620000Y-4578000D01*
X18620361Y-4570649D01*
X18621441Y-4563368D01*
X18623229Y-4556229D01*
X18625709Y-4549299D01*
X18628856Y-4542645D01*
X18632640Y-4536332D01*
X18637024Y-4530421D01*
X18641967Y-4524967D01*
X18647421Y-4520024D01*
X18653332Y-4515640D01*
X18659645Y-4511856D01*
X18666299Y-4508709D01*
X18673229Y-4506229D01*
X18680368Y-4504441D01*
X18687649Y-4503361D01*
X18695000Y-4503000D01*
X20095000Y-4503000D01*
X20102351Y-4503361D01*
G37*
G04 #@! TD.AperFunction*
G04 #@! TA.AperFunction,SMDPad,CuDef*
G36*
X20102351Y-5003361D02*
G01*
X20109632Y-5004441D01*
X20116771Y-5006229D01*
X20123701Y-5008709D01*
X20130355Y-5011856D01*
X20136668Y-5015640D01*
X20142579Y-5020024D01*
X20148033Y-5024967D01*
X20152976Y-5030421D01*
X20157360Y-5036332D01*
X20161144Y-5042645D01*
X20164291Y-5049299D01*
X20166771Y-5056229D01*
X20168559Y-5063368D01*
X20169639Y-5070649D01*
X20170000Y-5078000D01*
X20170000Y-5228000D01*
X20169639Y-5235351D01*
X20168559Y-5242632D01*
X20166771Y-5249771D01*
X20164291Y-5256701D01*
X20161144Y-5263355D01*
X20157360Y-5269668D01*
X20152976Y-5275579D01*
X20148033Y-5281033D01*
X20142579Y-5285976D01*
X20136668Y-5290360D01*
X20130355Y-5294144D01*
X20123701Y-5297291D01*
X20116771Y-5299771D01*
X20109632Y-5301559D01*
X20102351Y-5302639D01*
X20095000Y-5303000D01*
X18695000Y-5303000D01*
X18687649Y-5302639D01*
X18680368Y-5301559D01*
X18673229Y-5299771D01*
X18666299Y-5297291D01*
X18659645Y-5294144D01*
X18653332Y-5290360D01*
X18647421Y-5285976D01*
X18641967Y-5281033D01*
X18637024Y-5275579D01*
X18632640Y-5269668D01*
X18628856Y-5263355D01*
X18625709Y-5256701D01*
X18623229Y-5249771D01*
X18621441Y-5242632D01*
X18620361Y-5235351D01*
X18620000Y-5228000D01*
X18620000Y-5078000D01*
X18620361Y-5070649D01*
X18621441Y-5063368D01*
X18623229Y-5056229D01*
X18625709Y-5049299D01*
X18628856Y-5042645D01*
X18632640Y-5036332D01*
X18637024Y-5030421D01*
X18641967Y-5024967D01*
X18647421Y-5020024D01*
X18653332Y-5015640D01*
X18659645Y-5011856D01*
X18666299Y-5008709D01*
X18673229Y-5006229D01*
X18680368Y-5004441D01*
X18687649Y-5003361D01*
X18695000Y-5003000D01*
X20095000Y-5003000D01*
X20102351Y-5003361D01*
G37*
G04 #@! TD.AperFunction*
G04 #@! TA.AperFunction,SMDPad,CuDef*
G36*
X20102351Y-5503361D02*
G01*
X20109632Y-5504441D01*
X20116771Y-5506229D01*
X20123701Y-5508709D01*
X20130355Y-5511856D01*
X20136668Y-5515640D01*
X20142579Y-5520024D01*
X20148033Y-5524967D01*
X20152976Y-5530421D01*
X20157360Y-5536332D01*
X20161144Y-5542645D01*
X20164291Y-5549299D01*
X20166771Y-5556229D01*
X20168559Y-5563368D01*
X20169639Y-5570649D01*
X20170000Y-5578000D01*
X20170000Y-5728000D01*
X20169639Y-5735351D01*
X20168559Y-5742632D01*
X20166771Y-5749771D01*
X20164291Y-5756701D01*
X20161144Y-5763355D01*
X20157360Y-5769668D01*
X20152976Y-5775579D01*
X20148033Y-5781033D01*
X20142579Y-5785976D01*
X20136668Y-5790360D01*
X20130355Y-5794144D01*
X20123701Y-5797291D01*
X20116771Y-5799771D01*
X20109632Y-5801559D01*
X20102351Y-5802639D01*
X20095000Y-5803000D01*
X18695000Y-5803000D01*
X18687649Y-5802639D01*
X18680368Y-5801559D01*
X18673229Y-5799771D01*
X18666299Y-5797291D01*
X18659645Y-5794144D01*
X18653332Y-5790360D01*
X18647421Y-5785976D01*
X18641967Y-5781033D01*
X18637024Y-5775579D01*
X18632640Y-5769668D01*
X18628856Y-5763355D01*
X18625709Y-5756701D01*
X18623229Y-5749771D01*
X18621441Y-5742632D01*
X18620361Y-5735351D01*
X18620000Y-5728000D01*
X18620000Y-5578000D01*
X18620361Y-5570649D01*
X18621441Y-5563368D01*
X18623229Y-5556229D01*
X18625709Y-5549299D01*
X18628856Y-5542645D01*
X18632640Y-5536332D01*
X18637024Y-5530421D01*
X18641967Y-5524967D01*
X18647421Y-5520024D01*
X18653332Y-5515640D01*
X18659645Y-5511856D01*
X18666299Y-5508709D01*
X18673229Y-5506229D01*
X18680368Y-5504441D01*
X18687649Y-5503361D01*
X18695000Y-5503000D01*
X20095000Y-5503000D01*
X20102351Y-5503361D01*
G37*
G04 #@! TD.AperFunction*
G04 #@! TA.AperFunction,SMDPad,CuDef*
G36*
X20102351Y-6003361D02*
G01*
X20109632Y-6004441D01*
X20116771Y-6006229D01*
X20123701Y-6008709D01*
X20130355Y-6011856D01*
X20136668Y-6015640D01*
X20142579Y-6020024D01*
X20148033Y-6024967D01*
X20152976Y-6030421D01*
X20157360Y-6036332D01*
X20161144Y-6042645D01*
X20164291Y-6049299D01*
X20166771Y-6056229D01*
X20168559Y-6063368D01*
X20169639Y-6070649D01*
X20170000Y-6078000D01*
X20170000Y-6228000D01*
X20169639Y-6235351D01*
X20168559Y-6242632D01*
X20166771Y-6249771D01*
X20164291Y-6256701D01*
X20161144Y-6263355D01*
X20157360Y-6269668D01*
X20152976Y-6275579D01*
X20148033Y-6281033D01*
X20142579Y-6285976D01*
X20136668Y-6290360D01*
X20130355Y-6294144D01*
X20123701Y-6297291D01*
X20116771Y-6299771D01*
X20109632Y-6301559D01*
X20102351Y-6302639D01*
X20095000Y-6303000D01*
X18695000Y-6303000D01*
X18687649Y-6302639D01*
X18680368Y-6301559D01*
X18673229Y-6299771D01*
X18666299Y-6297291D01*
X18659645Y-6294144D01*
X18653332Y-6290360D01*
X18647421Y-6285976D01*
X18641967Y-6281033D01*
X18637024Y-6275579D01*
X18632640Y-6269668D01*
X18628856Y-6263355D01*
X18625709Y-6256701D01*
X18623229Y-6249771D01*
X18621441Y-6242632D01*
X18620361Y-6235351D01*
X18620000Y-6228000D01*
X18620000Y-6078000D01*
X18620361Y-6070649D01*
X18621441Y-6063368D01*
X18623229Y-6056229D01*
X18625709Y-6049299D01*
X18628856Y-6042645D01*
X18632640Y-6036332D01*
X18637024Y-6030421D01*
X18641967Y-6024967D01*
X18647421Y-6020024D01*
X18653332Y-6015640D01*
X18659645Y-6011856D01*
X18666299Y-6008709D01*
X18673229Y-6006229D01*
X18680368Y-6004441D01*
X18687649Y-6003361D01*
X18695000Y-6003000D01*
X20095000Y-6003000D01*
X20102351Y-6003361D01*
G37*
G04 #@! TD.AperFunction*
G04 #@! TA.AperFunction,SMDPad,CuDef*
G36*
X20102351Y-6503361D02*
G01*
X20109632Y-6504441D01*
X20116771Y-6506229D01*
X20123701Y-6508709D01*
X20130355Y-6511856D01*
X20136668Y-6515640D01*
X20142579Y-6520024D01*
X20148033Y-6524967D01*
X20152976Y-6530421D01*
X20157360Y-6536332D01*
X20161144Y-6542645D01*
X20164291Y-6549299D01*
X20166771Y-6556229D01*
X20168559Y-6563368D01*
X20169639Y-6570649D01*
X20170000Y-6578000D01*
X20170000Y-6728000D01*
X20169639Y-6735351D01*
X20168559Y-6742632D01*
X20166771Y-6749771D01*
X20164291Y-6756701D01*
X20161144Y-6763355D01*
X20157360Y-6769668D01*
X20152976Y-6775579D01*
X20148033Y-6781033D01*
X20142579Y-6785976D01*
X20136668Y-6790360D01*
X20130355Y-6794144D01*
X20123701Y-6797291D01*
X20116771Y-6799771D01*
X20109632Y-6801559D01*
X20102351Y-6802639D01*
X20095000Y-6803000D01*
X18695000Y-6803000D01*
X18687649Y-6802639D01*
X18680368Y-6801559D01*
X18673229Y-6799771D01*
X18666299Y-6797291D01*
X18659645Y-6794144D01*
X18653332Y-6790360D01*
X18647421Y-6785976D01*
X18641967Y-6781033D01*
X18637024Y-6775579D01*
X18632640Y-6769668D01*
X18628856Y-6763355D01*
X18625709Y-6756701D01*
X18623229Y-6749771D01*
X18621441Y-6742632D01*
X18620361Y-6735351D01*
X18620000Y-6728000D01*
X18620000Y-6578000D01*
X18620361Y-6570649D01*
X18621441Y-6563368D01*
X18623229Y-6556229D01*
X18625709Y-6549299D01*
X18628856Y-6542645D01*
X18632640Y-6536332D01*
X18637024Y-6530421D01*
X18641967Y-6524967D01*
X18647421Y-6520024D01*
X18653332Y-6515640D01*
X18659645Y-6511856D01*
X18666299Y-6508709D01*
X18673229Y-6506229D01*
X18680368Y-6504441D01*
X18687649Y-6503361D01*
X18695000Y-6503000D01*
X20095000Y-6503000D01*
X20102351Y-6503361D01*
G37*
G04 #@! TD.AperFunction*
G04 #@! TA.AperFunction,SMDPad,CuDef*
G36*
X20102351Y-7003361D02*
G01*
X20109632Y-7004441D01*
X20116771Y-7006229D01*
X20123701Y-7008709D01*
X20130355Y-7011856D01*
X20136668Y-7015640D01*
X20142579Y-7020024D01*
X20148033Y-7024967D01*
X20152976Y-7030421D01*
X20157360Y-7036332D01*
X20161144Y-7042645D01*
X20164291Y-7049299D01*
X20166771Y-7056229D01*
X20168559Y-7063368D01*
X20169639Y-7070649D01*
X20170000Y-7078000D01*
X20170000Y-7228000D01*
X20169639Y-7235351D01*
X20168559Y-7242632D01*
X20166771Y-7249771D01*
X20164291Y-7256701D01*
X20161144Y-7263355D01*
X20157360Y-7269668D01*
X20152976Y-7275579D01*
X20148033Y-7281033D01*
X20142579Y-7285976D01*
X20136668Y-7290360D01*
X20130355Y-7294144D01*
X20123701Y-7297291D01*
X20116771Y-7299771D01*
X20109632Y-7301559D01*
X20102351Y-7302639D01*
X20095000Y-7303000D01*
X18695000Y-7303000D01*
X18687649Y-7302639D01*
X18680368Y-7301559D01*
X18673229Y-7299771D01*
X18666299Y-7297291D01*
X18659645Y-7294144D01*
X18653332Y-7290360D01*
X18647421Y-7285976D01*
X18641967Y-7281033D01*
X18637024Y-7275579D01*
X18632640Y-7269668D01*
X18628856Y-7263355D01*
X18625709Y-7256701D01*
X18623229Y-7249771D01*
X18621441Y-7242632D01*
X18620361Y-7235351D01*
X18620000Y-7228000D01*
X18620000Y-7078000D01*
X18620361Y-7070649D01*
X18621441Y-7063368D01*
X18623229Y-7056229D01*
X18625709Y-7049299D01*
X18628856Y-7042645D01*
X18632640Y-7036332D01*
X18637024Y-7030421D01*
X18641967Y-7024967D01*
X18647421Y-7020024D01*
X18653332Y-7015640D01*
X18659645Y-7011856D01*
X18666299Y-7008709D01*
X18673229Y-7006229D01*
X18680368Y-7004441D01*
X18687649Y-7003361D01*
X18695000Y-7003000D01*
X20095000Y-7003000D01*
X20102351Y-7003361D01*
G37*
G04 #@! TD.AperFunction*
G04 #@! TA.AperFunction,SMDPad,CuDef*
G36*
X20102351Y-7503361D02*
G01*
X20109632Y-7504441D01*
X20116771Y-7506229D01*
X20123701Y-7508709D01*
X20130355Y-7511856D01*
X20136668Y-7515640D01*
X20142579Y-7520024D01*
X20148033Y-7524967D01*
X20152976Y-7530421D01*
X20157360Y-7536332D01*
X20161144Y-7542645D01*
X20164291Y-7549299D01*
X20166771Y-7556229D01*
X20168559Y-7563368D01*
X20169639Y-7570649D01*
X20170000Y-7578000D01*
X20170000Y-7728000D01*
X20169639Y-7735351D01*
X20168559Y-7742632D01*
X20166771Y-7749771D01*
X20164291Y-7756701D01*
X20161144Y-7763355D01*
X20157360Y-7769668D01*
X20152976Y-7775579D01*
X20148033Y-7781033D01*
X20142579Y-7785976D01*
X20136668Y-7790360D01*
X20130355Y-7794144D01*
X20123701Y-7797291D01*
X20116771Y-7799771D01*
X20109632Y-7801559D01*
X20102351Y-7802639D01*
X20095000Y-7803000D01*
X18695000Y-7803000D01*
X18687649Y-7802639D01*
X18680368Y-7801559D01*
X18673229Y-7799771D01*
X18666299Y-7797291D01*
X18659645Y-7794144D01*
X18653332Y-7790360D01*
X18647421Y-7785976D01*
X18641967Y-7781033D01*
X18637024Y-7775579D01*
X18632640Y-7769668D01*
X18628856Y-7763355D01*
X18625709Y-7756701D01*
X18623229Y-7749771D01*
X18621441Y-7742632D01*
X18620361Y-7735351D01*
X18620000Y-7728000D01*
X18620000Y-7578000D01*
X18620361Y-7570649D01*
X18621441Y-7563368D01*
X18623229Y-7556229D01*
X18625709Y-7549299D01*
X18628856Y-7542645D01*
X18632640Y-7536332D01*
X18637024Y-7530421D01*
X18641967Y-7524967D01*
X18647421Y-7520024D01*
X18653332Y-7515640D01*
X18659645Y-7511856D01*
X18666299Y-7508709D01*
X18673229Y-7506229D01*
X18680368Y-7504441D01*
X18687649Y-7503361D01*
X18695000Y-7503000D01*
X20095000Y-7503000D01*
X20102351Y-7503361D01*
G37*
G04 #@! TD.AperFunction*
G04 #@! TA.AperFunction,SMDPad,CuDef*
G36*
X20102351Y-8003361D02*
G01*
X20109632Y-8004441D01*
X20116771Y-8006229D01*
X20123701Y-8008709D01*
X20130355Y-8011856D01*
X20136668Y-8015640D01*
X20142579Y-8020024D01*
X20148033Y-8024967D01*
X20152976Y-8030421D01*
X20157360Y-8036332D01*
X20161144Y-8042645D01*
X20164291Y-8049299D01*
X20166771Y-8056229D01*
X20168559Y-8063368D01*
X20169639Y-8070649D01*
X20170000Y-8078000D01*
X20170000Y-8228000D01*
X20169639Y-8235351D01*
X20168559Y-8242632D01*
X20166771Y-8249771D01*
X20164291Y-8256701D01*
X20161144Y-8263355D01*
X20157360Y-8269668D01*
X20152976Y-8275579D01*
X20148033Y-8281033D01*
X20142579Y-8285976D01*
X20136668Y-8290360D01*
X20130355Y-8294144D01*
X20123701Y-8297291D01*
X20116771Y-8299771D01*
X20109632Y-8301559D01*
X20102351Y-8302639D01*
X20095000Y-8303000D01*
X18695000Y-8303000D01*
X18687649Y-8302639D01*
X18680368Y-8301559D01*
X18673229Y-8299771D01*
X18666299Y-8297291D01*
X18659645Y-8294144D01*
X18653332Y-8290360D01*
X18647421Y-8285976D01*
X18641967Y-8281033D01*
X18637024Y-8275579D01*
X18632640Y-8269668D01*
X18628856Y-8263355D01*
X18625709Y-8256701D01*
X18623229Y-8249771D01*
X18621441Y-8242632D01*
X18620361Y-8235351D01*
X18620000Y-8228000D01*
X18620000Y-8078000D01*
X18620361Y-8070649D01*
X18621441Y-8063368D01*
X18623229Y-8056229D01*
X18625709Y-8049299D01*
X18628856Y-8042645D01*
X18632640Y-8036332D01*
X18637024Y-8030421D01*
X18641967Y-8024967D01*
X18647421Y-8020024D01*
X18653332Y-8015640D01*
X18659645Y-8011856D01*
X18666299Y-8008709D01*
X18673229Y-8006229D01*
X18680368Y-8004441D01*
X18687649Y-8003361D01*
X18695000Y-8003000D01*
X20095000Y-8003000D01*
X20102351Y-8003361D01*
G37*
G04 #@! TD.AperFunction*
G04 #@! TA.AperFunction,SMDPad,CuDef*
G36*
X20102351Y-8503361D02*
G01*
X20109632Y-8504441D01*
X20116771Y-8506229D01*
X20123701Y-8508709D01*
X20130355Y-8511856D01*
X20136668Y-8515640D01*
X20142579Y-8520024D01*
X20148033Y-8524967D01*
X20152976Y-8530421D01*
X20157360Y-8536332D01*
X20161144Y-8542645D01*
X20164291Y-8549299D01*
X20166771Y-8556229D01*
X20168559Y-8563368D01*
X20169639Y-8570649D01*
X20170000Y-8578000D01*
X20170000Y-8728000D01*
X20169639Y-8735351D01*
X20168559Y-8742632D01*
X20166771Y-8749771D01*
X20164291Y-8756701D01*
X20161144Y-8763355D01*
X20157360Y-8769668D01*
X20152976Y-8775579D01*
X20148033Y-8781033D01*
X20142579Y-8785976D01*
X20136668Y-8790360D01*
X20130355Y-8794144D01*
X20123701Y-8797291D01*
X20116771Y-8799771D01*
X20109632Y-8801559D01*
X20102351Y-8802639D01*
X20095000Y-8803000D01*
X18695000Y-8803000D01*
X18687649Y-8802639D01*
X18680368Y-8801559D01*
X18673229Y-8799771D01*
X18666299Y-8797291D01*
X18659645Y-8794144D01*
X18653332Y-8790360D01*
X18647421Y-8785976D01*
X18641967Y-8781033D01*
X18637024Y-8775579D01*
X18632640Y-8769668D01*
X18628856Y-8763355D01*
X18625709Y-8756701D01*
X18623229Y-8749771D01*
X18621441Y-8742632D01*
X18620361Y-8735351D01*
X18620000Y-8728000D01*
X18620000Y-8578000D01*
X18620361Y-8570649D01*
X18621441Y-8563368D01*
X18623229Y-8556229D01*
X18625709Y-8549299D01*
X18628856Y-8542645D01*
X18632640Y-8536332D01*
X18637024Y-8530421D01*
X18641967Y-8524967D01*
X18647421Y-8520024D01*
X18653332Y-8515640D01*
X18659645Y-8511856D01*
X18666299Y-8508709D01*
X18673229Y-8506229D01*
X18680368Y-8504441D01*
X18687649Y-8503361D01*
X18695000Y-8503000D01*
X20095000Y-8503000D01*
X20102351Y-8503361D01*
G37*
G04 #@! TD.AperFunction*
G04 #@! TA.AperFunction,SMDPad,CuDef*
G36*
X20102351Y-9003361D02*
G01*
X20109632Y-9004441D01*
X20116771Y-9006229D01*
X20123701Y-9008709D01*
X20130355Y-9011856D01*
X20136668Y-9015640D01*
X20142579Y-9020024D01*
X20148033Y-9024967D01*
X20152976Y-9030421D01*
X20157360Y-9036332D01*
X20161144Y-9042645D01*
X20164291Y-9049299D01*
X20166771Y-9056229D01*
X20168559Y-9063368D01*
X20169639Y-9070649D01*
X20170000Y-9078000D01*
X20170000Y-9228000D01*
X20169639Y-9235351D01*
X20168559Y-9242632D01*
X20166771Y-9249771D01*
X20164291Y-9256701D01*
X20161144Y-9263355D01*
X20157360Y-9269668D01*
X20152976Y-9275579D01*
X20148033Y-9281033D01*
X20142579Y-9285976D01*
X20136668Y-9290360D01*
X20130355Y-9294144D01*
X20123701Y-9297291D01*
X20116771Y-9299771D01*
X20109632Y-9301559D01*
X20102351Y-9302639D01*
X20095000Y-9303000D01*
X18695000Y-9303000D01*
X18687649Y-9302639D01*
X18680368Y-9301559D01*
X18673229Y-9299771D01*
X18666299Y-9297291D01*
X18659645Y-9294144D01*
X18653332Y-9290360D01*
X18647421Y-9285976D01*
X18641967Y-9281033D01*
X18637024Y-9275579D01*
X18632640Y-9269668D01*
X18628856Y-9263355D01*
X18625709Y-9256701D01*
X18623229Y-9249771D01*
X18621441Y-9242632D01*
X18620361Y-9235351D01*
X18620000Y-9228000D01*
X18620000Y-9078000D01*
X18620361Y-9070649D01*
X18621441Y-9063368D01*
X18623229Y-9056229D01*
X18625709Y-9049299D01*
X18628856Y-9042645D01*
X18632640Y-9036332D01*
X18637024Y-9030421D01*
X18641967Y-9024967D01*
X18647421Y-9020024D01*
X18653332Y-9015640D01*
X18659645Y-9011856D01*
X18666299Y-9008709D01*
X18673229Y-9006229D01*
X18680368Y-9004441D01*
X18687649Y-9003361D01*
X18695000Y-9003000D01*
X20095000Y-9003000D01*
X20102351Y-9003361D01*
G37*
G04 #@! TD.AperFunction*
G04 #@! TA.AperFunction,SMDPad,CuDef*
G36*
X20102351Y-9503361D02*
G01*
X20109632Y-9504441D01*
X20116771Y-9506229D01*
X20123701Y-9508709D01*
X20130355Y-9511856D01*
X20136668Y-9515640D01*
X20142579Y-9520024D01*
X20148033Y-9524967D01*
X20152976Y-9530421D01*
X20157360Y-9536332D01*
X20161144Y-9542645D01*
X20164291Y-9549299D01*
X20166771Y-9556229D01*
X20168559Y-9563368D01*
X20169639Y-9570649D01*
X20170000Y-9578000D01*
X20170000Y-9728000D01*
X20169639Y-9735351D01*
X20168559Y-9742632D01*
X20166771Y-9749771D01*
X20164291Y-9756701D01*
X20161144Y-9763355D01*
X20157360Y-9769668D01*
X20152976Y-9775579D01*
X20148033Y-9781033D01*
X20142579Y-9785976D01*
X20136668Y-9790360D01*
X20130355Y-9794144D01*
X20123701Y-9797291D01*
X20116771Y-9799771D01*
X20109632Y-9801559D01*
X20102351Y-9802639D01*
X20095000Y-9803000D01*
X18695000Y-9803000D01*
X18687649Y-9802639D01*
X18680368Y-9801559D01*
X18673229Y-9799771D01*
X18666299Y-9797291D01*
X18659645Y-9794144D01*
X18653332Y-9790360D01*
X18647421Y-9785976D01*
X18641967Y-9781033D01*
X18637024Y-9775579D01*
X18632640Y-9769668D01*
X18628856Y-9763355D01*
X18625709Y-9756701D01*
X18623229Y-9749771D01*
X18621441Y-9742632D01*
X18620361Y-9735351D01*
X18620000Y-9728000D01*
X18620000Y-9578000D01*
X18620361Y-9570649D01*
X18621441Y-9563368D01*
X18623229Y-9556229D01*
X18625709Y-9549299D01*
X18628856Y-9542645D01*
X18632640Y-9536332D01*
X18637024Y-9530421D01*
X18641967Y-9524967D01*
X18647421Y-9520024D01*
X18653332Y-9515640D01*
X18659645Y-9511856D01*
X18666299Y-9508709D01*
X18673229Y-9506229D01*
X18680368Y-9504441D01*
X18687649Y-9503361D01*
X18695000Y-9503000D01*
X20095000Y-9503000D01*
X20102351Y-9503361D01*
G37*
G04 #@! TD.AperFunction*
G04 #@! TA.AperFunction,SMDPad,CuDef*
G36*
X20102351Y-10003361D02*
G01*
X20109632Y-10004441D01*
X20116771Y-10006229D01*
X20123701Y-10008709D01*
X20130355Y-10011856D01*
X20136668Y-10015640D01*
X20142579Y-10020024D01*
X20148033Y-10024967D01*
X20152976Y-10030421D01*
X20157360Y-10036332D01*
X20161144Y-10042645D01*
X20164291Y-10049299D01*
X20166771Y-10056229D01*
X20168559Y-10063368D01*
X20169639Y-10070649D01*
X20170000Y-10078000D01*
X20170000Y-10228000D01*
X20169639Y-10235351D01*
X20168559Y-10242632D01*
X20166771Y-10249771D01*
X20164291Y-10256701D01*
X20161144Y-10263355D01*
X20157360Y-10269668D01*
X20152976Y-10275579D01*
X20148033Y-10281033D01*
X20142579Y-10285976D01*
X20136668Y-10290360D01*
X20130355Y-10294144D01*
X20123701Y-10297291D01*
X20116771Y-10299771D01*
X20109632Y-10301559D01*
X20102351Y-10302639D01*
X20095000Y-10303000D01*
X18695000Y-10303000D01*
X18687649Y-10302639D01*
X18680368Y-10301559D01*
X18673229Y-10299771D01*
X18666299Y-10297291D01*
X18659645Y-10294144D01*
X18653332Y-10290360D01*
X18647421Y-10285976D01*
X18641967Y-10281033D01*
X18637024Y-10275579D01*
X18632640Y-10269668D01*
X18628856Y-10263355D01*
X18625709Y-10256701D01*
X18623229Y-10249771D01*
X18621441Y-10242632D01*
X18620361Y-10235351D01*
X18620000Y-10228000D01*
X18620000Y-10078000D01*
X18620361Y-10070649D01*
X18621441Y-10063368D01*
X18623229Y-10056229D01*
X18625709Y-10049299D01*
X18628856Y-10042645D01*
X18632640Y-10036332D01*
X18637024Y-10030421D01*
X18641967Y-10024967D01*
X18647421Y-10020024D01*
X18653332Y-10015640D01*
X18659645Y-10011856D01*
X18666299Y-10008709D01*
X18673229Y-10006229D01*
X18680368Y-10004441D01*
X18687649Y-10003361D01*
X18695000Y-10003000D01*
X20095000Y-10003000D01*
X20102351Y-10003361D01*
G37*
G04 #@! TD.AperFunction*
G04 #@! TA.AperFunction,SMDPad,CuDef*
G36*
X20102351Y-10503361D02*
G01*
X20109632Y-10504441D01*
X20116771Y-10506229D01*
X20123701Y-10508709D01*
X20130355Y-10511856D01*
X20136668Y-10515640D01*
X20142579Y-10520024D01*
X20148033Y-10524967D01*
X20152976Y-10530421D01*
X20157360Y-10536332D01*
X20161144Y-10542645D01*
X20164291Y-10549299D01*
X20166771Y-10556229D01*
X20168559Y-10563368D01*
X20169639Y-10570649D01*
X20170000Y-10578000D01*
X20170000Y-10728000D01*
X20169639Y-10735351D01*
X20168559Y-10742632D01*
X20166771Y-10749771D01*
X20164291Y-10756701D01*
X20161144Y-10763355D01*
X20157360Y-10769668D01*
X20152976Y-10775579D01*
X20148033Y-10781033D01*
X20142579Y-10785976D01*
X20136668Y-10790360D01*
X20130355Y-10794144D01*
X20123701Y-10797291D01*
X20116771Y-10799771D01*
X20109632Y-10801559D01*
X20102351Y-10802639D01*
X20095000Y-10803000D01*
X18695000Y-10803000D01*
X18687649Y-10802639D01*
X18680368Y-10801559D01*
X18673229Y-10799771D01*
X18666299Y-10797291D01*
X18659645Y-10794144D01*
X18653332Y-10790360D01*
X18647421Y-10785976D01*
X18641967Y-10781033D01*
X18637024Y-10775579D01*
X18632640Y-10769668D01*
X18628856Y-10763355D01*
X18625709Y-10756701D01*
X18623229Y-10749771D01*
X18621441Y-10742632D01*
X18620361Y-10735351D01*
X18620000Y-10728000D01*
X18620000Y-10578000D01*
X18620361Y-10570649D01*
X18621441Y-10563368D01*
X18623229Y-10556229D01*
X18625709Y-10549299D01*
X18628856Y-10542645D01*
X18632640Y-10536332D01*
X18637024Y-10530421D01*
X18641967Y-10524967D01*
X18647421Y-10520024D01*
X18653332Y-10515640D01*
X18659645Y-10511856D01*
X18666299Y-10508709D01*
X18673229Y-10506229D01*
X18680368Y-10504441D01*
X18687649Y-10503361D01*
X18695000Y-10503000D01*
X20095000Y-10503000D01*
X20102351Y-10503361D01*
G37*
G04 #@! TD.AperFunction*
G04 #@! TA.AperFunction,SMDPad,CuDef*
G36*
X20102351Y-11003361D02*
G01*
X20109632Y-11004441D01*
X20116771Y-11006229D01*
X20123701Y-11008709D01*
X20130355Y-11011856D01*
X20136668Y-11015640D01*
X20142579Y-11020024D01*
X20148033Y-11024967D01*
X20152976Y-11030421D01*
X20157360Y-11036332D01*
X20161144Y-11042645D01*
X20164291Y-11049299D01*
X20166771Y-11056229D01*
X20168559Y-11063368D01*
X20169639Y-11070649D01*
X20170000Y-11078000D01*
X20170000Y-11228000D01*
X20169639Y-11235351D01*
X20168559Y-11242632D01*
X20166771Y-11249771D01*
X20164291Y-11256701D01*
X20161144Y-11263355D01*
X20157360Y-11269668D01*
X20152976Y-11275579D01*
X20148033Y-11281033D01*
X20142579Y-11285976D01*
X20136668Y-11290360D01*
X20130355Y-11294144D01*
X20123701Y-11297291D01*
X20116771Y-11299771D01*
X20109632Y-11301559D01*
X20102351Y-11302639D01*
X20095000Y-11303000D01*
X18695000Y-11303000D01*
X18687649Y-11302639D01*
X18680368Y-11301559D01*
X18673229Y-11299771D01*
X18666299Y-11297291D01*
X18659645Y-11294144D01*
X18653332Y-11290360D01*
X18647421Y-11285976D01*
X18641967Y-11281033D01*
X18637024Y-11275579D01*
X18632640Y-11269668D01*
X18628856Y-11263355D01*
X18625709Y-11256701D01*
X18623229Y-11249771D01*
X18621441Y-11242632D01*
X18620361Y-11235351D01*
X18620000Y-11228000D01*
X18620000Y-11078000D01*
X18620361Y-11070649D01*
X18621441Y-11063368D01*
X18623229Y-11056229D01*
X18625709Y-11049299D01*
X18628856Y-11042645D01*
X18632640Y-11036332D01*
X18637024Y-11030421D01*
X18641967Y-11024967D01*
X18647421Y-11020024D01*
X18653332Y-11015640D01*
X18659645Y-11011856D01*
X18666299Y-11008709D01*
X18673229Y-11006229D01*
X18680368Y-11004441D01*
X18687649Y-11003361D01*
X18695000Y-11003000D01*
X20095000Y-11003000D01*
X20102351Y-11003361D01*
G37*
G04 #@! TD.AperFunction*
D12*
X2290000Y-2450000D03*
X2290000Y-4990000D03*
X2290000Y-7530000D03*
X2290000Y-10070000D03*
X2290000Y-12610000D03*
G04 #@! TA.AperFunction,SMDPad,CuDef*
D11*
G36*
X22188505Y-4418204D02*
G01*
X22212773Y-4421804D01*
X22236572Y-4427765D01*
X22259671Y-4436030D01*
X22281850Y-4446520D01*
X22302893Y-4459132D01*
X22322599Y-4473747D01*
X22340777Y-4490223D01*
X22357253Y-4508401D01*
X22371868Y-4528107D01*
X22384480Y-4549150D01*
X22394970Y-4571329D01*
X22403235Y-4594428D01*
X22409196Y-4618227D01*
X22412796Y-4642495D01*
X22414000Y-4666999D01*
X22414000Y-5567001D01*
X22412796Y-5591505D01*
X22409196Y-5615773D01*
X22403235Y-5639572D01*
X22394970Y-5662671D01*
X22384480Y-5684850D01*
X22371868Y-5705893D01*
X22357253Y-5725599D01*
X22340777Y-5743777D01*
X22322599Y-5760253D01*
X22302893Y-5774868D01*
X22281850Y-5787480D01*
X22259671Y-5797970D01*
X22236572Y-5806235D01*
X22212773Y-5812196D01*
X22188505Y-5815796D01*
X22164001Y-5817000D01*
X21513999Y-5817000D01*
X21489495Y-5815796D01*
X21465227Y-5812196D01*
X21441428Y-5806235D01*
X21418329Y-5797970D01*
X21396150Y-5787480D01*
X21375107Y-5774868D01*
X21355401Y-5760253D01*
X21337223Y-5743777D01*
X21320747Y-5725599D01*
X21306132Y-5705893D01*
X21293520Y-5684850D01*
X21283030Y-5662671D01*
X21274765Y-5639572D01*
X21268804Y-5615773D01*
X21265204Y-5591505D01*
X21264000Y-5567001D01*
X21264000Y-4666999D01*
X21265204Y-4642495D01*
X21268804Y-4618227D01*
X21274765Y-4594428D01*
X21283030Y-4571329D01*
X21293520Y-4549150D01*
X21306132Y-4528107D01*
X21320747Y-4508401D01*
X21337223Y-4490223D01*
X21355401Y-4473747D01*
X21375107Y-4459132D01*
X21396150Y-4446520D01*
X21418329Y-4436030D01*
X21441428Y-4427765D01*
X21465227Y-4421804D01*
X21489495Y-4418204D01*
X21513999Y-4417000D01*
X22164001Y-4417000D01*
X22188505Y-4418204D01*
G37*
G04 #@! TD.AperFunction*
G04 #@! TA.AperFunction,SMDPad,CuDef*
G36*
X24238505Y-4418204D02*
G01*
X24262773Y-4421804D01*
X24286572Y-4427765D01*
X24309671Y-4436030D01*
X24331850Y-4446520D01*
X24352893Y-4459132D01*
X24372599Y-4473747D01*
X24390777Y-4490223D01*
X24407253Y-4508401D01*
X24421868Y-4528107D01*
X24434480Y-4549150D01*
X24444970Y-4571329D01*
X24453235Y-4594428D01*
X24459196Y-4618227D01*
X24462796Y-4642495D01*
X24464000Y-4666999D01*
X24464000Y-5567001D01*
X24462796Y-5591505D01*
X24459196Y-5615773D01*
X24453235Y-5639572D01*
X24444970Y-5662671D01*
X24434480Y-5684850D01*
X24421868Y-5705893D01*
X24407253Y-5725599D01*
X24390777Y-5743777D01*
X24372599Y-5760253D01*
X24352893Y-5774868D01*
X24331850Y-5787480D01*
X24309671Y-5797970D01*
X24286572Y-5806235D01*
X24262773Y-5812196D01*
X24238505Y-5815796D01*
X24214001Y-5817000D01*
X23563999Y-5817000D01*
X23539495Y-5815796D01*
X23515227Y-5812196D01*
X23491428Y-5806235D01*
X23468329Y-5797970D01*
X23446150Y-5787480D01*
X23425107Y-5774868D01*
X23405401Y-5760253D01*
X23387223Y-5743777D01*
X23370747Y-5725599D01*
X23356132Y-5705893D01*
X23343520Y-5684850D01*
X23333030Y-5662671D01*
X23324765Y-5639572D01*
X23318804Y-5615773D01*
X23315204Y-5591505D01*
X23314000Y-5567001D01*
X23314000Y-4666999D01*
X23315204Y-4642495D01*
X23318804Y-4618227D01*
X23324765Y-4594428D01*
X23333030Y-4571329D01*
X23343520Y-4549150D01*
X23356132Y-4528107D01*
X23370747Y-4508401D01*
X23387223Y-4490223D01*
X23405401Y-4473747D01*
X23425107Y-4459132D01*
X23446150Y-4446520D01*
X23468329Y-4436030D01*
X23491428Y-4427765D01*
X23515227Y-4421804D01*
X23539495Y-4418204D01*
X23563999Y-4417000D01*
X24214001Y-4417000D01*
X24238505Y-4418204D01*
G37*
G04 #@! TD.AperFunction*
G04 #@! TA.AperFunction,SMDPad,CuDef*
G36*
X24238505Y-12038204D02*
G01*
X24262773Y-12041804D01*
X24286572Y-12047765D01*
X24309671Y-12056030D01*
X24331850Y-12066520D01*
X24352893Y-12079132D01*
X24372599Y-12093747D01*
X24390777Y-12110223D01*
X24407253Y-12128401D01*
X24421868Y-12148107D01*
X24434480Y-12169150D01*
X24444970Y-12191329D01*
X24453235Y-12214428D01*
X24459196Y-12238227D01*
X24462796Y-12262495D01*
X24464000Y-12286999D01*
X24464000Y-13187001D01*
X24462796Y-13211505D01*
X24459196Y-13235773D01*
X24453235Y-13259572D01*
X24444970Y-13282671D01*
X24434480Y-13304850D01*
X24421868Y-13325893D01*
X24407253Y-13345599D01*
X24390777Y-13363777D01*
X24372599Y-13380253D01*
X24352893Y-13394868D01*
X24331850Y-13407480D01*
X24309671Y-13417970D01*
X24286572Y-13426235D01*
X24262773Y-13432196D01*
X24238505Y-13435796D01*
X24214001Y-13437000D01*
X23563999Y-13437000D01*
X23539495Y-13435796D01*
X23515227Y-13432196D01*
X23491428Y-13426235D01*
X23468329Y-13417970D01*
X23446150Y-13407480D01*
X23425107Y-13394868D01*
X23405401Y-13380253D01*
X23387223Y-13363777D01*
X23370747Y-13345599D01*
X23356132Y-13325893D01*
X23343520Y-13304850D01*
X23333030Y-13282671D01*
X23324765Y-13259572D01*
X23318804Y-13235773D01*
X23315204Y-13211505D01*
X23314000Y-13187001D01*
X23314000Y-12286999D01*
X23315204Y-12262495D01*
X23318804Y-12238227D01*
X23324765Y-12214428D01*
X23333030Y-12191329D01*
X23343520Y-12169150D01*
X23356132Y-12148107D01*
X23370747Y-12128401D01*
X23387223Y-12110223D01*
X23405401Y-12093747D01*
X23425107Y-12079132D01*
X23446150Y-12066520D01*
X23468329Y-12056030D01*
X23491428Y-12047765D01*
X23515227Y-12041804D01*
X23539495Y-12038204D01*
X23563999Y-12037000D01*
X24214001Y-12037000D01*
X24238505Y-12038204D01*
G37*
G04 #@! TD.AperFunction*
G04 #@! TA.AperFunction,SMDPad,CuDef*
G36*
X22188505Y-12038204D02*
G01*
X22212773Y-12041804D01*
X22236572Y-12047765D01*
X22259671Y-12056030D01*
X22281850Y-12066520D01*
X22302893Y-12079132D01*
X22322599Y-12093747D01*
X22340777Y-12110223D01*
X22357253Y-12128401D01*
X22371868Y-12148107D01*
X22384480Y-12169150D01*
X22394970Y-12191329D01*
X22403235Y-12214428D01*
X22409196Y-12238227D01*
X22412796Y-12262495D01*
X22414000Y-12286999D01*
X22414000Y-13187001D01*
X22412796Y-13211505D01*
X22409196Y-13235773D01*
X22403235Y-13259572D01*
X22394970Y-13282671D01*
X22384480Y-13304850D01*
X22371868Y-13325893D01*
X22357253Y-13345599D01*
X22340777Y-13363777D01*
X22322599Y-13380253D01*
X22302893Y-13394868D01*
X22281850Y-13407480D01*
X22259671Y-13417970D01*
X22236572Y-13426235D01*
X22212773Y-13432196D01*
X22188505Y-13435796D01*
X22164001Y-13437000D01*
X21513999Y-13437000D01*
X21489495Y-13435796D01*
X21465227Y-13432196D01*
X21441428Y-13426235D01*
X21418329Y-13417970D01*
X21396150Y-13407480D01*
X21375107Y-13394868D01*
X21355401Y-13380253D01*
X21337223Y-13363777D01*
X21320747Y-13345599D01*
X21306132Y-13325893D01*
X21293520Y-13304850D01*
X21283030Y-13282671D01*
X21274765Y-13259572D01*
X21268804Y-13235773D01*
X21265204Y-13211505D01*
X21264000Y-13187001D01*
X21264000Y-12286999D01*
X21265204Y-12262495D01*
X21268804Y-12238227D01*
X21274765Y-12214428D01*
X21283030Y-12191329D01*
X21293520Y-12169150D01*
X21306132Y-12148107D01*
X21320747Y-12128401D01*
X21337223Y-12110223D01*
X21355401Y-12093747D01*
X21375107Y-12079132D01*
X21396150Y-12066520D01*
X21418329Y-12056030D01*
X21441428Y-12047765D01*
X21465227Y-12041804D01*
X21489495Y-12038204D01*
X21513999Y-12037000D01*
X22164001Y-12037000D01*
X22188505Y-12038204D01*
G37*
G04 #@! TD.AperFunction*
D13*
X16895000Y-10070000D03*
X11243500Y-10641500D03*
X23880000Y-8546000D03*
X21848000Y-11721000D03*
X13720000Y-4228000D03*
X11116500Y-8546000D03*
X9910000Y-4863000D03*
X16463200Y-6006000D03*
X6672310Y-11145059D03*
X17974500Y-13054500D03*
X8893996Y-1713400D03*
X20705000Y-6006000D03*
X16466360Y-626280D03*
X18241200Y-8139600D03*
X5464994Y-1815000D03*
X15472600Y-11949600D03*
X6417500Y-6895000D03*
X6354000Y-4503000D03*
X11146000Y-6495000D03*
X6354000Y-5303000D03*
X11146000Y-7295000D03*
X4957000Y-13054500D03*
X10468800Y-3212000D03*
X9211500Y-10641500D03*
D14*
X23440000Y-9153000D02*
X19395000Y-9153000D01*
X23864000Y-10577000D02*
X23864000Y-9577000D01*
X23864000Y-9577000D02*
X23440000Y-9153000D01*
X23864000Y-12712000D02*
X23889000Y-12737000D01*
X23864000Y-10577000D02*
X23864000Y-12712000D01*
D15*
X19395000Y-5653000D02*
X17565500Y-5653000D01*
X16970000Y-1728000D02*
X16970000Y-3327500D01*
X23864000Y-5142000D02*
X23889000Y-5117000D01*
X23864000Y-7277000D02*
X23864000Y-5142000D01*
X23880000Y-7293000D02*
X23864000Y-7277000D01*
X23880000Y-8546000D02*
X23880000Y-7293000D01*
X16970000Y-13078000D02*
X16970000Y-11519000D01*
X21839000Y-10602000D02*
X21864000Y-10577000D01*
X21839000Y-11712000D02*
X21848000Y-11721000D01*
X21839000Y-11712000D02*
X21839000Y-10602000D01*
X21839000Y-12737000D02*
X21839000Y-11712000D01*
X23889000Y-4417000D02*
X22493500Y-3021500D01*
X22493500Y-3021500D02*
X18101500Y-3021500D01*
X23889000Y-5117000D02*
X23889000Y-4417000D01*
X16463200Y-6006000D02*
X16463200Y-5129690D01*
X16463200Y-5129690D02*
X16450500Y-5116990D01*
D14*
X21487000Y-8653000D02*
X19395000Y-8653000D01*
X21864000Y-7277000D02*
X21864000Y-8276000D01*
X21864000Y-8276000D02*
X21487000Y-8653000D01*
X21839000Y-7252000D02*
X21864000Y-7277000D01*
X21839000Y-5117000D02*
X21839000Y-7252000D01*
D15*
X8045000Y-11153000D02*
X6680251Y-11153000D01*
X6680251Y-11153000D02*
X6672310Y-11145059D01*
X17470000Y-13078000D02*
X17951000Y-13078000D01*
X17951000Y-13078000D02*
X17974500Y-13054500D01*
X17974500Y-13054500D02*
X18609500Y-13054500D01*
X19395000Y-12269000D02*
X19395000Y-11153000D01*
X18609500Y-13054500D02*
X19395000Y-12269000D01*
X8908596Y-1728000D02*
X8893996Y-1713400D01*
X9970000Y-1728000D02*
X8908596Y-1728000D01*
X20705000Y-6006000D02*
X20705000Y-5581736D01*
X20276264Y-5153000D02*
X20705000Y-5581736D01*
X19395000Y-5153000D02*
X20276264Y-5153000D01*
X16470000Y-1728000D02*
X16470000Y-629920D01*
X16470000Y-629920D02*
X16466360Y-626280D01*
D14*
X19395000Y-8153000D02*
X18254600Y-8153000D01*
X18254600Y-8153000D02*
X18241200Y-8139600D01*
X5164995Y-2114999D02*
X5464994Y-1815000D01*
X4829994Y-2450000D02*
X5164995Y-2114999D01*
X2290000Y-2450000D02*
X4829994Y-2450000D01*
X15470000Y-13078000D02*
X15470000Y-11952200D01*
X15470000Y-11952200D02*
X15472600Y-11949600D01*
X5782500Y-6260000D02*
X4512500Y-4990000D01*
X8045000Y-8653000D02*
X6842000Y-8653000D01*
X4512500Y-4990000D02*
X2290000Y-4990000D01*
X5782500Y-7593500D02*
X5782500Y-6260000D01*
X6842000Y-8653000D02*
X5782500Y-7593500D01*
X6417500Y-7657000D02*
X6417500Y-7319264D01*
X6417500Y-7319264D02*
X6417500Y-6895000D01*
X8045000Y-8153000D02*
X6913500Y-8153000D01*
X6913500Y-8153000D02*
X6417500Y-7657000D01*
X7995000Y-9203000D02*
X5388844Y-9203000D01*
X8045000Y-9153000D02*
X7995000Y-9203000D01*
X5388844Y-9203000D02*
X4785844Y-8600000D01*
X2290000Y-8365000D02*
X2290000Y-7530000D01*
X2525000Y-8600000D02*
X2290000Y-8365000D01*
X4785844Y-8600000D02*
X2525000Y-8600000D01*
X6554000Y-4703000D02*
X6354000Y-4503000D01*
X7995000Y-4703000D02*
X6554000Y-4703000D01*
X8045000Y-4653000D02*
X7995000Y-4703000D01*
X11146000Y-6495000D02*
X10946000Y-6695000D01*
X10946000Y-6695000D02*
X10462156Y-6695000D01*
X10462156Y-6695000D02*
X9964000Y-7193156D01*
X9964000Y-7193156D02*
X9964000Y-8717156D01*
X9478156Y-9203000D02*
X8095000Y-9203000D01*
X8095000Y-9203000D02*
X8045000Y-9153000D01*
X9964000Y-8717156D02*
X9478156Y-9203000D01*
X8045000Y-9653000D02*
X7995000Y-9603000D01*
X7995000Y-9603000D02*
X5223156Y-9603000D01*
X5223156Y-9603000D02*
X4620156Y-9000000D01*
X2290000Y-9235000D02*
X2290000Y-10070000D01*
X2525000Y-9000000D02*
X2290000Y-9235000D01*
X4620156Y-9000000D02*
X2525000Y-9000000D01*
X6554000Y-5103000D02*
X6354000Y-5303000D01*
X8045000Y-5153000D02*
X7995000Y-5103000D01*
X7995000Y-5103000D02*
X6554000Y-5103000D01*
X11146000Y-7295000D02*
X10946000Y-7095000D01*
X10946000Y-7095000D02*
X10627844Y-7095000D01*
X10627844Y-7095000D02*
X10364000Y-7358844D01*
X10364000Y-7358844D02*
X10364000Y-8882844D01*
X9643844Y-9603000D02*
X8095000Y-9603000D01*
X8095000Y-9603000D02*
X8045000Y-9653000D01*
X10364000Y-8882844D02*
X9643844Y-9603000D01*
X8045000Y-10153000D02*
X5382000Y-10153000D01*
X5382000Y-10153000D02*
X4258500Y-11276500D01*
X3760000Y-12610000D02*
X4258500Y-12111500D01*
X4258500Y-12111500D02*
X4258500Y-11276500D01*
X2290000Y-12610000D02*
X3760000Y-12610000D01*
X9970000Y-13078000D02*
X4980500Y-13078000D01*
X4980500Y-13078000D02*
X4957000Y-13054500D01*
D15*
X10470000Y-1728000D02*
X10470000Y-3210800D01*
X10470000Y-3210800D02*
X10468800Y-3212000D01*
X8045000Y-10653000D02*
X9200000Y-10653000D01*
X9200000Y-10653000D02*
X9211500Y-10641500D01*
D14*
G36*
X9795701Y-3007818D02*
G01*
X9768800Y-3143056D01*
X9768800Y-3280944D01*
X9795701Y-3416182D01*
X9848468Y-3543574D01*
X9925074Y-3658224D01*
X10022576Y-3755726D01*
X10137226Y-3832332D01*
X10264618Y-3885099D01*
X10399856Y-3912000D01*
X10537744Y-3912000D01*
X10672982Y-3885099D01*
X10800374Y-3832332D01*
X10915024Y-3755726D01*
X11012526Y-3658224D01*
X11089132Y-3543574D01*
X11141899Y-3416182D01*
X11168800Y-3280944D01*
X11168800Y-3143056D01*
X11141899Y-3007818D01*
X11110080Y-2931000D01*
X18192000Y-2931000D01*
X18192000Y-7439600D01*
X18172256Y-7439600D01*
X18037018Y-7466501D01*
X17909626Y-7519268D01*
X17794976Y-7595874D01*
X17697474Y-7693376D01*
X17620868Y-7808026D01*
X17568101Y-7935418D01*
X17541200Y-8070656D01*
X17541200Y-8208544D01*
X17568101Y-8343782D01*
X17620868Y-8471174D01*
X17697474Y-8585824D01*
X17794976Y-8683326D01*
X17909626Y-8759932D01*
X18037018Y-8812699D01*
X18172256Y-8839600D01*
X18192000Y-8839600D01*
X18192000Y-11875000D01*
X16171475Y-11875000D01*
X16145699Y-11745418D01*
X16092932Y-11618026D01*
X16016326Y-11503376D01*
X15918824Y-11405874D01*
X15804174Y-11329268D01*
X15676782Y-11276501D01*
X15541544Y-11249600D01*
X15403656Y-11249600D01*
X15268418Y-11276501D01*
X15141026Y-11329268D01*
X15026376Y-11405874D01*
X14928874Y-11503376D01*
X14852268Y-11618026D01*
X14799501Y-11745418D01*
X14773725Y-11875000D01*
X9248000Y-11875000D01*
X9248000Y-11341500D01*
X9280444Y-11341500D01*
X9415682Y-11314599D01*
X9543074Y-11261832D01*
X9657724Y-11185226D01*
X9755226Y-11087724D01*
X9831832Y-10973074D01*
X9884599Y-10845682D01*
X9911500Y-10710444D01*
X9911500Y-10572556D01*
X9884599Y-10437318D01*
X9831832Y-10309926D01*
X9755226Y-10195276D01*
X9663439Y-10103489D01*
X9668404Y-10103000D01*
X9741861Y-10095765D01*
X9836111Y-10067175D01*
X9922973Y-10020746D01*
X9999108Y-9958264D01*
X10014773Y-9939176D01*
X10700187Y-9253764D01*
X10719264Y-9238108D01*
X10781746Y-9161973D01*
X10828175Y-9075111D01*
X10856765Y-8980861D01*
X10864000Y-8907404D01*
X10864000Y-8907395D01*
X10866418Y-8882845D01*
X10864000Y-8858295D01*
X10864000Y-7935866D01*
X10941818Y-7968099D01*
X11077056Y-7995000D01*
X11214944Y-7995000D01*
X11350182Y-7968099D01*
X11477574Y-7915332D01*
X11592224Y-7838726D01*
X11689726Y-7741224D01*
X11766332Y-7626574D01*
X11819099Y-7499182D01*
X11846000Y-7363944D01*
X11846000Y-7226056D01*
X11819099Y-7090818D01*
X11766332Y-6963426D01*
X11720612Y-6895000D01*
X11766332Y-6826574D01*
X11819099Y-6699182D01*
X11846000Y-6563944D01*
X11846000Y-6426056D01*
X11819099Y-6290818D01*
X11766332Y-6163426D01*
X11689726Y-6048776D01*
X11592224Y-5951274D01*
X11477574Y-5874668D01*
X11350182Y-5821901D01*
X11214944Y-5795000D01*
X11077056Y-5795000D01*
X10941818Y-5821901D01*
X10814426Y-5874668D01*
X10699776Y-5951274D01*
X10602274Y-6048776D01*
X10525668Y-6163426D01*
X10512590Y-6195000D01*
X10486716Y-6195000D01*
X10462156Y-6192581D01*
X10364138Y-6202235D01*
X10335548Y-6210908D01*
X10269889Y-6230825D01*
X10183027Y-6277254D01*
X10106892Y-6339736D01*
X10091231Y-6358819D01*
X9627824Y-6822227D01*
X9608736Y-6837892D01*
X9546254Y-6914027D01*
X9499825Y-7000890D01*
X9493222Y-7022658D01*
X9471235Y-7095139D01*
X9461581Y-7193156D01*
X9464000Y-7217716D01*
X9464001Y-8510049D01*
X9271051Y-8703000D01*
X9248000Y-8703000D01*
X9248000Y-2931000D01*
X9827520Y-2931000D01*
X9795701Y-3007818D01*
G37*
X9795701Y-3007818D02*
X9768800Y-3143056D01*
X9768800Y-3280944D01*
X9795701Y-3416182D01*
X9848468Y-3543574D01*
X9925074Y-3658224D01*
X10022576Y-3755726D01*
X10137226Y-3832332D01*
X10264618Y-3885099D01*
X10399856Y-3912000D01*
X10537744Y-3912000D01*
X10672982Y-3885099D01*
X10800374Y-3832332D01*
X10915024Y-3755726D01*
X11012526Y-3658224D01*
X11089132Y-3543574D01*
X11141899Y-3416182D01*
X11168800Y-3280944D01*
X11168800Y-3143056D01*
X11141899Y-3007818D01*
X11110080Y-2931000D01*
X18192000Y-2931000D01*
X18192000Y-7439600D01*
X18172256Y-7439600D01*
X18037018Y-7466501D01*
X17909626Y-7519268D01*
X17794976Y-7595874D01*
X17697474Y-7693376D01*
X17620868Y-7808026D01*
X17568101Y-7935418D01*
X17541200Y-8070656D01*
X17541200Y-8208544D01*
X17568101Y-8343782D01*
X17620868Y-8471174D01*
X17697474Y-8585824D01*
X17794976Y-8683326D01*
X17909626Y-8759932D01*
X18037018Y-8812699D01*
X18172256Y-8839600D01*
X18192000Y-8839600D01*
X18192000Y-11875000D01*
X16171475Y-11875000D01*
X16145699Y-11745418D01*
X16092932Y-11618026D01*
X16016326Y-11503376D01*
X15918824Y-11405874D01*
X15804174Y-11329268D01*
X15676782Y-11276501D01*
X15541544Y-11249600D01*
X15403656Y-11249600D01*
X15268418Y-11276501D01*
X15141026Y-11329268D01*
X15026376Y-11405874D01*
X14928874Y-11503376D01*
X14852268Y-11618026D01*
X14799501Y-11745418D01*
X14773725Y-11875000D01*
X9248000Y-11875000D01*
X9248000Y-11341500D01*
X9280444Y-11341500D01*
X9415682Y-11314599D01*
X9543074Y-11261832D01*
X9657724Y-11185226D01*
X9755226Y-11087724D01*
X9831832Y-10973074D01*
X9884599Y-10845682D01*
X9911500Y-10710444D01*
X9911500Y-10572556D01*
X9884599Y-10437318D01*
X9831832Y-10309926D01*
X9755226Y-10195276D01*
X9663439Y-10103489D01*
X9668404Y-10103000D01*
X9741861Y-10095765D01*
X9836111Y-10067175D01*
X9922973Y-10020746D01*
X9999108Y-9958264D01*
X10014773Y-9939176D01*
X10700187Y-9253764D01*
X10719264Y-9238108D01*
X10781746Y-9161973D01*
X10828175Y-9075111D01*
X10856765Y-8980861D01*
X10864000Y-8907404D01*
X10864000Y-8907395D01*
X10866418Y-8882845D01*
X10864000Y-8858295D01*
X10864000Y-7935866D01*
X10941818Y-7968099D01*
X11077056Y-7995000D01*
X11214944Y-7995000D01*
X11350182Y-7968099D01*
X11477574Y-7915332D01*
X11592224Y-7838726D01*
X11689726Y-7741224D01*
X11766332Y-7626574D01*
X11819099Y-7499182D01*
X11846000Y-7363944D01*
X11846000Y-7226056D01*
X11819099Y-7090818D01*
X11766332Y-6963426D01*
X11720612Y-6895000D01*
X11766332Y-6826574D01*
X11819099Y-6699182D01*
X11846000Y-6563944D01*
X11846000Y-6426056D01*
X11819099Y-6290818D01*
X11766332Y-6163426D01*
X11689726Y-6048776D01*
X11592224Y-5951274D01*
X11477574Y-5874668D01*
X11350182Y-5821901D01*
X11214944Y-5795000D01*
X11077056Y-5795000D01*
X10941818Y-5821901D01*
X10814426Y-5874668D01*
X10699776Y-5951274D01*
X10602274Y-6048776D01*
X10525668Y-6163426D01*
X10512590Y-6195000D01*
X10486716Y-6195000D01*
X10462156Y-6192581D01*
X10364138Y-6202235D01*
X10335548Y-6210908D01*
X10269889Y-6230825D01*
X10183027Y-6277254D01*
X10106892Y-6339736D01*
X10091231Y-6358819D01*
X9627824Y-6822227D01*
X9608736Y-6837892D01*
X9546254Y-6914027D01*
X9499825Y-7000890D01*
X9493222Y-7022658D01*
X9471235Y-7095139D01*
X9461581Y-7193156D01*
X9464000Y-7217716D01*
X9464001Y-8510049D01*
X9271051Y-8703000D01*
X9248000Y-8703000D01*
X9248000Y-2931000D01*
X9827520Y-2931000D01*
X9795701Y-3007818D01*
M02*
