M48
; DRILL file {KiCad 5.1.5} date Пн 24 фев 2020 19:09:02
; FORMAT={-:-/ absolute / metric / decimal}
; #@! TF.CreationDate,2020-02-24T19:09:02+03:00
; #@! TF.GenerationSoftware,Kicad,Pcbnew,5.1.5
; #@! TF.FileFunction,Plated,1,2,PTH
FMAT,2
METRIC
T1C0.300
%
G90
G05
T1
X4.957Y-13.054
X5.465Y-1.815
X6.354Y-4.503
X6.354Y-5.303
X6.417Y-6.895
X6.672Y-11.145
X8.894Y-1.713
X9.211Y-10.641
X9.91Y-4.863
X10.469Y-3.212
X11.117Y-8.546
X11.146Y-6.495
X11.146Y-7.295
X11.243Y-10.641
X13.72Y-4.228
X15.473Y-11.95
X16.463Y-6.006
X16.466Y-0.626
X16.895Y-10.07
X17.974Y-13.054
X18.241Y-8.14
X20.705Y-6.006
X21.848Y-11.721
X23.88Y-8.546
T0
M30
