G04 #@! TF.GenerationSoftware,KiCad,Pcbnew,5.1.5*
G04 #@! TF.CreationDate,2020-02-24T19:09:01+03:00*
G04 #@! TF.ProjectId,mod-lqfp64,6d6f642d-6c71-4667-9036-342e6b696361,rev?*
G04 #@! TF.SameCoordinates,PX1e84800PY280de80*
G04 #@! TF.FileFunction,Copper,L2,Bot*
G04 #@! TF.FilePolarity,Positive*
%FSLAX46Y46*%
G04 Gerber Fmt 4.6, Leading zero omitted, Abs format (unit mm)*
G04 Created by KiCad (PCBNEW 5.1.5) date 2020-02-24 19:09:01*
%MOMM*%
%LPD*%
G04 APERTURE LIST*
%ADD10R,2.540000X1.270000*%
%ADD11C,0.100000*%
%ADD12C,0.600000*%
%ADD13C,0.300000*%
%ADD14C,0.200000*%
G04 APERTURE END LIST*
D10*
X2342948Y-2450000D03*
X2342948Y-4990000D03*
X2342948Y-7530000D03*
X2342948Y-10070000D03*
X2342948Y-12610000D03*
G04 #@! TA.AperFunction,SMDPad,CuDef*
D11*
G36*
X16932625Y-3306444D02*
G01*
X16956893Y-3310044D01*
X16980692Y-3316005D01*
X17003791Y-3324270D01*
X17025970Y-3334760D01*
X17047013Y-3347372D01*
X17066719Y-3361987D01*
X17084897Y-3378463D01*
X17101373Y-3396641D01*
X17115988Y-3416347D01*
X17128600Y-3437390D01*
X17139090Y-3459569D01*
X17147355Y-3482668D01*
X17153316Y-3506467D01*
X17156916Y-3530735D01*
X17158120Y-3555239D01*
X17158120Y-4205241D01*
X17156916Y-4229745D01*
X17153316Y-4254013D01*
X17147355Y-4277812D01*
X17139090Y-4300911D01*
X17128600Y-4323090D01*
X17115988Y-4344133D01*
X17101373Y-4363839D01*
X17084897Y-4382017D01*
X17066719Y-4398493D01*
X17047013Y-4413108D01*
X17025970Y-4425720D01*
X17003791Y-4436210D01*
X16980692Y-4444475D01*
X16956893Y-4450436D01*
X16932625Y-4454036D01*
X16908121Y-4455240D01*
X16008119Y-4455240D01*
X15983615Y-4454036D01*
X15959347Y-4450436D01*
X15935548Y-4444475D01*
X15912449Y-4436210D01*
X15890270Y-4425720D01*
X15869227Y-4413108D01*
X15849521Y-4398493D01*
X15831343Y-4382017D01*
X15814867Y-4363839D01*
X15800252Y-4344133D01*
X15787640Y-4323090D01*
X15777150Y-4300911D01*
X15768885Y-4277812D01*
X15762924Y-4254013D01*
X15759324Y-4229745D01*
X15758120Y-4205241D01*
X15758120Y-3555239D01*
X15759324Y-3530735D01*
X15762924Y-3506467D01*
X15768885Y-3482668D01*
X15777150Y-3459569D01*
X15787640Y-3437390D01*
X15800252Y-3416347D01*
X15814867Y-3396641D01*
X15831343Y-3378463D01*
X15849521Y-3361987D01*
X15869227Y-3347372D01*
X15890270Y-3334760D01*
X15912449Y-3324270D01*
X15935548Y-3316005D01*
X15959347Y-3310044D01*
X15983615Y-3306444D01*
X16008119Y-3305240D01*
X16908121Y-3305240D01*
X16932625Y-3306444D01*
G37*
G04 #@! TD.AperFunction*
G04 #@! TA.AperFunction,SMDPad,CuDef*
G36*
X16932625Y-1256444D02*
G01*
X16956893Y-1260044D01*
X16980692Y-1266005D01*
X17003791Y-1274270D01*
X17025970Y-1284760D01*
X17047013Y-1297372D01*
X17066719Y-1311987D01*
X17084897Y-1328463D01*
X17101373Y-1346641D01*
X17115988Y-1366347D01*
X17128600Y-1387390D01*
X17139090Y-1409569D01*
X17147355Y-1432668D01*
X17153316Y-1456467D01*
X17156916Y-1480735D01*
X17158120Y-1505239D01*
X17158120Y-2155241D01*
X17156916Y-2179745D01*
X17153316Y-2204013D01*
X17147355Y-2227812D01*
X17139090Y-2250911D01*
X17128600Y-2273090D01*
X17115988Y-2294133D01*
X17101373Y-2313839D01*
X17084897Y-2332017D01*
X17066719Y-2348493D01*
X17047013Y-2363108D01*
X17025970Y-2375720D01*
X17003791Y-2386210D01*
X16980692Y-2394475D01*
X16956893Y-2400436D01*
X16932625Y-2404036D01*
X16908121Y-2405240D01*
X16008119Y-2405240D01*
X15983615Y-2404036D01*
X15959347Y-2400436D01*
X15935548Y-2394475D01*
X15912449Y-2386210D01*
X15890270Y-2375720D01*
X15869227Y-2363108D01*
X15849521Y-2348493D01*
X15831343Y-2332017D01*
X15814867Y-2313839D01*
X15800252Y-2294133D01*
X15787640Y-2273090D01*
X15777150Y-2250911D01*
X15768885Y-2227812D01*
X15762924Y-2204013D01*
X15759324Y-2179745D01*
X15758120Y-2155241D01*
X15758120Y-1505239D01*
X15759324Y-1480735D01*
X15762924Y-1456467D01*
X15768885Y-1432668D01*
X15777150Y-1409569D01*
X15787640Y-1387390D01*
X15800252Y-1366347D01*
X15814867Y-1346641D01*
X15831343Y-1328463D01*
X15849521Y-1311987D01*
X15869227Y-1297372D01*
X15890270Y-1284760D01*
X15912449Y-1274270D01*
X15935548Y-1266005D01*
X15959347Y-1260044D01*
X15983615Y-1256444D01*
X16008119Y-1255240D01*
X16908121Y-1255240D01*
X16932625Y-1256444D01*
G37*
G04 #@! TD.AperFunction*
G04 #@! TA.AperFunction,SMDPad,CuDef*
G36*
X17369505Y-10439704D02*
G01*
X17393773Y-10443304D01*
X17417572Y-10449265D01*
X17440671Y-10457530D01*
X17462850Y-10468020D01*
X17483893Y-10480632D01*
X17503599Y-10495247D01*
X17521777Y-10511723D01*
X17538253Y-10529901D01*
X17552868Y-10549607D01*
X17565480Y-10570650D01*
X17575970Y-10592829D01*
X17584235Y-10615928D01*
X17590196Y-10639727D01*
X17593796Y-10663995D01*
X17595000Y-10688499D01*
X17595000Y-11338501D01*
X17593796Y-11363005D01*
X17590196Y-11387273D01*
X17584235Y-11411072D01*
X17575970Y-11434171D01*
X17565480Y-11456350D01*
X17552868Y-11477393D01*
X17538253Y-11497099D01*
X17521777Y-11515277D01*
X17503599Y-11531753D01*
X17483893Y-11546368D01*
X17462850Y-11558980D01*
X17440671Y-11569470D01*
X17417572Y-11577735D01*
X17393773Y-11583696D01*
X17369505Y-11587296D01*
X17345001Y-11588500D01*
X16444999Y-11588500D01*
X16420495Y-11587296D01*
X16396227Y-11583696D01*
X16372428Y-11577735D01*
X16349329Y-11569470D01*
X16327150Y-11558980D01*
X16306107Y-11546368D01*
X16286401Y-11531753D01*
X16268223Y-11515277D01*
X16251747Y-11497099D01*
X16237132Y-11477393D01*
X16224520Y-11456350D01*
X16214030Y-11434171D01*
X16205765Y-11411072D01*
X16199804Y-11387273D01*
X16196204Y-11363005D01*
X16195000Y-11338501D01*
X16195000Y-10688499D01*
X16196204Y-10663995D01*
X16199804Y-10639727D01*
X16205765Y-10615928D01*
X16214030Y-10592829D01*
X16224520Y-10570650D01*
X16237132Y-10549607D01*
X16251747Y-10529901D01*
X16268223Y-10511723D01*
X16286401Y-10495247D01*
X16306107Y-10480632D01*
X16327150Y-10468020D01*
X16349329Y-10457530D01*
X16372428Y-10449265D01*
X16396227Y-10443304D01*
X16420495Y-10439704D01*
X16444999Y-10438500D01*
X17345001Y-10438500D01*
X17369505Y-10439704D01*
G37*
G04 #@! TD.AperFunction*
G04 #@! TA.AperFunction,SMDPad,CuDef*
G36*
X17369505Y-12489704D02*
G01*
X17393773Y-12493304D01*
X17417572Y-12499265D01*
X17440671Y-12507530D01*
X17462850Y-12518020D01*
X17483893Y-12530632D01*
X17503599Y-12545247D01*
X17521777Y-12561723D01*
X17538253Y-12579901D01*
X17552868Y-12599607D01*
X17565480Y-12620650D01*
X17575970Y-12642829D01*
X17584235Y-12665928D01*
X17590196Y-12689727D01*
X17593796Y-12713995D01*
X17595000Y-12738499D01*
X17595000Y-13388501D01*
X17593796Y-13413005D01*
X17590196Y-13437273D01*
X17584235Y-13461072D01*
X17575970Y-13484171D01*
X17565480Y-13506350D01*
X17552868Y-13527393D01*
X17538253Y-13547099D01*
X17521777Y-13565277D01*
X17503599Y-13581753D01*
X17483893Y-13596368D01*
X17462850Y-13608980D01*
X17440671Y-13619470D01*
X17417572Y-13627735D01*
X17393773Y-13633696D01*
X17369505Y-13637296D01*
X17345001Y-13638500D01*
X16444999Y-13638500D01*
X16420495Y-13637296D01*
X16396227Y-13633696D01*
X16372428Y-13627735D01*
X16349329Y-13619470D01*
X16327150Y-13608980D01*
X16306107Y-13596368D01*
X16286401Y-13581753D01*
X16268223Y-13565277D01*
X16251747Y-13547099D01*
X16237132Y-13527393D01*
X16224520Y-13506350D01*
X16214030Y-13484171D01*
X16205765Y-13461072D01*
X16199804Y-13437273D01*
X16196204Y-13413005D01*
X16195000Y-13388501D01*
X16195000Y-12738499D01*
X16196204Y-12713995D01*
X16199804Y-12689727D01*
X16205765Y-12665928D01*
X16214030Y-12642829D01*
X16224520Y-12620650D01*
X16237132Y-12599607D01*
X16251747Y-12579901D01*
X16268223Y-12561723D01*
X16286401Y-12545247D01*
X16306107Y-12530632D01*
X16327150Y-12518020D01*
X16349329Y-12507530D01*
X16372428Y-12499265D01*
X16396227Y-12493304D01*
X16420495Y-12489704D01*
X16444999Y-12488500D01*
X17345001Y-12488500D01*
X17369505Y-12489704D01*
G37*
G04 #@! TD.AperFunction*
G04 #@! TA.AperFunction,SMDPad,CuDef*
G36*
X5177505Y-7201204D02*
G01*
X5201773Y-7204804D01*
X5225572Y-7210765D01*
X5248671Y-7219030D01*
X5270850Y-7229520D01*
X5291893Y-7242132D01*
X5311599Y-7256747D01*
X5329777Y-7273223D01*
X5346253Y-7291401D01*
X5360868Y-7311107D01*
X5373480Y-7332150D01*
X5383970Y-7354329D01*
X5392235Y-7377428D01*
X5398196Y-7401227D01*
X5401796Y-7425495D01*
X5403000Y-7449999D01*
X5403000Y-8100001D01*
X5401796Y-8124505D01*
X5398196Y-8148773D01*
X5392235Y-8172572D01*
X5383970Y-8195671D01*
X5373480Y-8217850D01*
X5360868Y-8238893D01*
X5346253Y-8258599D01*
X5329777Y-8276777D01*
X5311599Y-8293253D01*
X5291893Y-8307868D01*
X5270850Y-8320480D01*
X5248671Y-8330970D01*
X5225572Y-8339235D01*
X5201773Y-8345196D01*
X5177505Y-8348796D01*
X5153001Y-8350000D01*
X4252999Y-8350000D01*
X4228495Y-8348796D01*
X4204227Y-8345196D01*
X4180428Y-8339235D01*
X4157329Y-8330970D01*
X4135150Y-8320480D01*
X4114107Y-8307868D01*
X4094401Y-8293253D01*
X4076223Y-8276777D01*
X4059747Y-8258599D01*
X4045132Y-8238893D01*
X4032520Y-8217850D01*
X4022030Y-8195671D01*
X4013765Y-8172572D01*
X4007804Y-8148773D01*
X4004204Y-8124505D01*
X4003000Y-8100001D01*
X4003000Y-7449999D01*
X4004204Y-7425495D01*
X4007804Y-7401227D01*
X4013765Y-7377428D01*
X4022030Y-7354329D01*
X4032520Y-7332150D01*
X4045132Y-7311107D01*
X4059747Y-7291401D01*
X4076223Y-7273223D01*
X4094401Y-7256747D01*
X4114107Y-7242132D01*
X4135150Y-7229520D01*
X4157329Y-7219030D01*
X4180428Y-7210765D01*
X4204227Y-7204804D01*
X4228495Y-7201204D01*
X4252999Y-7200000D01*
X5153001Y-7200000D01*
X5177505Y-7201204D01*
G37*
G04 #@! TD.AperFunction*
G04 #@! TA.AperFunction,SMDPad,CuDef*
G36*
X5177505Y-9251204D02*
G01*
X5201773Y-9254804D01*
X5225572Y-9260765D01*
X5248671Y-9269030D01*
X5270850Y-9279520D01*
X5291893Y-9292132D01*
X5311599Y-9306747D01*
X5329777Y-9323223D01*
X5346253Y-9341401D01*
X5360868Y-9361107D01*
X5373480Y-9382150D01*
X5383970Y-9404329D01*
X5392235Y-9427428D01*
X5398196Y-9451227D01*
X5401796Y-9475495D01*
X5403000Y-9499999D01*
X5403000Y-10150001D01*
X5401796Y-10174505D01*
X5398196Y-10198773D01*
X5392235Y-10222572D01*
X5383970Y-10245671D01*
X5373480Y-10267850D01*
X5360868Y-10288893D01*
X5346253Y-10308599D01*
X5329777Y-10326777D01*
X5311599Y-10343253D01*
X5291893Y-10357868D01*
X5270850Y-10370480D01*
X5248671Y-10380970D01*
X5225572Y-10389235D01*
X5201773Y-10395196D01*
X5177505Y-10398796D01*
X5153001Y-10400000D01*
X4252999Y-10400000D01*
X4228495Y-10398796D01*
X4204227Y-10395196D01*
X4180428Y-10389235D01*
X4157329Y-10380970D01*
X4135150Y-10370480D01*
X4114107Y-10357868D01*
X4094401Y-10343253D01*
X4076223Y-10326777D01*
X4059747Y-10308599D01*
X4045132Y-10288893D01*
X4032520Y-10267850D01*
X4022030Y-10245671D01*
X4013765Y-10222572D01*
X4007804Y-10198773D01*
X4004204Y-10174505D01*
X4003000Y-10150001D01*
X4003000Y-9499999D01*
X4004204Y-9475495D01*
X4007804Y-9451227D01*
X4013765Y-9427428D01*
X4022030Y-9404329D01*
X4032520Y-9382150D01*
X4045132Y-9361107D01*
X4059747Y-9341401D01*
X4076223Y-9323223D01*
X4094401Y-9306747D01*
X4114107Y-9292132D01*
X4135150Y-9279520D01*
X4157329Y-9269030D01*
X4180428Y-9260765D01*
X4204227Y-9254804D01*
X4228495Y-9251204D01*
X4252999Y-9250000D01*
X5153001Y-9250000D01*
X5177505Y-9251204D01*
G37*
G04 #@! TD.AperFunction*
G04 #@! TA.AperFunction,SMDPad,CuDef*
G36*
X17870505Y-5307204D02*
G01*
X17894773Y-5310804D01*
X17918572Y-5316765D01*
X17941671Y-5325030D01*
X17963850Y-5335520D01*
X17984893Y-5348132D01*
X18004599Y-5362747D01*
X18022777Y-5379223D01*
X18039253Y-5397401D01*
X18053868Y-5417107D01*
X18066480Y-5438150D01*
X18076970Y-5460329D01*
X18085235Y-5483428D01*
X18091196Y-5507227D01*
X18094796Y-5531495D01*
X18096000Y-5555999D01*
X18096000Y-6456001D01*
X18094796Y-6480505D01*
X18091196Y-6504773D01*
X18085235Y-6528572D01*
X18076970Y-6551671D01*
X18066480Y-6573850D01*
X18053868Y-6594893D01*
X18039253Y-6614599D01*
X18022777Y-6632777D01*
X18004599Y-6649253D01*
X17984893Y-6663868D01*
X17963850Y-6676480D01*
X17941671Y-6686970D01*
X17918572Y-6695235D01*
X17894773Y-6701196D01*
X17870505Y-6704796D01*
X17846001Y-6706000D01*
X17195999Y-6706000D01*
X17171495Y-6704796D01*
X17147227Y-6701196D01*
X17123428Y-6695235D01*
X17100329Y-6686970D01*
X17078150Y-6676480D01*
X17057107Y-6663868D01*
X17037401Y-6649253D01*
X17019223Y-6632777D01*
X17002747Y-6614599D01*
X16988132Y-6594893D01*
X16975520Y-6573850D01*
X16965030Y-6551671D01*
X16956765Y-6528572D01*
X16950804Y-6504773D01*
X16947204Y-6480505D01*
X16946000Y-6456001D01*
X16946000Y-5555999D01*
X16947204Y-5531495D01*
X16950804Y-5507227D01*
X16956765Y-5483428D01*
X16965030Y-5460329D01*
X16975520Y-5438150D01*
X16988132Y-5417107D01*
X17002747Y-5397401D01*
X17019223Y-5379223D01*
X17037401Y-5362747D01*
X17057107Y-5348132D01*
X17078150Y-5335520D01*
X17100329Y-5325030D01*
X17123428Y-5316765D01*
X17147227Y-5310804D01*
X17171495Y-5307204D01*
X17195999Y-5306000D01*
X17846001Y-5306000D01*
X17870505Y-5307204D01*
G37*
G04 #@! TD.AperFunction*
G04 #@! TA.AperFunction,SMDPad,CuDef*
G36*
X19920505Y-5307204D02*
G01*
X19944773Y-5310804D01*
X19968572Y-5316765D01*
X19991671Y-5325030D01*
X20013850Y-5335520D01*
X20034893Y-5348132D01*
X20054599Y-5362747D01*
X20072777Y-5379223D01*
X20089253Y-5397401D01*
X20103868Y-5417107D01*
X20116480Y-5438150D01*
X20126970Y-5460329D01*
X20135235Y-5483428D01*
X20141196Y-5507227D01*
X20144796Y-5531495D01*
X20146000Y-5555999D01*
X20146000Y-6456001D01*
X20144796Y-6480505D01*
X20141196Y-6504773D01*
X20135235Y-6528572D01*
X20126970Y-6551671D01*
X20116480Y-6573850D01*
X20103868Y-6594893D01*
X20089253Y-6614599D01*
X20072777Y-6632777D01*
X20054599Y-6649253D01*
X20034893Y-6663868D01*
X20013850Y-6676480D01*
X19991671Y-6686970D01*
X19968572Y-6695235D01*
X19944773Y-6701196D01*
X19920505Y-6704796D01*
X19896001Y-6706000D01*
X19245999Y-6706000D01*
X19221495Y-6704796D01*
X19197227Y-6701196D01*
X19173428Y-6695235D01*
X19150329Y-6686970D01*
X19128150Y-6676480D01*
X19107107Y-6663868D01*
X19087401Y-6649253D01*
X19069223Y-6632777D01*
X19052747Y-6614599D01*
X19038132Y-6594893D01*
X19025520Y-6573850D01*
X19015030Y-6551671D01*
X19006765Y-6528572D01*
X19000804Y-6504773D01*
X18997204Y-6480505D01*
X18996000Y-6456001D01*
X18996000Y-5555999D01*
X18997204Y-5531495D01*
X19000804Y-5507227D01*
X19006765Y-5483428D01*
X19015030Y-5460329D01*
X19025520Y-5438150D01*
X19038132Y-5417107D01*
X19052747Y-5397401D01*
X19069223Y-5379223D01*
X19087401Y-5362747D01*
X19107107Y-5348132D01*
X19128150Y-5335520D01*
X19150329Y-5325030D01*
X19173428Y-5316765D01*
X19197227Y-5310804D01*
X19221495Y-5307204D01*
X19245999Y-5306000D01*
X19896001Y-5306000D01*
X19920505Y-5307204D01*
G37*
G04 #@! TD.AperFunction*
G04 #@! TA.AperFunction,SMDPad,CuDef*
G36*
X9368505Y-4298204D02*
G01*
X9392773Y-4301804D01*
X9416572Y-4307765D01*
X9439671Y-4316030D01*
X9461850Y-4326520D01*
X9482893Y-4339132D01*
X9502599Y-4353747D01*
X9520777Y-4370223D01*
X9537253Y-4388401D01*
X9551868Y-4408107D01*
X9564480Y-4429150D01*
X9574970Y-4451329D01*
X9583235Y-4474428D01*
X9589196Y-4498227D01*
X9592796Y-4522495D01*
X9594000Y-4546999D01*
X9594000Y-5197001D01*
X9592796Y-5221505D01*
X9589196Y-5245773D01*
X9583235Y-5269572D01*
X9574970Y-5292671D01*
X9564480Y-5314850D01*
X9551868Y-5335893D01*
X9537253Y-5355599D01*
X9520777Y-5373777D01*
X9502599Y-5390253D01*
X9482893Y-5404868D01*
X9461850Y-5417480D01*
X9439671Y-5427970D01*
X9416572Y-5436235D01*
X9392773Y-5442196D01*
X9368505Y-5445796D01*
X9344001Y-5447000D01*
X8443999Y-5447000D01*
X8419495Y-5445796D01*
X8395227Y-5442196D01*
X8371428Y-5436235D01*
X8348329Y-5427970D01*
X8326150Y-5417480D01*
X8305107Y-5404868D01*
X8285401Y-5390253D01*
X8267223Y-5373777D01*
X8250747Y-5355599D01*
X8236132Y-5335893D01*
X8223520Y-5314850D01*
X8213030Y-5292671D01*
X8204765Y-5269572D01*
X8198804Y-5245773D01*
X8195204Y-5221505D01*
X8194000Y-5197001D01*
X8194000Y-4546999D01*
X8195204Y-4522495D01*
X8198804Y-4498227D01*
X8204765Y-4474428D01*
X8213030Y-4451329D01*
X8223520Y-4429150D01*
X8236132Y-4408107D01*
X8250747Y-4388401D01*
X8267223Y-4370223D01*
X8285401Y-4353747D01*
X8305107Y-4339132D01*
X8326150Y-4326520D01*
X8348329Y-4316030D01*
X8371428Y-4307765D01*
X8395227Y-4301804D01*
X8419495Y-4298204D01*
X8443999Y-4297000D01*
X9344001Y-4297000D01*
X9368505Y-4298204D01*
G37*
G04 #@! TD.AperFunction*
G04 #@! TA.AperFunction,SMDPad,CuDef*
G36*
X9368505Y-2248204D02*
G01*
X9392773Y-2251804D01*
X9416572Y-2257765D01*
X9439671Y-2266030D01*
X9461850Y-2276520D01*
X9482893Y-2289132D01*
X9502599Y-2303747D01*
X9520777Y-2320223D01*
X9537253Y-2338401D01*
X9551868Y-2358107D01*
X9564480Y-2379150D01*
X9574970Y-2401329D01*
X9583235Y-2424428D01*
X9589196Y-2448227D01*
X9592796Y-2472495D01*
X9594000Y-2496999D01*
X9594000Y-3147001D01*
X9592796Y-3171505D01*
X9589196Y-3195773D01*
X9583235Y-3219572D01*
X9574970Y-3242671D01*
X9564480Y-3264850D01*
X9551868Y-3285893D01*
X9537253Y-3305599D01*
X9520777Y-3323777D01*
X9502599Y-3340253D01*
X9482893Y-3354868D01*
X9461850Y-3367480D01*
X9439671Y-3377970D01*
X9416572Y-3386235D01*
X9392773Y-3392196D01*
X9368505Y-3395796D01*
X9344001Y-3397000D01*
X8443999Y-3397000D01*
X8419495Y-3395796D01*
X8395227Y-3392196D01*
X8371428Y-3386235D01*
X8348329Y-3377970D01*
X8326150Y-3367480D01*
X8305107Y-3354868D01*
X8285401Y-3340253D01*
X8267223Y-3323777D01*
X8250747Y-3305599D01*
X8236132Y-3285893D01*
X8223520Y-3264850D01*
X8213030Y-3242671D01*
X8204765Y-3219572D01*
X8198804Y-3195773D01*
X8195204Y-3171505D01*
X8194000Y-3147001D01*
X8194000Y-2496999D01*
X8195204Y-2472495D01*
X8198804Y-2448227D01*
X8204765Y-2424428D01*
X8213030Y-2401329D01*
X8223520Y-2379150D01*
X8236132Y-2358107D01*
X8250747Y-2338401D01*
X8267223Y-2320223D01*
X8285401Y-2303747D01*
X8305107Y-2289132D01*
X8326150Y-2276520D01*
X8348329Y-2266030D01*
X8371428Y-2257765D01*
X8395227Y-2251804D01*
X8419495Y-2248204D01*
X8443999Y-2247000D01*
X9344001Y-2247000D01*
X9368505Y-2248204D01*
G37*
G04 #@! TD.AperFunction*
G04 #@! TA.AperFunction,SMDPad,CuDef*
G36*
X10649505Y-9942704D02*
G01*
X10673773Y-9946304D01*
X10697572Y-9952265D01*
X10720671Y-9960530D01*
X10742850Y-9971020D01*
X10763893Y-9983632D01*
X10783599Y-9998247D01*
X10801777Y-10014723D01*
X10818253Y-10032901D01*
X10832868Y-10052607D01*
X10845480Y-10073650D01*
X10855970Y-10095829D01*
X10864235Y-10118928D01*
X10870196Y-10142727D01*
X10873796Y-10166995D01*
X10875000Y-10191499D01*
X10875000Y-11091501D01*
X10873796Y-11116005D01*
X10870196Y-11140273D01*
X10864235Y-11164072D01*
X10855970Y-11187171D01*
X10845480Y-11209350D01*
X10832868Y-11230393D01*
X10818253Y-11250099D01*
X10801777Y-11268277D01*
X10783599Y-11284753D01*
X10763893Y-11299368D01*
X10742850Y-11311980D01*
X10720671Y-11322470D01*
X10697572Y-11330735D01*
X10673773Y-11336696D01*
X10649505Y-11340296D01*
X10625001Y-11341500D01*
X9974999Y-11341500D01*
X9950495Y-11340296D01*
X9926227Y-11336696D01*
X9902428Y-11330735D01*
X9879329Y-11322470D01*
X9857150Y-11311980D01*
X9836107Y-11299368D01*
X9816401Y-11284753D01*
X9798223Y-11268277D01*
X9781747Y-11250099D01*
X9767132Y-11230393D01*
X9754520Y-11209350D01*
X9744030Y-11187171D01*
X9735765Y-11164072D01*
X9729804Y-11140273D01*
X9726204Y-11116005D01*
X9725000Y-11091501D01*
X9725000Y-10191499D01*
X9726204Y-10166995D01*
X9729804Y-10142727D01*
X9735765Y-10118928D01*
X9744030Y-10095829D01*
X9754520Y-10073650D01*
X9767132Y-10052607D01*
X9781747Y-10032901D01*
X9798223Y-10014723D01*
X9816401Y-9998247D01*
X9836107Y-9983632D01*
X9857150Y-9971020D01*
X9879329Y-9960530D01*
X9902428Y-9952265D01*
X9926227Y-9946304D01*
X9950495Y-9942704D01*
X9974999Y-9941500D01*
X10625001Y-9941500D01*
X10649505Y-9942704D01*
G37*
G04 #@! TD.AperFunction*
G04 #@! TA.AperFunction,SMDPad,CuDef*
G36*
X8599505Y-9942704D02*
G01*
X8623773Y-9946304D01*
X8647572Y-9952265D01*
X8670671Y-9960530D01*
X8692850Y-9971020D01*
X8713893Y-9983632D01*
X8733599Y-9998247D01*
X8751777Y-10014723D01*
X8768253Y-10032901D01*
X8782868Y-10052607D01*
X8795480Y-10073650D01*
X8805970Y-10095829D01*
X8814235Y-10118928D01*
X8820196Y-10142727D01*
X8823796Y-10166995D01*
X8825000Y-10191499D01*
X8825000Y-11091501D01*
X8823796Y-11116005D01*
X8820196Y-11140273D01*
X8814235Y-11164072D01*
X8805970Y-11187171D01*
X8795480Y-11209350D01*
X8782868Y-11230393D01*
X8768253Y-11250099D01*
X8751777Y-11268277D01*
X8733599Y-11284753D01*
X8713893Y-11299368D01*
X8692850Y-11311980D01*
X8670671Y-11322470D01*
X8647572Y-11330735D01*
X8623773Y-11336696D01*
X8599505Y-11340296D01*
X8575001Y-11341500D01*
X7924999Y-11341500D01*
X7900495Y-11340296D01*
X7876227Y-11336696D01*
X7852428Y-11330735D01*
X7829329Y-11322470D01*
X7807150Y-11311980D01*
X7786107Y-11299368D01*
X7766401Y-11284753D01*
X7748223Y-11268277D01*
X7731747Y-11250099D01*
X7717132Y-11230393D01*
X7704520Y-11209350D01*
X7694030Y-11187171D01*
X7685765Y-11164072D01*
X7679804Y-11140273D01*
X7676204Y-11116005D01*
X7675000Y-11091501D01*
X7675000Y-10191499D01*
X7676204Y-10166995D01*
X7679804Y-10142727D01*
X7685765Y-10118928D01*
X7694030Y-10095829D01*
X7704520Y-10073650D01*
X7717132Y-10052607D01*
X7731747Y-10032901D01*
X7748223Y-10014723D01*
X7766401Y-9998247D01*
X7786107Y-9983632D01*
X7807150Y-9971020D01*
X7829329Y-9960530D01*
X7852428Y-9952265D01*
X7876227Y-9946304D01*
X7900495Y-9942704D01*
X7924999Y-9941500D01*
X8575001Y-9941500D01*
X8599505Y-9942704D01*
G37*
G04 #@! TD.AperFunction*
G04 #@! TA.AperFunction,SMDPad,CuDef*
G36*
X14078505Y-2513204D02*
G01*
X14102773Y-2516804D01*
X14126572Y-2522765D01*
X14149671Y-2531030D01*
X14171850Y-2541520D01*
X14192893Y-2554132D01*
X14212599Y-2568747D01*
X14230777Y-2585223D01*
X14247253Y-2603401D01*
X14261868Y-2623107D01*
X14274480Y-2644150D01*
X14284970Y-2666329D01*
X14293235Y-2689428D01*
X14299196Y-2713227D01*
X14302796Y-2737495D01*
X14304000Y-2761999D01*
X14304000Y-3662001D01*
X14302796Y-3686505D01*
X14299196Y-3710773D01*
X14293235Y-3734572D01*
X14284970Y-3757671D01*
X14274480Y-3779850D01*
X14261868Y-3800893D01*
X14247253Y-3820599D01*
X14230777Y-3838777D01*
X14212599Y-3855253D01*
X14192893Y-3869868D01*
X14171850Y-3882480D01*
X14149671Y-3892970D01*
X14126572Y-3901235D01*
X14102773Y-3907196D01*
X14078505Y-3910796D01*
X14054001Y-3912000D01*
X13403999Y-3912000D01*
X13379495Y-3910796D01*
X13355227Y-3907196D01*
X13331428Y-3901235D01*
X13308329Y-3892970D01*
X13286150Y-3882480D01*
X13265107Y-3869868D01*
X13245401Y-3855253D01*
X13227223Y-3838777D01*
X13210747Y-3820599D01*
X13196132Y-3800893D01*
X13183520Y-3779850D01*
X13173030Y-3757671D01*
X13164765Y-3734572D01*
X13158804Y-3710773D01*
X13155204Y-3686505D01*
X13154000Y-3662001D01*
X13154000Y-2761999D01*
X13155204Y-2737495D01*
X13158804Y-2713227D01*
X13164765Y-2689428D01*
X13173030Y-2666329D01*
X13183520Y-2644150D01*
X13196132Y-2623107D01*
X13210747Y-2603401D01*
X13227223Y-2585223D01*
X13245401Y-2568747D01*
X13265107Y-2554132D01*
X13286150Y-2541520D01*
X13308329Y-2531030D01*
X13331428Y-2522765D01*
X13355227Y-2516804D01*
X13379495Y-2513204D01*
X13403999Y-2512000D01*
X14054001Y-2512000D01*
X14078505Y-2513204D01*
G37*
G04 #@! TD.AperFunction*
G04 #@! TA.AperFunction,SMDPad,CuDef*
G36*
X12028505Y-2513204D02*
G01*
X12052773Y-2516804D01*
X12076572Y-2522765D01*
X12099671Y-2531030D01*
X12121850Y-2541520D01*
X12142893Y-2554132D01*
X12162599Y-2568747D01*
X12180777Y-2585223D01*
X12197253Y-2603401D01*
X12211868Y-2623107D01*
X12224480Y-2644150D01*
X12234970Y-2666329D01*
X12243235Y-2689428D01*
X12249196Y-2713227D01*
X12252796Y-2737495D01*
X12254000Y-2761999D01*
X12254000Y-3662001D01*
X12252796Y-3686505D01*
X12249196Y-3710773D01*
X12243235Y-3734572D01*
X12234970Y-3757671D01*
X12224480Y-3779850D01*
X12211868Y-3800893D01*
X12197253Y-3820599D01*
X12180777Y-3838777D01*
X12162599Y-3855253D01*
X12142893Y-3869868D01*
X12121850Y-3882480D01*
X12099671Y-3892970D01*
X12076572Y-3901235D01*
X12052773Y-3907196D01*
X12028505Y-3910796D01*
X12004001Y-3912000D01*
X11353999Y-3912000D01*
X11329495Y-3910796D01*
X11305227Y-3907196D01*
X11281428Y-3901235D01*
X11258329Y-3892970D01*
X11236150Y-3882480D01*
X11215107Y-3869868D01*
X11195401Y-3855253D01*
X11177223Y-3838777D01*
X11160747Y-3820599D01*
X11146132Y-3800893D01*
X11133520Y-3779850D01*
X11123030Y-3757671D01*
X11114765Y-3734572D01*
X11108804Y-3710773D01*
X11105204Y-3686505D01*
X11104000Y-3662001D01*
X11104000Y-2761999D01*
X11105204Y-2737495D01*
X11108804Y-2713227D01*
X11114765Y-2689428D01*
X11123030Y-2666329D01*
X11133520Y-2644150D01*
X11146132Y-2623107D01*
X11160747Y-2603401D01*
X11177223Y-2585223D01*
X11195401Y-2568747D01*
X11215107Y-2554132D01*
X11236150Y-2541520D01*
X11258329Y-2531030D01*
X11281428Y-2522765D01*
X11305227Y-2516804D01*
X11329495Y-2513204D01*
X11353999Y-2512000D01*
X12004001Y-2512000D01*
X12028505Y-2513204D01*
G37*
G04 #@! TD.AperFunction*
D12*
X16895000Y-10070000D03*
X11243500Y-10641500D03*
X23880000Y-8546000D03*
X21848000Y-11721000D03*
X13720000Y-4228000D03*
X11116500Y-8546000D03*
X9910000Y-4863000D03*
X16463200Y-6006000D03*
X6672310Y-11145059D03*
X17974500Y-13054500D03*
X8893996Y-1713400D03*
X20705000Y-6006000D03*
X16466360Y-626280D03*
X18241200Y-8139600D03*
X5464994Y-1815000D03*
X15472600Y-11949600D03*
X6417500Y-6895000D03*
X6354000Y-4503000D03*
X11146000Y-6495000D03*
X6354000Y-5303000D03*
X11146000Y-7295000D03*
X4957000Y-13054500D03*
X10468800Y-3212000D03*
X9211500Y-10641500D03*
D13*
X16895000Y-11013500D02*
X16895000Y-10070000D01*
X10300000Y-10641500D02*
X11243500Y-10641500D01*
X21848000Y-11721000D02*
X23880000Y-9689000D01*
X23880000Y-9689000D02*
X23880000Y-8546000D01*
X2587948Y-7775000D02*
X2342948Y-7530000D01*
X4703000Y-7775000D02*
X2587948Y-7775000D01*
X13729000Y-3212000D02*
X13729000Y-4219000D01*
X13729000Y-4219000D02*
X13720000Y-4228000D01*
X10345500Y-7775000D02*
X11116500Y-8546000D01*
X4703000Y-7775000D02*
X10345500Y-7775000D01*
X8894000Y-4872000D02*
X9901000Y-4872000D01*
X9901000Y-4872000D02*
X9910000Y-4863000D01*
X17521000Y-6006000D02*
X16463200Y-6006000D01*
X16450500Y-5993300D02*
X16463200Y-6006000D01*
X16450500Y-3881400D02*
X16450500Y-5993300D01*
X16904000Y-13054500D02*
X16895000Y-13063500D01*
X17974500Y-13054500D02*
X16904000Y-13054500D01*
X12196000Y-9308000D02*
X7052500Y-9308000D01*
X14364000Y-13063500D02*
X16895000Y-13063500D01*
X12196000Y-9308000D02*
X12196000Y-10895500D01*
X12196000Y-10895500D02*
X14364000Y-13063500D01*
X2587948Y-9825000D02*
X2342948Y-10070000D01*
X4703000Y-9825000D02*
X2587948Y-9825000D01*
X6535500Y-9825000D02*
X7052500Y-9308000D01*
X4703000Y-9825000D02*
X6535500Y-9825000D01*
X5270059Y-11145059D02*
X6672310Y-11145059D01*
X4703000Y-9825000D02*
X4703000Y-10578000D01*
X4703000Y-10578000D02*
X5270059Y-11145059D01*
X12196000Y-9308000D02*
X12196000Y-7530000D01*
X9275000Y-2822000D02*
X9275000Y-2831000D01*
X8893996Y-2712996D02*
X8893996Y-2137664D01*
X9266000Y-3085000D02*
X8893996Y-2712996D01*
X8893996Y-2137664D02*
X8893996Y-1713400D01*
X8894000Y-2822000D02*
X9012000Y-2822000D01*
X9012000Y-2822000D02*
X12196000Y-6006000D01*
X12196000Y-6006000D02*
X12196000Y-6133000D01*
X12196000Y-6133000D02*
X12196000Y-7530000D01*
X19571000Y-6006000D02*
X20705000Y-6006000D01*
X16466360Y-1724360D02*
X16466360Y-626280D01*
X18546000Y-13054500D02*
X19571000Y-12029500D01*
X16470000Y-1728000D02*
X16466360Y-1724360D01*
X18332000Y-1728000D02*
X16470000Y-1728000D01*
X17974500Y-13054500D02*
X18546000Y-13054500D01*
X19571000Y-12029500D02*
X19571000Y-2967000D01*
X19571000Y-2967000D02*
X18332000Y-1728000D01*
D14*
X5764993Y-1515001D02*
X5464994Y-1815000D01*
X16361600Y-8139600D02*
X15117000Y-6895000D01*
X15117000Y-2704000D02*
X13085000Y-672000D01*
X18241200Y-8139600D02*
X16361600Y-8139600D01*
X15117000Y-6895000D02*
X15117000Y-2704000D01*
X6607994Y-672000D02*
X5764993Y-1515001D01*
X13085000Y-672000D02*
X6607994Y-672000D01*
X12704000Y-9181000D02*
X15172601Y-11649601D01*
X2342948Y-2450000D02*
X6100000Y-2450000D01*
X15172601Y-11649601D02*
X15472600Y-11949600D01*
X6100000Y-2450000D02*
X7462007Y-1087993D01*
X7462007Y-1087993D02*
X12230993Y-1087993D01*
X12230993Y-1087993D02*
X12704000Y-1561000D01*
X12704000Y-1561000D02*
X12704000Y-9181000D01*
X2342948Y-4990000D02*
X4512500Y-4990000D01*
X4512500Y-4990000D02*
X6117501Y-6595001D01*
X6117501Y-6595001D02*
X6417500Y-6895000D01*
X10946000Y-6695000D02*
X11146000Y-6495000D01*
X6354000Y-4503000D02*
X6554000Y-4703000D01*
X6554000Y-4703000D02*
X7048344Y-4703000D01*
X9040344Y-6695000D02*
X10946000Y-6695000D01*
X7048344Y-4703000D02*
X9040344Y-6695000D01*
X6354000Y-5303000D02*
X6554000Y-5103000D01*
X10946000Y-7095000D02*
X11146000Y-7295000D01*
X6882656Y-5103000D02*
X8874656Y-7095000D01*
X8874656Y-7095000D02*
X10946000Y-7095000D01*
X6554000Y-5103000D02*
X6882656Y-5103000D01*
X4512500Y-12610000D02*
X4957000Y-13054500D01*
X2342948Y-12610000D02*
X4512500Y-12610000D01*
D13*
X11679000Y-3212000D02*
X10468800Y-3212000D01*
X9211500Y-10641500D02*
X8250000Y-10641500D01*
M02*
