G04 #@! TF.GenerationSoftware,KiCad,Pcbnew,5.1.5*
G04 #@! TF.CreationDate,2020-02-24T19:12:41+03:00*
G04 #@! TF.ProjectId,mod-lqfp48,6d6f642d-6c71-4667-9034-382e6b696361,rev?*
G04 #@! TF.SameCoordinates,PX1036640PYec82e0*
G04 #@! TF.FileFunction,Legend,Bot*
G04 #@! TF.FilePolarity,Positive*
%FSLAX46Y46*%
G04 Gerber Fmt 4.6, Leading zero omitted, Abs format (unit mm)*
G04 Created by KiCad (PCBNEW 5.1.5) date 2020-02-24 19:12:41*
%MOMM*%
%LPD*%
G04 APERTURE LIST*
%ADD10C,0.120000*%
%ADD11C,0.150000*%
G04 APERTURE END LIST*
D10*
X8825748Y-4082000D02*
X9348252Y-4082000D01*
X8825748Y-2662000D02*
X9348252Y-2662000D01*
X15063252Y-4440000D02*
X14540748Y-4440000D01*
X15063252Y-5860000D02*
X14540748Y-5860000D01*
X12974400Y-9957852D02*
X12974400Y-9435348D01*
X14394400Y-9957852D02*
X14394400Y-9435348D01*
X3990000Y-7911252D02*
X3990000Y-7388748D01*
X5410000Y-7911252D02*
X5410000Y-7388748D01*
D11*
X9444142Y-4919833D02*
X9491761Y-4872214D01*
X9539380Y-4729357D01*
X9539380Y-4634119D01*
X9491761Y-4491261D01*
X9396523Y-4396023D01*
X9301285Y-4348404D01*
X9110809Y-4300785D01*
X8967952Y-4300785D01*
X8777476Y-4348404D01*
X8682238Y-4396023D01*
X8587000Y-4491261D01*
X8539380Y-4634119D01*
X8539380Y-4729357D01*
X8587000Y-4872214D01*
X8634619Y-4919833D01*
X8539380Y-5824595D02*
X8539380Y-5348404D01*
X9015571Y-5300785D01*
X8967952Y-5348404D01*
X8920333Y-5443642D01*
X8920333Y-5681738D01*
X8967952Y-5776976D01*
X9015571Y-5824595D01*
X9110809Y-5872214D01*
X9348904Y-5872214D01*
X9444142Y-5824595D01*
X9491761Y-5776976D01*
X9539380Y-5681738D01*
X9539380Y-5443642D01*
X9491761Y-5348404D01*
X9444142Y-5300785D01*
X15159142Y-3014833D02*
X15206761Y-2967214D01*
X15254380Y-2824357D01*
X15254380Y-2729119D01*
X15206761Y-2586261D01*
X15111523Y-2491023D01*
X15016285Y-2443404D01*
X14825809Y-2395785D01*
X14682952Y-2395785D01*
X14492476Y-2443404D01*
X14397238Y-2491023D01*
X14302000Y-2586261D01*
X14254380Y-2729119D01*
X14254380Y-2824357D01*
X14302000Y-2967214D01*
X14349619Y-3014833D01*
X14254380Y-3348166D02*
X14254380Y-3967214D01*
X14635333Y-3633880D01*
X14635333Y-3776738D01*
X14682952Y-3871976D01*
X14730571Y-3919595D01*
X14825809Y-3967214D01*
X15063904Y-3967214D01*
X15159142Y-3919595D01*
X15206761Y-3871976D01*
X15254380Y-3776738D01*
X15254380Y-3491023D01*
X15206761Y-3395785D01*
X15159142Y-3348166D01*
X15691542Y-9529933D02*
X15739161Y-9482314D01*
X15786780Y-9339457D01*
X15786780Y-9244219D01*
X15739161Y-9101361D01*
X15643923Y-9006123D01*
X15548685Y-8958504D01*
X15358209Y-8910885D01*
X15215352Y-8910885D01*
X15024876Y-8958504D01*
X14929638Y-9006123D01*
X14834400Y-9101361D01*
X14786780Y-9244219D01*
X14786780Y-9339457D01*
X14834400Y-9482314D01*
X14882019Y-9529933D01*
X15120114Y-10387076D02*
X15786780Y-10387076D01*
X14739161Y-10148980D02*
X15453447Y-9910885D01*
X15453447Y-10529933D01*
X6707142Y-7483333D02*
X6754761Y-7435714D01*
X6802380Y-7292857D01*
X6802380Y-7197619D01*
X6754761Y-7054761D01*
X6659523Y-6959523D01*
X6564285Y-6911904D01*
X6373809Y-6864285D01*
X6230952Y-6864285D01*
X6040476Y-6911904D01*
X5945238Y-6959523D01*
X5850000Y-7054761D01*
X5802380Y-7197619D01*
X5802380Y-7292857D01*
X5850000Y-7435714D01*
X5897619Y-7483333D01*
X5802380Y-8340476D02*
X5802380Y-8150000D01*
X5850000Y-8054761D01*
X5897619Y-8007142D01*
X6040476Y-7911904D01*
X6230952Y-7864285D01*
X6611904Y-7864285D01*
X6707142Y-7911904D01*
X6754761Y-7959523D01*
X6802380Y-8054761D01*
X6802380Y-8245238D01*
X6754761Y-8340476D01*
X6707142Y-8388095D01*
X6611904Y-8435714D01*
X6373809Y-8435714D01*
X6278571Y-8388095D01*
X6230952Y-8340476D01*
X6183333Y-8245238D01*
X6183333Y-8054761D01*
X6230952Y-7959523D01*
X6278571Y-7911904D01*
X6373809Y-7864285D01*
M02*
