G04 #@! TF.GenerationSoftware,KiCad,Pcbnew,5.1.5*
G04 #@! TF.CreationDate,2020-02-24T19:12:41+03:00*
G04 #@! TF.ProjectId,mod-lqfp48,6d6f642d-6c71-4667-9034-382e6b696361,rev?*
G04 #@! TF.SameCoordinates,PX1036640PYec82e0*
G04 #@! TF.FileFunction,Legend,Top*
G04 #@! TF.FilePolarity,Positive*
%FSLAX46Y46*%
G04 Gerber Fmt 4.6, Leading zero omitted, Abs format (unit mm)*
G04 Created by KiCad (PCBNEW 5.1.5) date 2020-02-24 19:12:41*
%MOMM*%
%LPD*%
G04 APERTURE LIST*
%ADD10C,0.120000*%
%ADD11C,0.150000*%
G04 APERTURE END LIST*
D10*
X8340000Y-2810000D02*
X7890000Y-2810000D01*
X7890000Y-2810000D02*
X7890000Y-3260000D01*
X14660000Y-2810000D02*
X15110000Y-2810000D01*
X15110000Y-2810000D02*
X15110000Y-3260000D01*
X8340000Y-10030000D02*
X7890000Y-10030000D01*
X7890000Y-10030000D02*
X7890000Y-9580000D01*
X14660000Y-10030000D02*
X15110000Y-10030000D01*
X15110000Y-10030000D02*
X15110000Y-9580000D01*
X15110000Y-9580000D02*
X16400000Y-9580000D01*
X19508252Y-3828000D02*
X18985748Y-3828000D01*
X19508252Y-2408000D02*
X18985748Y-2408000D01*
X21458000Y-7301748D02*
X21458000Y-7824252D01*
X22878000Y-7301748D02*
X22878000Y-7824252D01*
X17373000Y-9587000D02*
X21073000Y-9587000D01*
X21073000Y-9587000D02*
X21073000Y-4287000D01*
D11*
X4284880Y-6753333D02*
X4999166Y-6753333D01*
X5142023Y-6800952D01*
X5237261Y-6896190D01*
X5284880Y-7039047D01*
X5284880Y-7134285D01*
X5284880Y-5753333D02*
X5284880Y-6324761D01*
X5284880Y-6039047D02*
X4284880Y-6039047D01*
X4427738Y-6134285D01*
X4522976Y-6229523D01*
X4570595Y-6324761D01*
X6634380Y-11372904D02*
X7443904Y-11372904D01*
X7539142Y-11325285D01*
X7586761Y-11277666D01*
X7634380Y-11182428D01*
X7634380Y-10991952D01*
X7586761Y-10896714D01*
X7539142Y-10849095D01*
X7443904Y-10801476D01*
X6634380Y-10801476D01*
X7634380Y-9801476D02*
X7634380Y-10372904D01*
X7634380Y-10087190D02*
X6634380Y-10087190D01*
X6777238Y-10182428D01*
X6872476Y-10277666D01*
X6920095Y-10372904D01*
X19604142Y-1570166D02*
X19651761Y-1617785D01*
X19699380Y-1760642D01*
X19699380Y-1855880D01*
X19651761Y-1998738D01*
X19556523Y-2093976D01*
X19461285Y-2141595D01*
X19270809Y-2189214D01*
X19127952Y-2189214D01*
X18937476Y-2141595D01*
X18842238Y-2093976D01*
X18747000Y-1998738D01*
X18699380Y-1855880D01*
X18699380Y-1760642D01*
X18747000Y-1617785D01*
X18794619Y-1570166D01*
X19699380Y-617785D02*
X19699380Y-1189214D01*
X19699380Y-903500D02*
X18699380Y-903500D01*
X18842238Y-998738D01*
X18937476Y-1093976D01*
X18985095Y-1189214D01*
X22525142Y-4872166D02*
X22572761Y-4919785D01*
X22620380Y-5062642D01*
X22620380Y-5157880D01*
X22572761Y-5300738D01*
X22477523Y-5395976D01*
X22382285Y-5443595D01*
X22191809Y-5491214D01*
X22048952Y-5491214D01*
X21858476Y-5443595D01*
X21763238Y-5395976D01*
X21668000Y-5300738D01*
X21620380Y-5157880D01*
X21620380Y-5062642D01*
X21668000Y-4919785D01*
X21715619Y-4872166D01*
X21715619Y-4491214D02*
X21668000Y-4443595D01*
X21620380Y-4348357D01*
X21620380Y-4110261D01*
X21668000Y-4015023D01*
X21715619Y-3967404D01*
X21810857Y-3919785D01*
X21906095Y-3919785D01*
X22048952Y-3967404D01*
X22620380Y-4538833D01*
X22620380Y-3919785D01*
X19223190Y-11087190D02*
X19699380Y-11087190D01*
X18699380Y-11420523D02*
X19223190Y-11087190D01*
X18699380Y-10753857D01*
X19699380Y-9896714D02*
X19699380Y-10468142D01*
X19699380Y-10182428D02*
X18699380Y-10182428D01*
X18842238Y-10277666D01*
X18937476Y-10372904D01*
X18985095Y-10468142D01*
M02*
